<?xml version="1.0" encoding="UTF-8" standalone="no"?>
<!DOCTYPE svg PUBLIC "-//W3C//DTD SVG 20010904//EN"
              "http://www.w3.org/TR/2001/REC-SVG-20010904/DTD/svg10.dtd">

<svg xmlns="http://www.w3.org/2000/svg"
     width="11.1111in" height="3.81944in"
     viewBox="0 0 800 275">
  <path id="imagebot_5"
        fill="none" stroke="black" stroke-width="1"
        d="M 645.38,190.64
           C 647.73,189.53 651.17,183.97 651.17,181.28
             651.17,179.38 649.44,177.41 646.35,175.79
             642.33,173.67 641.39,172.62 643.07,172.09
             644.10,171.76 647.12,173.13 652.72,176.48
             661.03,181.46 661.94,181.69 664.49,179.38
             666.33,177.72 668.64,173.28 668.91,170.86
             669.10,169.19 669.05,169.12 666.93,167.53
             665.73,166.63 661.75,164.18 658.09,162.08
             654.42,159.98 651.24,157.98 651.02,157.62
             650.42,156.67 651.42,155.70 652.98,155.70
             654.27,155.70 654.81,155.99 664.48,161.91
             669.62,165.05 673.64,167.03 674.89,167.03
             677.38,167.03 681.98,160.25 681.98,156.58
             681.98,153.58 679.82,151.92 667.20,145.25
             663.87,143.49 660.96,141.77 660.74,141.42
             660.12,140.44 661.16,139.51 662.89,139.51
             664.77,139.51 669.12,141.58 673.74,144.68
             681.42,149.83 683.49,150.51 686.26,148.80
             688.68,147.31 691.59,141.71 691.10,139.48
             690.83,138.27 688.85,136.26 687.05,135.38
             686.38,135.06 680.54,131.68 674.08,127.89
             658.01,118.44 644.49,110.76 639.54,108.26
             639.54,108.26 635.41,106.17 635.41,106.17
             635.41,106.17 633.74,107.33 633.74,107.33
             631.15,109.12 630.24,110.44 629.92,112.86
             629.42,116.69 627.65,125.27 626.62,128.90
             625.47,132.92 624.35,134.22 621.32,135.07
             616.69,136.37 605.31,133.49 601.65,130.09
             598.53,127.20 598.32,123.49 600.68,113.20
             602.94,103.37 605.20,95.39 606.08,94.20
             606.50,93.63 609.14,91.61 611.96,89.71
             614.77,87.81 617.19,86.14 617.34,85.99
             617.98,85.35 612.18,83.02 610.38,83.20
             610.13,83.22 606.21,85.67 601.67,88.63
             591.12,95.51 584.32,99.66 581.22,101.12
             581.22,101.12 578.77,102.27 578.77,102.27
             578.77,102.27 573.11,100.88 573.11,100.88
             568.41,99.72 548.67,94.16 541.60,92.00
             541.60,92.00 539.67,91.41 539.67,91.41
             539.67,91.41 538.72,93.30 538.72,93.30
             534.92,100.82 530.97,115.64 529.97,126.15
             529.38,132.33 529.23,150.26 529.76,150.79
             530.09,151.12 543.45,154.98 562.07,160.15
             562.07,160.15 564.79,160.90 564.79,160.90
             564.79,160.90 566.22,158.92 566.22,158.92
             567.00,157.83 568.37,156.45 569.27,155.86
             570.67,154.93 571.21,154.81 573.23,154.97
             575.95,155.18 578.97,156.51 582.44,159.04
             582.44,159.04 584.86,160.80 584.86,160.80
             584.86,160.80 587.21,158.29 587.21,158.29
             590.51,154.78 591.74,154.26 595.37,154.86
             598.41,155.36 601.39,156.50 602.65,157.64
             603.08,158.02 603.79,159.06 604.24,159.95
             604.69,160.84 605.11,161.63 605.18,161.71
             605.25,161.79 606.62,161.20 608.23,160.39
             610.63,159.20 611.59,158.94 613.63,158.94
             618.14,158.94 623.33,162.20 625.35,166.30
             625.93,167.48 626.49,168.74 626.59,169.10
             626.72,169.55 627.45,169.81 629.02,169.98
             633.44,170.43 638.52,174.07 640.47,178.16
             641.93,181.23 641.64,184.05 639.57,187.10
             638.35,188.90 638.54,189.53 640.66,190.61
             642.40,191.49 643.56,191.50 645.38,190.64
             645.38,190.64 645.38,190.64 645.38,190.64 Z" />
</svg>
