<?xml version="1.0" encoding="UTF-8" standalone="no"?>
<!DOCTYPE svg PUBLIC "-//W3C//DTD SVG 20010904//EN"
              "http://www.w3.org/TR/2001/REC-SVG-20010904/DTD/svg10.dtd">

<svg xmlns="http://www.w3.org/2000/svg"
     width="11.1111in" height="3.81944in"
     viewBox="0 0 800 275">
  <path id="imagebot_4"
        fill="none" stroke="black" stroke-width="1"
        d="M 626.04,203.24
           C 628.98,200.29 636.76,184.57 636.76,181.59
             636.76,179.89 635.86,178.30 633.95,176.66
             631.57,174.62 627.78,173.71 625.88,174.73
             625.47,174.95 622.40,179.84 619.05,185.60
             613.78,194.64 612.95,196.30 612.95,197.79
             612.95,200.11 614.40,201.42 618.48,202.79
             622.11,204.01 625.10,204.19 626.04,203.24 Z
           M 609.52,192.45
           C 613.46,187.22 622.83,171.77 622.79,170.58
             622.74,169.16 620.51,165.85 618.83,164.69
             616.55,163.13 610.81,162.55 609.10,163.72
             608.86,163.88 606.00,169.00 602.74,175.10
             595.84,188.00 595.75,188.33 598.53,190.72
             600.30,192.25 606.39,195.46 607.10,195.25
             607.33,195.18 608.41,193.92 609.52,192.45 Z
           M 593.12,184.82
           C 594.73,184.25 597.03,180.83 601.06,172.97
             602.96,169.26 604.08,166.60 604.08,165.79
             604.08,163.10 598.50,159.36 594.52,159.36
             594.52,159.36 592.38,159.36 592.38,159.36
             592.38,159.36 586.68,167.92 586.68,167.92
             581.25,176.08 581.00,176.55 581.20,178.10
             581.32,178.99 581.77,180.20 582.19,180.77
             583.16,182.10 586.73,184.06 589.35,184.70
             591.96,185.34 591.66,185.33 593.12,184.82 Z
           M 578.32,174.64
           C 580.19,172.71 583.00,168.56 583.34,167.21
             583.62,166.08 582.33,163.56 580.61,161.91
             578.80,160.17 576.71,159.36 574.06,159.36
             571.36,159.36 570.22,160.21 567.32,164.34
             565.08,167.54 564.81,169.13 566.14,171.29
             567.62,173.69 572.19,176.31 574.92,176.34
             576.42,176.35 576.85,176.14 578.32,174.64 Z
           M 693.71,158.19
           C 705.90,155.00 715.93,152.16 716.29,151.80
             717.50,150.58 718.10,127.08 717.10,120.16
             716.19,113.82 713.44,105.70 709.16,96.69
             707.05,92.25 706.48,91.34 705.88,91.52
             705.49,91.65 697.68,93.66 688.53,96.00
             688.53,96.00 671.90,100.24 671.90,100.24
             671.90,100.24 660.28,93.21 660.28,93.21
             653.89,89.35 646.41,84.89 643.65,83.31
             643.65,83.31 638.64,80.43 638.64,80.43
             638.64,80.43 634.57,80.43 634.57,80.43
             634.57,80.43 630.50,80.43 630.50,80.43
             630.50,80.43 627.88,82.20 627.88,82.20
             626.44,83.18 621.64,86.73 617.21,90.09
             607.96,97.11 609.00,95.53 606.73,106.13
             604.92,114.64 604.34,119.27 604.56,123.46
             604.77,127.66 605.29,128.55 608.38,130.06
             610.41,131.06 611.16,131.20 614.35,131.20
             616.83,131.19 618.47,130.98 619.48,130.53
             620.84,129.93 621.05,129.60 621.96,126.71
             622.50,124.96 623.72,119.96 624.66,115.59
             624.66,115.59 626.38,107.63 626.38,107.63
             626.38,107.63 630.75,104.56 630.75,104.56
             633.16,102.86 635.24,101.48 635.38,101.48
             636.08,101.48 689.64,132.63 690.91,133.78
             694.48,137.00 695.02,141.52 692.45,146.60
             690.71,150.04 687.83,153.18 686.08,153.53
             686.08,153.53 684.78,153.79 684.78,153.79
             684.78,153.79 684.78,157.22 684.78,157.22
             684.78,159.96 684.90,160.61 685.33,160.45
             685.64,160.33 689.40,159.31 693.71,158.19 Z" />
</svg>
