<?xml version="1.0" encoding="UTF-8" standalone="no"?>
<!DOCTYPE svg PUBLIC "-//W3C//DTD SVG 20010904//EN"
              "http://www.w3.org/TR/2001/REC-SVG-20010904/DTD/svg10.dtd">

<svg xmlns="http://www.w3.org/2000/svg"
     width="11.1111in" height="3.81944in"
     viewBox="0 0 800 275">
  <path id="OMS"
        fill="none" stroke="black" stroke-width="1"
        d="M 40.58,81.00
           C 44.52,81.00 47.98,81.79 50.94,83.38
             53.89,84.96 56.27,87.26 58.05,90.27
             59.84,93.27 60.73,96.54 60.73,100.08
             60.73,105.56 58.69,110.42 54.61,114.66
             50.52,118.89 45.47,121.00 39.44,121.00
             33.95,121.00 29.25,119.25 25.36,115.75
             21.46,112.25 19.52,107.52 19.52,101.55
             19.52,95.91 21.53,91.08 25.56,87.05
             29.59,83.02 34.60,81.00 40.58,81.00 Z
           M 50.81,100.98
           C 50.81,95.02 49.80,90.53 47.80,87.52
             45.79,84.51 43.24,83.00 40.16,83.00
             37.08,83.00 34.54,84.51 32.53,87.53
             30.52,90.55 29.52,95.04 29.52,100.98
             29.52,106.70 30.47,111.12 32.39,114.28
             34.32,117.43 36.91,119.00 40.16,119.00
             43.02,119.00 45.51,117.58 47.62,114.73
             49.75,111.89 50.81,107.31 50.81,100.98 Z
           M 74.42,98.83
           C 75.47,97.56 76.59,96.61 77.78,95.97
             78.98,95.32 80.24,95.00 81.58,95.00
             84.30,95.00 86.91,96.16 89.38,98.48
             91.85,100.81 93.09,103.79 93.09,107.42
             93.09,110.82 91.86,113.77 89.41,116.27
             86.96,118.76 84.07,120.00 80.73,120.00
             79.54,120.00 78.38,119.83 77.27,119.48
             76.15,119.14 75.07,118.62 74.02,117.94
             74.02,126.41 74.23,131.34 74.66,132.75
             75.08,134.16 76.23,134.91 78.11,135.00
             78.80,135.01 79.14,135.18 79.14,135.50
             79.14,135.83 78.68,136.00 77.77,136.00
             77.23,136.00 76.42,136.00 75.33,136.00
             73.05,136.00 71.05,136.00 69.36,136.00
             68.20,136.00 66.80,136.00 65.17,136.00
             64.37,136.00 63.86,136.00 63.64,136.00
             62.63,136.00 62.12,135.84 62.12,135.53
             62.12,135.24 62.67,135.06 63.77,135.00
             65.55,134.82 66.61,133.70 66.95,131.64
             67.30,129.59 67.48,122.58 67.48,110.61
             67.48,110.61 67.31,100.81 67.31,100.81
             67.31,98.91 67.08,97.67 66.62,97.11
             66.18,96.55 65.46,96.22 64.48,96.12
             63.74,96.04 63.38,95.85 63.38,95.55
             63.38,95.18 63.80,95.00 64.64,95.00
             68.10,95.00 71.36,95.00 74.42,95.00
             74.42,95.00 74.48,97.94 74.48,97.94
             74.48,98.06 74.46,98.36 74.42,98.83 Z
           M 84.83,108.55
           C 84.83,105.20 84.30,102.61 83.25,100.77
             82.21,98.92 80.85,98.00 79.17,98.00
             77.45,98.00 76.16,98.98 75.28,100.95
             74.41,102.91 73.98,105.87 73.98,109.81
             73.98,112.94 74.40,115.09 75.23,116.25
             76.08,117.42 77.42,118.00 79.27,118.00
             81.12,118.00 82.51,117.21 83.44,115.64
             84.36,114.06 84.83,111.70 84.83,108.55 Z
           M 108.22,95.08
           C 109.41,95.03 111.23,95.00 113.70,95.00
             114.82,95.00 115.73,95.09 116.45,95.28
             116.16,96.66 115.90,97.39 115.67,97.48
             115.45,97.57 112.97,97.74 108.22,98.00
             108.22,98.00 107.89,110.27 107.89,110.27
             107.89,112.02 107.98,113.30 108.17,114.11
             108.36,114.92 108.78,115.61 109.44,116.17
             110.10,116.73 110.96,117.00 112.02,117.00
             112.92,117.00 114.20,116.42 115.86,115.25
             116.11,115.09 116.32,115.00 116.50,115.00
             116.88,115.00 117.06,115.23 117.06,115.67
             117.06,116.32 116.27,117.20 114.69,118.33
             113.10,119.45 111.25,120.00 109.12,120.00
             106.60,120.00 104.62,119.41 103.19,118.22
             101.75,117.02 101.03,114.51 101.03,110.67
             101.03,106.45 101.11,102.22 101.27,98.00
             99.34,98.00 97.97,97.95 97.17,97.86
             96.37,97.77 95.97,97.50 95.97,97.06
             95.97,96.70 96.43,96.41 97.34,96.19
             99.16,95.74 100.79,94.94 102.22,93.78
             103.66,92.62 104.88,90.76 105.91,88.22
             106.31,87.19 106.59,86.56 106.73,86.34
             106.88,86.12 107.09,86.00 107.38,86.00
             107.94,86.00 108.22,86.52 108.22,87.55
             108.22,87.55 108.22,95.08 108.22,95.08 Z
           M 130.12,84.00
           C 130.12,85.09 129.71,86.04 128.88,86.83
             128.05,87.61 127.06,88.00 125.91,88.00
             124.74,88.00 123.74,87.61 122.92,86.83
             122.10,86.04 121.69,85.09 121.69,84.00
             121.69,82.89 122.10,81.95 122.92,81.17
             123.74,80.39 124.74,80.00 125.91,80.00
             127.06,80.00 128.05,80.39 128.88,81.17
             129.71,81.95 130.12,82.89 130.12,84.00 Z
           M 130.53,95.00
           C 130.61,97.70 130.66,102.51 130.66,109.42
             130.66,109.42 130.56,115.64 130.56,115.64
             130.56,116.90 130.77,117.75 131.19,118.17
             131.61,118.59 132.30,118.87 133.27,119.00
             134.36,119.09 134.91,119.27 134.91,119.55
             134.91,119.85 134.47,120.00 133.61,120.00
             133.20,120.00 132.49,120.00 131.48,120.00
             129.33,120.00 127.20,120.00 125.09,120.00
             124.05,120.00 122.99,120.00 121.92,120.00
             121.27,120.00 120.84,120.00 120.61,120.00
             119.74,120.00 119.31,119.84 119.31,119.53
             119.31,119.24 119.88,119.06 121.02,119.00
             122.52,118.86 123.35,118.33 123.53,117.42
             123.71,116.52 123.80,114.68 123.80,111.91
             123.80,108.31 123.74,105.02 123.62,102.02
             123.52,99.01 123.32,97.29 123.03,96.86
             122.74,96.43 121.98,96.15 120.75,96.00
             119.79,95.95 119.31,95.79 119.31,95.52
             119.31,95.25 119.80,95.09 120.78,95.03
             120.78,95.03 121.39,95.00 121.39,95.00
             121.39,95.00 130.53,95.00 130.53,95.00 Z
           M 148.28,99.81
           C 149.69,98.20 151.10,97.00 152.53,96.20
             153.97,95.40 155.43,95.00 156.92,95.00
             157.97,95.00 159.08,95.23 160.25,95.70
             161.43,96.17 162.71,97.27 164.09,98.98
             165.50,97.66 166.94,96.67 168.42,96.00
             169.91,95.34 171.44,95.00 173.00,95.00
             175.68,95.00 177.64,95.71 178.89,97.14
             180.12,98.59 180.73,100.73 180.73,103.56
             180.73,103.56 180.59,113.36 180.59,113.36
             180.59,116.12 180.73,117.71 181.00,118.12
             181.27,118.53 182.01,118.82 183.22,119.00
             183.91,119.07 184.25,119.23 184.25,119.47
             184.25,119.82 183.85,120.00 183.05,120.00
             182.91,120.00 182.72,120.00 182.47,120.00
             180.82,120.00 179.04,120.00 177.11,120.00
             176.05,120.00 174.77,120.00 173.30,120.00
             172.38,120.00 171.85,120.00 171.72,120.00
             170.74,120.00 170.25,119.84 170.25,119.52
             170.25,119.21 170.57,119.04 171.22,119.00
             172.33,118.86 173.02,118.67 173.27,118.45
             173.52,118.23 173.72,117.37 173.86,115.89
             173.99,114.40 174.06,111.89 174.06,108.36
             174.06,105.13 173.97,102.92 173.80,101.72
             173.62,100.51 173.22,99.59 172.59,98.95
             171.97,98.32 171.19,98.00 170.25,98.00
             169.41,98.00 168.55,98.26 167.67,98.78
             166.80,99.29 165.91,100.07 165.00,101.12
             164.39,104.02 164.09,108.24 164.09,113.78
             164.09,116.14 164.27,117.56 164.62,118.06
             164.98,118.55 165.78,118.87 167.03,119.00
             167.77,119.04 168.14,119.20 168.14,119.45
             168.14,119.82 167.67,120.00 166.73,120.00
             166.52,120.00 165.77,120.00 164.48,120.00
             162.70,120.00 161.44,120.00 160.70,120.00
             159.43,120.00 157.93,120.00 156.19,120.00
             155.74,120.00 155.39,120.00 155.16,120.00
             154.30,120.00 153.88,119.84 153.88,119.50
             153.88,119.20 154.30,119.03 155.14,119.00
             156.25,118.93 156.96,118.33 157.25,117.20
             157.54,116.07 157.69,112.12 157.69,105.34
             157.69,102.55 157.43,100.63 156.92,99.58
             156.41,98.53 155.58,98.00 154.44,98.00
             152.44,98.00 150.86,99.01 149.70,101.02
             148.55,103.03 147.98,106.98 147.98,112.89
             147.98,115.66 148.16,117.36 148.52,117.98
             148.88,118.60 149.56,118.94 150.56,119.00
             151.30,119.02 151.67,119.17 151.67,119.45
             151.67,119.82 151.27,120.00 150.47,120.00
             150.31,120.00 150.04,120.00 149.66,120.00
             148.63,120.00 146.89,120.00 144.44,120.00
             142.25,120.00 140.55,120.00 139.36,120.00
             138.89,120.00 138.54,120.00 138.31,120.00
             137.66,120.00 137.34,119.84 137.34,119.50
             137.34,119.19 137.70,119.02 138.42,119.00
             139.60,118.94 140.32,118.73 140.59,118.36
             140.88,117.98 141.08,116.95 141.22,115.27
             141.35,113.58 141.42,110.40 141.42,105.73
             141.42,102.09 141.38,99.81 141.28,98.89
             141.20,97.96 140.88,97.26 140.31,96.77
             139.76,96.28 139.00,96.02 138.03,96.00
             137.23,95.99 136.83,95.83 136.83,95.52
             136.83,95.20 137.23,95.02 138.03,95.00
             139.06,95.00 140.59,95.00 142.62,95.00
             144.66,95.00 146.41,95.00 147.89,95.00
             148.13,95.61 148.25,96.60 148.25,97.98
             148.25,98.34 148.26,98.95 148.28,99.81 Z
           M 201.03,117.03
           C 199.82,118.02 198.60,118.77 197.36,119.27
             196.13,119.76 194.89,120.00 193.64,120.00
             191.65,120.00 190.11,119.45 189.03,118.33
             187.95,117.21 187.41,115.86 187.41,114.27
             187.41,113.03 187.73,111.92 188.39,110.95
             189.05,109.98 189.85,109.23 190.81,108.70
             191.78,108.16 193.38,107.52 195.61,106.78
             197.48,106.17 198.74,105.68 199.38,105.33
             200.01,104.98 200.54,104.43 200.97,103.70
             201.39,102.96 201.61,102.05 201.61,100.95
             201.61,99.76 201.29,98.80 200.64,98.08
             199.99,97.36 199.11,97.00 197.98,97.00
             197.00,97.00 196.31,97.23 195.91,97.67
             195.50,98.14 195.19,98.89 194.97,99.92
             194.52,101.98 193.32,103.00 191.36,103.00
             190.55,103.00 189.87,102.78 189.30,102.33
             188.73,101.87 188.45,101.22 188.45,100.38
             188.45,98.57 189.47,97.23 191.52,96.34
             193.55,95.45 195.99,95.00 198.83,95.00
             201.27,95.00 203.27,95.34 204.80,96.03
             206.33,96.72 207.30,97.52 207.73,98.42
             208.16,99.33 208.38,100.75 208.38,102.67
             208.38,102.67 208.33,109.11 208.33,109.11
             208.33,112.51 208.45,114.68 208.69,115.64
             208.94,116.60 209.46,117.08 210.27,117.08
             210.38,117.08 210.54,117.07 210.73,117.05
             211.12,117.02 211.38,117.00 211.52,117.00
             212.32,117.00 212.72,117.26 212.72,117.77
             212.72,118.09 212.55,118.37 212.22,118.59
             211.88,118.82 210.88,119.12 209.22,119.47
             207.55,119.82 206.04,120.00 204.69,120.00
             203.34,120.00 202.42,119.78 201.92,119.33
             201.42,118.88 201.12,118.12 201.03,117.03 Z
           M 201.41,106.00
           C 200.94,106.53 199.81,107.24 198.03,108.12
             196.41,108.93 195.33,109.64 194.78,110.27
             194.24,110.91 193.97,111.84 193.97,113.06
             193.97,114.34 194.25,115.32 194.83,116.00
             195.41,116.67 196.12,117.00 196.95,117.00
             198.09,117.00 199.14,116.51 200.11,115.53
             201.09,114.54 201.58,112.81 201.58,110.33
             201.58,109.56 201.52,108.12 201.41,106.00 Z
           M 226.27,80.00
           C 226.27,80.00 226.36,104.83 226.36,104.83
             226.38,112.76 226.58,117.09 226.97,117.81
             227.36,118.54 228.15,118.94 229.33,119.00
             230.69,119.03 231.38,119.19 231.38,119.47
             231.38,119.82 230.95,120.00 230.11,120.00
             229.88,120.00 229.54,120.00 229.09,120.00
             227.20,120.00 225.36,120.00 223.58,120.00
             220.69,120.00 218.55,120.00 217.17,120.00
             216.77,120.00 216.42,120.00 216.11,120.00
             215.23,120.00 214.80,119.84 214.80,119.52
             214.80,119.20 215.29,119.03 216.28,119.00
             217.35,118.94 218.14,118.74 218.64,118.41
             219.14,118.06 219.44,117.59 219.55,116.98
             219.66,116.38 219.72,114.96 219.72,112.73
             219.72,112.73 219.59,101.02 219.59,101.02
             219.59,101.02 219.69,91.70 219.69,91.70
             219.69,87.85 219.50,85.51 219.14,84.69
             218.77,83.87 217.71,83.30 215.94,83.00
             214.86,82.92 214.33,82.75 214.33,82.48
             214.33,82.32 214.45,82.21 214.69,82.16
             214.94,82.09 215.54,82.04 216.50,82.00
             220.50,81.55 223.75,80.89 226.27,80.00 Z
           M 263.27,82.00
           C 263.77,83.19 264.71,85.07 266.08,87.66
             267.44,90.23 268.79,92.84 270.12,95.50
             271.47,98.15 272.98,100.94 274.67,103.88
             276.02,106.19 276.77,107.55 276.95,107.95
             281.85,97.20 285.55,88.55 288.08,82.00
             292.77,82.00 297.09,82.00 301.06,82.00
             301.43,82.00 301.70,82.00 301.88,82.00
             302.68,82.00 303.08,82.18 303.08,82.53
             303.08,82.84 302.77,83.00 302.14,83.00
             299.91,83.00 298.45,83.77 297.75,85.30
             297.06,86.82 296.72,90.54 296.72,96.45
             296.72,96.45 296.69,110.94 296.69,110.94
             296.69,113.89 297.07,115.95 297.84,117.14
             298.61,118.32 299.87,118.94 301.61,119.00
             302.45,119.01 302.88,119.20 302.88,119.56
             302.88,119.75 302.70,119.92 302.34,120.06
             302.34,120.06 294.11,120.00 294.11,120.00
             291.60,120.00 288.16,120.00 283.78,120.00
             283.41,119.86 283.22,119.70 283.22,119.53
             283.22,119.27 283.72,119.09 284.73,119.00
             285.77,118.82 286.52,118.57 286.98,118.23
             287.44,117.90 287.79,117.29 288.02,116.39
             288.25,115.50 288.38,114.18 288.38,112.44
             288.38,112.44 288.48,99.34 288.48,99.34
             288.48,92.65 288.49,88.79 288.52,87.78
             283.20,99.90 279.91,107.62 278.64,110.97
             278.64,110.97 275.69,118.77 275.69,118.77
             275.35,119.59 275.02,120.00 274.69,120.00
             274.34,120.00 273.93,119.49 273.44,118.47
             272.01,115.52 266.92,105.78 258.17,89.25
             258.07,94.09 258.02,100.60 258.02,108.80
             258.02,113.12 258.26,115.86 258.75,117.00
             259.24,118.14 260.61,118.80 262.86,119.00
             263.60,119.05 263.97,119.23 263.97,119.52
             263.97,119.84 263.66,120.00 263.06,120.00
             262.84,120.00 262.61,120.00 262.36,120.00
             260.02,120.00 258.33,120.00 257.31,120.00
             254.54,120.00 252.44,120.00 251.02,120.00
             250.74,120.00 250.54,120.00 250.41,120.00
             249.72,120.00 249.38,119.82 249.38,119.47
             249.38,119.29 249.46,119.17 249.62,119.11
             249.79,119.04 250.23,118.92 250.95,118.77
             252.83,118.41 254.05,117.73 254.62,116.73
             255.21,115.73 255.50,114.09 255.50,111.81
             255.50,111.81 255.64,94.97 255.64,94.97
             255.64,91.14 255.54,88.60 255.34,87.36
             255.16,86.12 254.68,85.17 253.92,84.50
             253.16,83.84 251.92,83.34 250.20,83.00
             249.55,82.93 249.23,82.75 249.23,82.45
             249.23,82.15 249.58,82.00 250.28,82.00
             250.44,82.00 250.66,82.00 250.94,82.00
             252.93,82.00 257.04,82.00 263.27,82.00 Z
           M 314.25,107.00
           C 314.23,107.51 314.22,107.88 314.22,108.11
             314.22,110.59 314.89,112.70 316.25,114.42
             317.61,116.14 319.45,117.00 321.75,117.00
             324.11,117.00 326.44,116.17 328.73,114.50
             329.20,114.17 329.53,114.00 329.72,114.00
             330.23,114.00 330.48,114.25 330.48,114.75
             330.48,115.15 329.89,115.86 328.72,116.89
             327.55,117.92 326.12,118.70 324.42,119.22
             322.72,119.74 320.96,120.00 319.14,120.00
             315.16,120.00 312.04,118.84 309.78,116.53
             307.53,114.21 306.41,111.48 306.41,108.34
             306.41,104.56 307.70,101.40 310.28,98.84
             312.88,96.28 316.10,95.00 319.97,95.00
             323.59,95.00 326.36,96.20 328.27,98.58
             330.17,100.96 331.12,103.23 331.12,105.39
             331.12,106.08 330.94,106.49 330.56,106.62
             330.20,106.76 329.00,106.83 326.97,106.83
             326.97,106.83 314.25,107.00 314.25,107.00 Z
           M 314.44,105.00
           C 317.32,105.04 318.99,105.06 319.45,105.06
             321.65,105.06 323.00,104.91 323.50,104.61
             324.00,104.31 324.25,103.70 324.25,102.80
             324.25,101.28 323.79,99.93 322.88,98.77
             321.96,97.59 320.86,97.00 319.59,97.00
             316.58,97.00 314.86,99.67 314.44,105.00 Z
           M 354.06,97.64
           C 354.06,91.61 354.03,87.56 353.97,85.50
             353.91,83.43 353.76,82.21 353.50,81.86
             353.25,81.51 352.55,81.22 351.42,81.00
             350.66,80.93 350.28,80.76 350.28,80.48
             350.28,80.28 350.41,80.15 350.67,80.09
             350.94,80.03 351.79,80.00 353.22,80.00
             353.22,80.00 360.95,80.00 360.95,80.00
             360.95,80.00 360.89,101.06 360.89,101.06
             360.89,101.06 360.75,114.14 360.75,114.14
             360.75,116.15 360.91,117.43 361.25,117.97
             361.59,118.50 362.38,118.84 363.62,119.00
             364.34,119.05 364.70,119.23 364.70,119.52
             364.70,119.84 364.32,120.00 363.56,120.00
             363.56,120.00 354.06,120.00 354.06,120.00
             354.06,120.00 354.06,115.98 354.06,115.98
             353.22,117.50 352.19,118.54 350.98,119.12
             349.77,119.71 348.37,120.00 346.77,120.00
             343.77,120.00 341.15,118.90 338.89,116.69
             336.64,114.47 335.52,111.62 335.52,108.12
             335.52,104.30 336.80,101.16 339.38,98.70
             341.96,96.23 344.83,95.00 348.00,95.00
             349.19,95.00 350.28,95.22 351.28,95.66
             352.29,96.09 353.22,96.76 354.06,97.64 Z
           M 343.44,107.19
           C 343.44,110.59 343.93,113.07 344.91,114.64
             345.89,116.21 347.15,117.00 348.67,117.00
             350.14,117.00 351.39,116.25 352.44,114.75
             353.48,113.25 354.00,110.53 354.00,106.59
             354.00,103.40 353.55,101.00 352.67,99.41
             351.80,97.80 350.47,97.00 348.70,97.00
             346.95,97.00 345.63,97.85 344.75,99.55
             343.88,101.25 343.44,103.79 343.44,107.19 Z
           M 378.12,84.00
           C 378.12,85.09 377.71,86.04 376.88,86.83
             376.05,87.61 375.06,88.00 373.91,88.00
             372.74,88.00 371.74,87.61 370.92,86.83
             370.10,86.04 369.69,85.09 369.69,84.00
             369.69,82.89 370.10,81.95 370.92,81.17
             371.74,80.39 372.74,80.00 373.91,80.00
             375.06,80.00 376.05,80.39 376.88,81.17
             377.71,81.95 378.12,82.89 378.12,84.00 Z
           M 378.53,95.00
           C 378.61,97.70 378.66,102.51 378.66,109.42
             378.66,109.42 378.56,115.64 378.56,115.64
             378.56,116.90 378.77,117.75 379.19,118.17
             379.61,118.59 380.30,118.87 381.27,119.00
             382.36,119.09 382.91,119.27 382.91,119.55
             382.91,119.85 382.47,120.00 381.61,120.00
             381.20,120.00 380.49,120.00 379.48,120.00
             377.33,120.00 375.20,120.00 373.09,120.00
             372.05,120.00 370.99,120.00 369.92,120.00
             369.27,120.00 368.84,120.00 368.61,120.00
             367.74,120.00 367.31,119.84 367.31,119.53
             367.31,119.24 367.88,119.06 369.02,119.00
             370.52,118.86 371.35,118.33 371.53,117.42
             371.71,116.52 371.80,114.68 371.80,111.91
             371.80,108.31 371.74,105.02 371.62,102.02
             371.52,99.01 371.32,97.29 371.03,96.86
             370.74,96.43 369.98,96.15 368.75,96.00
             367.79,95.95 367.31,95.79 367.31,95.52
             367.31,95.25 367.80,95.09 368.78,95.03
             368.78,95.03 369.39,95.00 369.39,95.00
             369.39,95.00 378.53,95.00 378.53,95.00 Z
           M 400.03,117.03
           C 398.82,118.02 397.60,118.77 396.36,119.27
             395.13,119.76 393.89,120.00 392.64,120.00
             390.65,120.00 389.11,119.45 388.03,118.33
             386.95,117.21 386.41,115.86 386.41,114.27
             386.41,113.03 386.73,111.92 387.39,110.95
             388.05,109.98 388.85,109.23 389.81,108.70
             390.78,108.16 392.38,107.52 394.61,106.78
             396.48,106.17 397.74,105.68 398.38,105.33
             399.01,104.98 399.54,104.43 399.97,103.70
             400.39,102.96 400.61,102.05 400.61,100.95
             400.61,99.76 400.29,98.80 399.64,98.08
             398.99,97.36 398.11,97.00 396.98,97.00
             396.00,97.00 395.31,97.23 394.91,97.67
             394.50,98.14 394.19,98.89 393.97,99.92
             393.52,101.98 392.32,103.00 390.36,103.00
             389.55,103.00 388.87,102.78 388.30,102.33
             387.73,101.87 387.45,101.22 387.45,100.38
             387.45,98.57 388.47,97.23 390.52,96.34
             392.55,95.45 394.99,95.00 397.83,95.00
             400.27,95.00 402.27,95.34 403.80,96.03
             405.33,96.72 406.30,97.52 406.73,98.42
             407.16,99.33 407.38,100.75 407.38,102.67
             407.38,102.67 407.33,109.11 407.33,109.11
             407.33,112.51 407.45,114.68 407.69,115.64
             407.94,116.60 408.46,117.08 409.27,117.08
             409.38,117.08 409.54,117.07 409.73,117.05
             410.12,117.02 410.38,117.00 410.52,117.00
             411.32,117.00 411.72,117.26 411.72,117.77
             411.72,118.09 411.55,118.37 411.22,118.59
             410.88,118.82 409.88,119.12 408.22,119.47
             406.55,119.82 405.04,120.00 403.69,120.00
             402.34,120.00 401.42,119.78 400.92,119.33
             400.42,118.88 400.12,118.12 400.03,117.03 Z
           M 400.41,106.00
           C 399.94,106.53 398.81,107.24 397.03,108.12
             395.41,108.93 394.33,109.64 393.78,110.27
             393.24,110.91 392.97,111.84 392.97,113.06
             392.97,114.34 393.25,115.32 393.83,116.00
             394.41,116.67 395.12,117.00 395.95,117.00
             397.09,117.00 398.14,116.51 399.11,115.53
             400.09,114.54 400.58,112.81 400.58,110.33
             400.58,109.56 400.52,108.12 400.41,106.00 Z
           M 425.82,95.08
           C 427.01,95.03 428.84,95.00 431.31,95.00
             432.42,95.00 433.34,95.09 434.06,95.28
             433.77,96.66 433.50,97.39 433.28,97.48
             433.06,97.57 430.57,97.74 425.82,98.00
             425.82,98.00 425.50,110.27 425.50,110.27
             425.50,112.02 425.59,113.30 425.78,114.11
             425.96,114.92 426.39,115.61 427.04,116.17
             427.71,116.73 428.57,117.00 429.62,117.00
             430.53,117.00 431.81,116.42 433.46,115.25
             433.71,115.09 433.93,115.00 434.11,115.00
             434.48,115.00 434.67,115.23 434.67,115.67
             434.67,116.32 433.88,117.20 432.29,118.33
             430.71,119.45 428.86,120.00 426.73,120.00
             424.21,120.00 422.23,119.41 420.79,118.22
             419.36,117.02 418.64,114.51 418.64,110.67
             418.64,106.45 418.71,102.22 418.87,98.00
             416.94,98.00 415.58,97.95 414.78,97.86
             413.97,97.77 413.57,97.50 413.57,97.06
             413.57,96.70 414.03,96.41 414.95,96.19
             416.77,95.74 418.39,94.94 419.82,93.78
             421.26,92.62 422.49,90.76 423.51,88.22
             423.92,87.19 424.19,86.56 424.34,86.34
             424.48,86.12 424.70,86.00 424.98,86.00
             425.54,86.00 425.82,86.52 425.82,87.55
             425.82,87.55 425.82,95.08 425.82,95.08 Z
           M 448.12,84.00
           C 448.12,85.09 447.71,86.04 446.88,86.83
             446.05,87.61 445.06,88.00 443.91,88.00
             442.74,88.00 441.74,87.61 440.92,86.83
             440.10,86.04 439.69,85.09 439.69,84.00
             439.69,82.89 440.10,81.95 440.92,81.17
             441.74,80.39 442.74,80.00 443.91,80.00
             445.06,80.00 446.05,80.39 446.88,81.17
             447.71,81.95 448.12,82.89 448.12,84.00 Z
           M 448.53,95.00
           C 448.61,97.70 448.66,102.51 448.66,109.42
             448.66,109.42 448.56,115.64 448.56,115.64
             448.56,116.90 448.77,117.75 449.19,118.17
             449.61,118.59 450.30,118.87 451.27,119.00
             452.36,119.09 452.91,119.27 452.91,119.55
             452.91,119.85 452.47,120.00 451.61,120.00
             451.20,120.00 450.49,120.00 449.48,120.00
             447.33,120.00 445.20,120.00 443.09,120.00
             442.05,120.00 440.99,120.00 439.92,120.00
             439.27,120.00 438.84,120.00 438.61,120.00
             437.74,120.00 437.31,119.84 437.31,119.53
             437.31,119.24 437.88,119.06 439.02,119.00
             440.52,118.86 441.35,118.33 441.53,117.42
             441.71,116.52 441.80,114.68 441.80,111.91
             441.80,108.31 441.74,105.02 441.62,102.02
             441.52,99.01 441.32,97.29 441.03,96.86
             440.74,96.43 439.98,96.15 438.75,96.00
             437.79,95.95 437.31,95.79 437.31,95.52
             437.31,95.25 437.80,95.09 438.78,95.03
             438.78,95.03 439.39,95.00 439.39,95.00
             439.39,95.00 448.53,95.00 448.53,95.00 Z
           M 484.06,106.86
           C 484.06,110.29 482.72,113.34 480.05,116.00
             477.37,118.67 473.97,120.00 469.86,120.00
             466.07,120.00 462.88,118.88 460.30,116.64
             457.72,114.40 456.44,111.42 456.44,107.70
             456.44,103.91 457.80,100.85 460.52,98.52
             463.24,96.17 466.56,95.00 470.47,95.00
             474.44,95.00 477.69,96.11 480.23,98.31
             482.79,100.52 484.06,103.37 484.06,106.86 Z
           M 475.97,108.75
           C 475.97,105.75 475.44,103.04 474.38,100.62
             473.31,98.21 471.78,97.00 469.78,97.00
             468.03,97.00 466.68,97.84 465.72,99.53
             464.76,101.22 464.28,103.59 464.28,106.64
             464.28,109.96 464.82,112.69 465.91,114.81
             466.99,116.94 468.48,118.00 470.38,118.00
             472.23,118.00 473.62,117.15 474.56,115.45
             475.50,113.76 475.97,111.52 475.97,108.75 Z
           M 497.92,100.58
           C 499.25,98.71 500.70,97.32 502.25,96.39
             503.80,95.46 505.47,95.00 507.25,95.00
             508.73,95.00 510.08,95.38 511.31,96.14
             512.55,96.89 513.39,97.79 513.83,98.83
             514.27,99.87 514.48,101.35 514.48,103.27
             514.48,103.27 514.22,114.83 514.22,114.83
             514.22,116.41 514.36,117.46 514.66,117.98
             514.95,118.51 515.56,118.84 516.50,119.00
             517.28,119.09 517.67,119.27 517.67,119.55
             517.67,119.85 517.29,120.00 516.53,120.00
             515.88,120.00 514.47,120.00 512.28,120.00
             511.52,120.00 510.91,120.00 510.44,120.00
             509.99,120.00 508.70,120.00 506.58,120.00
             506.58,120.00 505.14,120.00 505.14,120.00
             504.34,120.00 503.94,119.84 503.94,119.52
             503.94,119.26 504.30,119.09 505.02,119.00
             505.68,118.87 506.21,118.65 506.59,118.34
             506.99,118.03 507.25,116.52 507.38,113.81
             507.50,111.09 507.56,108.40 507.56,105.73
             507.56,102.77 507.32,100.73 506.84,99.64
             506.36,98.55 505.45,98.00 504.11,98.00
             502.45,98.00 500.91,99.18 499.50,101.53
             498.08,103.89 497.38,107.56 497.38,112.56
             497.38,114.51 497.47,115.92 497.66,116.80
             497.85,117.66 498.09,118.21 498.38,118.44
             498.66,118.66 499.27,118.84 500.19,119.00
             500.73,119.06 501.00,119.23 501.00,119.52
             501.00,119.84 500.60,120.00 499.80,120.00
             499.41,120.00 498.98,120.00 498.52,120.00
             496.64,120.00 495.62,120.00 495.47,120.00
             492.66,120.00 490.35,120.00 488.55,120.00
             488.25,120.00 488.02,120.00 487.84,120.00
             487.12,120.00 486.77,119.84 486.77,119.50
             486.77,119.21 487.09,119.04 487.73,119.00
             488.73,118.88 489.41,118.59 489.75,118.16
             490.10,117.72 490.36,116.34 490.53,114.03
             490.70,111.71 490.78,108.94 490.78,105.72
             490.78,101.62 490.63,99.09 490.34,98.12
             490.05,97.15 489.35,96.44 488.23,96.00
             487.43,95.80 487.03,95.62 487.03,95.44
             487.03,95.15 487.61,95.00 488.77,95.00
             492.00,95.00 494.63,95.00 496.64,95.00
             497.38,96.66 497.80,98.52 497.92,100.58 Z
           M 184.11,150.89
           C 184.37,150.66 184.62,150.31 184.88,149.84
             185.16,149.28 185.50,149.00 185.88,149.00
             186.39,149.00 186.71,149.43 186.83,150.28
             186.83,150.28 187.86,158.25 187.86,158.25
             187.86,158.25 187.98,159.22 187.98,159.22
             187.98,159.74 187.72,160.00 187.19,160.00
             186.80,160.00 186.52,159.91 186.34,159.72
             186.16,159.53 185.83,158.92 185.34,157.89
             184.51,156.12 183.12,154.53 181.19,153.12
             179.25,151.71 177.30,151.00 175.36,151.00
             173.46,151.00 171.88,151.61 170.62,152.83
             169.36,154.05 168.73,155.58 168.73,157.42
             168.73,158.89 169.32,160.22 170.50,161.41
             171.66,162.59 173.92,163.73 177.27,164.80
             182.49,166.51 186.04,168.37 187.89,170.39
             189.72,172.41 190.64,174.66 190.64,177.12
             190.64,179.65 189.96,181.77 188.61,183.48
             187.27,185.20 185.66,186.54 183.78,187.53
             181.91,188.51 179.50,189.00 176.58,189.00
             174.92,189.00 173.20,188.77 171.42,188.31
             169.65,187.86 167.82,187.17 165.92,186.27
             165.52,186.68 165.19,187.23 164.92,187.89
             164.61,188.63 164.22,189.00 163.75,189.00
             163.26,189.00 162.97,188.47 162.88,187.41
             162.88,187.41 162.03,176.73 162.03,176.73
             161.99,176.27 161.97,175.98 161.97,175.86
             161.97,175.29 162.26,175.00 162.84,175.00
             163.27,175.00 163.68,175.50 164.08,176.50
             165.27,179.50 166.88,182.00 168.94,184.00
             170.97,186.00 173.34,187.00 176.06,187.00
             178.36,187.00 180.22,186.31 181.64,184.94
             183.05,183.55 183.77,181.98 183.77,180.22
             183.77,178.47 183.11,176.99 181.80,175.78
             180.48,174.59 178.13,173.44 174.73,172.34
             171.43,171.27 168.97,170.25 167.36,169.28
             165.75,168.30 164.47,166.96 163.50,165.25
             162.53,163.53 162.05,161.80 162.05,160.05
             162.05,156.98 163.23,154.37 165.61,152.22
             167.98,150.07 171.21,149.00 175.30,149.00
             177.50,149.00 180.44,149.63 184.11,150.89 Z
           M 202.25,175.00
           C 202.23,175.51 202.22,175.88 202.22,176.11
             202.22,178.59 202.89,180.70 204.25,182.42
             205.61,184.14 207.45,185.00 209.75,185.00
             212.11,185.00 214.44,184.17 216.73,182.50
             217.20,182.17 217.53,182.00 217.72,182.00
             218.23,182.00 218.48,182.25 218.48,182.75
             218.48,183.15 217.89,183.86 216.72,184.89
             215.55,185.92 214.12,186.70 212.42,187.22
             210.72,187.74 208.96,188.00 207.14,188.00
             203.16,188.00 200.04,186.84 197.78,184.53
             195.53,182.21 194.41,179.48 194.41,176.34
             194.41,172.56 195.70,169.40 198.28,166.84
             200.88,164.28 204.10,163.00 207.97,163.00
             211.59,163.00 214.36,164.20 216.27,166.58
             218.17,168.96 219.12,171.23 219.12,173.39
             219.12,174.08 218.94,174.49 218.56,174.62
             218.20,174.76 217.00,174.83 214.97,174.83
             214.97,174.83 202.25,175.00 202.25,175.00 Z
           M 202.44,173.00
           C 205.32,173.04 206.99,173.06 207.45,173.06
             209.65,173.06 211.00,172.91 211.50,172.61
             212.00,172.31 212.25,171.70 212.25,170.80
             212.25,169.28 211.79,167.93 210.88,166.77
             209.96,165.59 208.86,165.00 207.59,165.00
             204.58,165.00 202.86,167.67 202.44,173.00 Z
           M 232.45,168.06
           C 233.43,166.37 234.55,165.10 235.83,164.27
             237.10,163.42 238.52,163.00 240.08,163.00
             241.55,163.00 242.74,163.42 243.62,164.27
             244.52,165.10 244.97,166.15 244.97,167.42
             244.97,168.41 244.65,169.26 244.02,169.95
             243.38,170.65 242.60,171.00 241.69,171.00
             241.00,171.00 240.43,170.80 239.98,170.39
             239.54,169.98 239.05,169.27 238.55,168.23
             237.84,166.75 237.22,166.00 236.70,166.00
             235.97,166.00 235.15,166.75 234.23,168.25
             233.32,169.75 232.86,172.66 232.86,176.98
             232.86,182.45 233.04,185.48 233.39,186.09
             233.75,186.70 234.55,187.00 235.80,187.00
             236.87,187.00 237.41,187.17 237.41,187.52
             237.41,187.84 236.88,188.00 235.83,188.00
             235.24,188.00 234.39,188.00 233.28,188.00
             232.26,188.00 231.30,188.00 230.41,188.00
             228.47,188.00 226.55,188.00 224.67,188.00
             223.87,188.00 223.40,188.00 223.27,188.00
             222.44,188.00 222.03,187.83 222.03,187.48
             222.03,187.18 222.51,187.02 223.47,187.00
             224.39,186.96 225.05,186.73 225.42,186.31
             225.80,185.89 225.98,184.96 225.98,183.53
             225.98,183.53 226.09,175.81 226.09,175.81
             226.09,174.24 226.03,172.29 225.91,169.97
             225.79,167.64 225.69,166.25 225.59,165.81
             225.50,165.37 225.25,164.97 224.84,164.62
             224.45,164.27 223.91,164.06 223.22,164.00
             222.52,163.96 222.08,163.91 221.89,163.84
             221.70,163.78 221.61,163.66 221.61,163.47
             221.61,163.17 222.10,163.01 223.08,163.00
             224.87,163.00 227.93,163.00 232.25,163.00
             232.25,163.00 232.45,168.06 232.45,168.06 Z
           M 263.05,179.81
           C 264.32,177.15 265.50,174.34 266.60,171.39
             267.69,168.45 268.24,166.56 268.24,165.73
             268.24,164.85 267.79,164.27 266.89,164.00
             266.03,163.87 265.60,163.68 265.60,163.44
             265.60,163.15 265.95,163.00 266.64,163.00
             267.00,163.00 267.72,163.00 268.82,163.00
             269.82,163.00 270.51,163.00 270.89,163.00
             271.76,163.00 272.56,163.00 273.30,163.00
             273.71,163.00 274.03,163.00 274.27,163.00
             274.87,163.00 275.18,163.17 275.18,163.50
             275.18,163.75 274.76,163.92 273.94,164.00
             272.09,164.31 270.54,166.12 269.32,169.42
             267.91,172.93 266.57,176.19 265.29,179.19
             264.00,182.18 263.02,184.34 262.33,185.69
             261.65,187.02 261.24,187.74 261.10,187.84
             260.95,187.95 260.77,188.00 260.55,188.00
             260.30,188.00 260.05,187.82 259.82,187.45
             259.59,187.09 258.58,185.16 256.80,181.67
             256.80,181.67 250.04,168.42 250.04,168.42
             249.05,166.38 248.31,165.16 247.80,164.77
             247.30,164.36 246.86,164.11 246.49,164.00
             245.73,163.90 245.35,163.73 245.35,163.50
             245.35,163.17 245.71,163.00 246.46,163.00
             246.77,163.00 247.26,163.00 247.93,163.00
             249.51,163.00 251.05,163.00 252.55,163.00
             253.16,163.00 253.85,163.00 254.61,163.00
             256.00,163.00 256.82,163.00 257.10,163.00
             258.39,163.00 259.04,163.14 259.04,163.42
             259.04,163.76 258.68,163.95 257.96,164.00
             256.93,164.12 256.43,164.68 256.43,165.70
             256.43,166.20 257.24,168.18 258.88,171.64
             260.52,175.09 261.91,177.81 263.05,179.81 Z
           M 287.12,152.00
           C 287.12,153.09 286.71,154.04 285.88,154.83
             285.05,155.61 284.06,156.00 282.91,156.00
             281.74,156.00 280.74,155.61 279.92,154.83
             279.10,154.04 278.69,153.09 278.69,152.00
             278.69,150.89 279.10,149.95 279.92,149.17
             280.74,148.39 281.74,148.00 282.91,148.00
             284.06,148.00 285.05,148.39 285.88,149.17
             286.71,149.95 287.12,150.89 287.12,152.00 Z
           M 287.53,163.00
           C 287.61,165.70 287.66,170.51 287.66,177.42
             287.66,177.42 287.56,183.64 287.56,183.64
             287.56,184.90 287.77,185.75 288.19,186.17
             288.61,186.59 289.30,186.87 290.27,187.00
             291.36,187.09 291.91,187.27 291.91,187.55
             291.91,187.85 291.47,188.00 290.61,188.00
             290.20,188.00 289.49,188.00 288.48,188.00
             286.33,188.00 284.20,188.00 282.09,188.00
             281.05,188.00 279.99,188.00 278.92,188.00
             278.27,188.00 277.84,188.00 277.61,188.00
             276.74,188.00 276.31,187.84 276.31,187.53
             276.31,187.24 276.88,187.06 278.02,187.00
             279.52,186.86 280.35,186.33 280.53,185.42
             280.71,184.52 280.80,182.68 280.80,179.91
             280.80,176.31 280.74,173.02 280.62,170.02
             280.52,167.01 280.32,165.29 280.03,164.86
             279.74,164.43 278.98,164.15 277.75,164.00
             276.79,163.95 276.31,163.79 276.31,163.52
             276.31,163.25 276.80,163.09 277.78,163.03
             277.78,163.03 278.39,163.00 278.39,163.00
             278.39,163.00 287.53,163.00 287.53,163.00 Z
           M 295.52,175.67
           C 295.52,172.18 296.77,169.20 299.30,166.72
             301.82,164.24 304.98,163.00 308.78,163.00
             311.28,163.00 313.48,163.59 315.39,164.77
             317.30,165.95 318.25,167.34 318.25,168.94
             318.25,169.89 317.96,170.64 317.39,171.19
             316.82,171.73 316.09,172.00 315.20,172.00
             313.52,172.00 312.33,170.84 311.61,168.53
             311.21,167.26 310.78,166.36 310.31,165.81
             309.83,165.27 309.13,165.00 308.20,165.00
             306.61,165.00 305.41,165.74 304.59,167.22
             303.78,168.69 303.38,170.90 303.38,173.86
             303.38,177.23 304.04,179.94 305.36,181.97
             306.69,183.99 308.41,185.00 310.52,185.00
             313.33,185.00 315.31,183.48 316.47,180.44
             316.84,179.48 317.28,179.00 317.78,179.00
             318.33,179.00 318.61,179.28 318.61,179.84
             318.61,181.48 317.74,183.25 316.02,185.16
             314.29,187.05 311.70,188.00 308.27,188.00
             304.49,188.00 301.43,186.84 299.06,184.52
             296.70,182.20 295.52,179.25 295.52,175.67 Z
           M 331.25,175.00
           C 331.23,175.51 331.22,175.88 331.22,176.11
             331.22,178.59 331.89,180.70 333.25,182.42
             334.61,184.14 336.45,185.00 338.75,185.00
             341.11,185.00 343.44,184.17 345.73,182.50
             346.20,182.17 346.53,182.00 346.72,182.00
             347.23,182.00 347.48,182.25 347.48,182.75
             347.48,183.15 346.89,183.86 345.72,184.89
             344.55,185.92 343.12,186.70 341.42,187.22
             339.72,187.74 337.96,188.00 336.14,188.00
             332.16,188.00 329.04,186.84 326.78,184.53
             324.53,182.21 323.41,179.48 323.41,176.34
             323.41,172.56 324.70,169.40 327.28,166.84
             329.88,164.28 333.10,163.00 336.97,163.00
             340.59,163.00 343.36,164.20 345.27,166.58
             347.17,168.96 348.12,171.23 348.12,173.39
             348.12,174.08 347.94,174.49 347.56,174.62
             347.20,174.76 346.00,174.83 343.97,174.83
             343.97,174.83 331.25,175.00 331.25,175.00 Z
           M 331.44,173.00
           C 334.32,173.04 335.99,173.06 336.45,173.06
             338.65,173.06 340.00,172.91 340.50,172.61
             341.00,172.31 341.25,171.70 341.25,170.80
             341.25,169.28 340.79,167.93 339.88,166.77
             338.96,165.59 337.86,165.00 336.59,165.00
             333.58,165.00 331.86,167.67 331.44,173.00 Z
           M 372.47,179.70
           C 372.47,181.05 372.10,182.36 371.36,183.62
             370.63,184.89 369.52,185.93 368.05,186.77
             366.58,187.59 364.86,188.00 362.89,188.00
             360.43,188.00 358.35,187.45 356.64,186.36
             355.90,185.89 355.43,185.66 355.22,185.66
             354.96,185.66 354.76,185.89 354.62,186.36
             354.31,187.45 353.94,188.00 353.52,188.00
             353.27,188.00 353.08,187.91 352.97,187.73
             352.86,187.55 352.77,186.73 352.70,185.30
             352.64,183.85 352.61,182.13 352.61,180.14
             352.61,179.38 352.84,179.00 353.31,179.00
             353.78,179.00 354.28,179.51 354.81,180.52
             356.69,184.17 359.24,186.00 362.48,186.00
             363.61,186.00 364.57,185.73 365.36,185.20
             366.15,184.67 366.55,183.90 366.55,182.89
             366.55,182.04 366.18,181.31 365.44,180.70
             364.71,180.09 363.31,179.30 361.25,178.33
             358.12,176.86 355.98,175.58 354.83,174.48
             353.66,173.38 353.08,171.92 353.08,170.09
             353.08,167.99 353.93,166.28 355.62,164.97
             357.32,163.66 359.41,163.00 361.89,163.00
             363.86,163.00 365.86,163.43 367.89,164.30
             368.17,164.41 368.40,164.47 368.58,164.47
             368.83,164.47 369.02,164.26 369.16,163.83
             369.35,163.28 369.64,163.00 370.02,163.00
             370.27,163.00 370.44,163.09 370.53,163.27
             370.63,163.43 370.77,164.32 370.95,165.92
             371.13,167.52 371.22,168.84 371.22,169.89
             371.22,170.63 370.99,171.00 370.55,171.00
             370.08,171.00 369.60,170.54 369.11,169.61
             367.44,166.54 365.05,165.00 361.92,165.00
             360.79,165.00 359.86,165.26 359.16,165.77
             358.46,166.27 358.11,166.80 358.11,167.38
             358.11,168.11 358.55,168.77 359.45,169.38
             360.36,170.00 362.11,170.88 364.70,172.02
             366.93,172.98 368.48,173.73 369.34,174.27
             370.22,174.80 370.96,175.56 371.56,176.56
             372.16,177.55 372.47,178.60 372.47,179.70 Z" />
</svg>
