<?xml version="1.0" encoding="UTF-8" standalone="no"?>
<!DOCTYPE svg PUBLIC "-//W3C//DTD SVG 20010904//EN"
              "http://www.w3.org/TR/2001/REC-SVG-20010904/DTD/svg10.dtd">

<svg xmlns="http://www.w3.org/2000/svg"
     width="26.6667in" height="15in"
     viewBox="0 0 1920 1080">
  <path id="Path"
        fill="none" stroke="black" stroke-width="1"
        d="M 330.95,130.03
           C 330.95,130.03 332.36,158.08 332.36,158.08
             332.36,158.08 326.61,158.08 326.61,158.08
             320.18,142.56 311.30,134.80 299.97,134.80
             295.71,134.80 292.20,135.87 289.45,138.00
             286.71,140.12 285.34,142.85 285.34,146.17
             285.34,150.65 287.80,153.76 292.70,155.48
             294.52,156.13 298.20,157.00 303.77,158.08
             303.77,158.08 308.95,159.28 308.95,159.28
             318.35,161.38 325.18,164.45 329.44,168.48
             333.70,172.53 335.83,177.98 335.83,184.84
             335.83,192.43 333.17,198.62 327.86,203.42
             322.55,208.23 315.68,210.62 307.22,210.62
             298.84,210.62 291.44,208.20 285.02,203.36
             285.02,203.36 278.30,209.77 278.30,209.77
             278.30,209.77 273.42,209.77 273.42,209.77
             273.42,209.77 272.78,179.09 272.78,179.09
             272.78,179.09 278.30,179.09 278.30,179.09
             281.25,187.26 285.28,193.62 290.38,198.17
             295.47,202.71 301.08,204.98 307.22,204.98
             311.91,204.98 315.69,203.84 318.55,201.53
             321.40,199.22 322.83,196.15 322.83,192.31
             322.83,188.27 321.24,185.39 318.06,183.66
             316.04,182.57 312.14,181.49 306.36,180.41
             306.36,180.41 299.64,179.09 299.64,179.09
             291.12,177.51 284.53,174.48 279.88,170.00
             275.22,165.52 272.89,159.96 272.89,153.31
             272.89,146.09 275.47,140.27 280.62,135.83
             285.79,131.38 292.56,129.16 300.94,129.16
             308.16,129.16 314.66,131.11 320.44,135.02
             320.44,135.02 326.08,130.03 326.08,130.03
             326.08,130.03 330.95,130.03 330.95,130.03 Z
           M 366.98,129.16
           C 366.98,129.16 366.98,166.09 366.98,166.09
             371.32,159.46 377.46,156.14 385.41,156.14
             391.25,156.14 395.69,157.87 398.72,161.33
             401.47,164.30 402.84,168.96 402.84,175.31
             402.84,175.31 402.84,198.39 402.84,198.39
             402.84,200.62 403.33,202.03 404.30,202.61
             405.27,203.18 407.50,203.47 410.97,203.47
             410.97,203.47 411.41,203.47 411.41,203.47
             411.41,203.47 411.41,209.00 411.41,209.00
             411.41,209.00 378.36,209.00 378.36,209.00
             378.36,209.00 378.36,203.47 378.36,203.47
             381.54,203.47 383.57,203.17 384.47,202.56
             385.38,201.95 385.83,200.59 385.83,198.48
             385.83,198.48 385.83,176.83 385.83,176.83
             385.83,169.75 383.27,166.20 378.14,166.20
             376.12,166.20 374.24,166.78 372.50,167.94
             370.77,169.09 369.47,170.65 368.61,172.59
             367.52,174.98 366.98,178.41 366.98,182.89
             366.98,182.89 366.98,198.39 366.98,198.39
             366.98,200.62 367.41,202.03 368.28,202.61
             369.14,203.18 371.16,203.47 374.34,203.47
             374.34,203.47 374.34,209.00 374.34,209.00
             374.34,209.00 341.31,209.00 341.31,209.00
             341.31,209.00 341.31,203.47 341.31,203.47
             341.31,203.47 341.73,203.47 341.73,203.47
             345.27,203.47 347.53,203.18 348.50,202.61
             349.48,202.03 349.97,200.65 349.97,198.48
             349.97,198.48 349.97,146.81 349.97,146.81
             349.89,141.69 349.55,138.66 348.94,137.72
             348.33,136.78 346.37,136.31 343.05,136.31
             343.05,136.31 340.98,136.31 340.98,136.31
             340.98,136.31 340.98,130.78 340.98,130.78
             340.98,130.78 366.98,129.16 366.98,129.16 Z
           M 471.75,184.30
           C 471.75,184.30 435.45,184.30 435.45,184.30
             435.52,189.86 436.43,194.02 438.17,196.77
             440.98,201.10 444.99,203.27 450.19,203.27
             453.73,203.27 456.78,202.31 459.34,200.39
             461.91,198.48 464.27,195.42 466.44,191.23
             466.44,191.23 471.75,193.41 471.75,193.41
             467.05,204.89 458.46,210.62 445.97,210.62
             437.52,210.62 430.69,208.42 425.48,204.02
             422.82,201.70 420.69,198.73 419.09,195.08
             417.51,191.43 416.72,187.70 416.72,183.86
             416.72,176.35 419.32,169.89 424.52,164.47
             429.93,158.92 437.05,156.14 445.86,156.14
             453.73,156.14 460.02,158.53 464.70,163.30
             469.40,168.06 471.75,174.48 471.75,182.56
             471.75,182.56 471.75,184.30 471.75,184.30 Z
           M 435.56,178.34
           C 435.56,178.34 451.81,178.34 451.81,178.34
             452.89,178.34 453.65,178.09 454.08,177.59
             454.52,177.09 454.73,176.18 454.73,174.88
             454.73,166.14 451.88,161.77 446.19,161.77
             442.94,161.77 440.35,163.25 438.44,166.22
             436.52,169.18 435.56,173.22 435.56,178.34 Z
           M 501.36,157.77
           C 501.36,157.77 501.36,170.86 501.36,170.86
             505.18,161.05 511.18,156.14 519.34,156.14
             522.81,156.14 525.66,157.17 527.91,159.23
             530.14,161.29 531.27,163.90 531.27,167.08
             531.27,169.75 530.38,171.96 528.61,173.73
             526.84,175.51 524.61,176.39 521.94,176.39
             519.62,176.39 517.69,175.64 516.14,174.12
             514.59,172.61 513.81,170.69 513.81,168.38
             513.81,166.72 514.43,165.02 515.66,163.28
             512.26,164.29 509.52,166.64 507.42,170.33
             504.39,175.67 502.88,182.64 502.88,191.23
             502.88,191.23 502.88,198.39 502.88,198.39
             502.88,200.62 503.36,202.03 504.33,202.61
             505.30,203.18 507.53,203.47 511.00,203.47
             511.00,203.47 513.39,203.47 513.39,203.47
             513.39,203.47 513.39,209.00 513.39,209.00
             513.39,209.00 477.20,209.00 477.20,209.00
             477.20,209.00 477.20,203.47 477.20,203.47
             477.20,203.47 477.64,203.47 477.64,203.47
             481.10,203.47 483.32,203.18 484.30,202.61
             485.27,202.03 485.77,200.62 485.77,198.39
             485.77,198.39 485.77,174.55 485.77,174.55
             485.77,169.50 485.44,166.48 484.78,165.52
             484.13,164.54 482.15,164.05 478.83,164.05
             478.83,164.05 477.20,164.05 477.20,164.05
             477.20,164.05 477.20,158.52 477.20,158.52
             477.20,158.52 501.36,157.77 501.36,157.77 Z
           M 559.36,157.77
           C 559.36,157.77 559.36,170.86 559.36,170.86
             563.18,161.05 569.18,156.14 577.34,156.14
             580.81,156.14 583.66,157.17 585.91,159.23
             588.14,161.29 589.27,163.90 589.27,167.08
             589.27,169.75 588.38,171.96 586.61,173.73
             584.84,175.51 582.61,176.39 579.94,176.39
             577.62,176.39 575.69,175.64 574.14,174.12
             572.59,172.61 571.81,170.69 571.81,168.38
             571.81,166.72 572.43,165.02 573.66,163.28
             570.26,164.29 567.52,166.64 565.42,170.33
             562.39,175.67 560.88,182.64 560.88,191.23
             560.88,191.23 560.88,198.39 560.88,198.39
             560.88,200.62 561.36,202.03 562.33,202.61
             563.30,203.18 565.53,203.47 569.00,203.47
             569.00,203.47 571.39,203.47 571.39,203.47
             571.39,203.47 571.39,209.00 571.39,209.00
             571.39,209.00 535.20,209.00 535.20,209.00
             535.20,209.00 535.20,203.47 535.20,203.47
             535.20,203.47 535.64,203.47 535.64,203.47
             539.10,203.47 541.32,203.18 542.30,202.61
             543.27,202.03 543.77,200.62 543.77,198.39
             543.77,198.39 543.77,174.55 543.77,174.55
             543.77,169.50 543.44,166.48 542.78,165.52
             542.13,164.54 540.15,164.05 536.83,164.05
             536.83,164.05 535.20,164.05 535.20,164.05
             535.20,164.05 535.20,158.52 535.20,158.52
             535.20,158.52 559.36,157.77 559.36,157.77 Z
           M 619.73,157.77
           C 619.73,157.77 619.73,198.48 619.73,198.48
             619.73,200.59 620.20,201.95 621.14,202.56
             622.09,203.17 624.22,203.47 627.55,203.47
             627.55,203.47 628.19,203.47 628.19,203.47
             628.19,203.47 628.19,209.00 628.19,209.00
             628.19,209.00 594.28,209.00 594.28,209.00
             594.28,209.00 594.28,203.47 594.28,203.47
             594.28,203.47 594.72,203.47 594.72,203.47
             598.11,203.47 600.30,203.17 601.27,202.56
             602.24,201.95 602.73,200.56 602.73,198.39
             602.73,198.39 602.73,174.22 602.73,174.22
             602.73,169.39 602.41,166.48 601.75,165.52
             601.10,164.54 599.12,164.05 595.80,164.05
             595.80,164.05 594.28,164.05 594.28,164.05
             594.28,164.05 594.28,158.52 594.28,158.52
             594.28,158.52 619.73,157.77 619.73,157.77 Z
           M 610.97,129.16
           C 613.56,129.16 615.80,130.10 617.67,131.98
             619.55,133.86 620.50,136.09 620.50,138.69
             620.50,141.37 619.55,143.64 617.67,145.52
             615.80,147.39 613.49,148.33 610.75,148.33
             608.22,148.33 606.02,147.38 604.14,145.47
             602.27,143.55 601.33,141.30 601.33,138.70
             601.33,136.10 602.27,133.86 604.14,131.98
             606.02,130.10 608.29,129.16 610.97,129.16 Z
           M 267.28,318.05
           C 267.28,318.05 276.70,287.17 276.70,287.17
             277.64,284.07 278.11,281.87 278.11,280.56
             278.11,277.75 276.88,275.77 274.42,274.61
             273.19,274.03 271.17,273.70 268.36,273.64
             268.36,273.64 268.36,267.78 268.36,267.78
             268.36,267.78 295.66,267.78 295.66,267.78
             295.66,267.78 295.66,273.64 295.66,273.64
             292.41,274.29 290.04,275.53 288.56,277.38
             287.08,279.22 285.55,282.81 283.95,288.16
             283.95,288.16 265.11,347.62 265.11,347.62
             265.11,347.62 257.20,347.62 257.20,347.62
             257.20,347.62 243.66,303.53 243.66,303.53
             243.66,303.53 229.36,347.62 229.36,347.62
             229.36,347.62 221.23,347.62 221.23,347.62
             221.23,347.62 199.14,279.92 199.14,279.92
             198.27,277.32 197.32,275.62 196.31,274.83
             195.30,274.04 193.57,273.64 191.11,273.64
             191.11,273.64 190.91,273.64 190.91,273.64
             190.91,273.64 190.91,267.78 190.91,267.78
             190.91,267.78 224.48,267.78 224.48,267.78
             224.48,267.78 224.48,273.64 224.48,273.64
             221.95,273.78 220.25,274.03 219.39,274.39
             218.52,274.76 218.09,275.41 218.09,276.34
             218.09,277.14 218.38,278.37 218.95,280.03
             218.95,280.03 231.53,318.81 231.53,318.81
             231.53,318.81 240.19,291.61 240.19,291.61
             240.19,291.61 236.30,279.38 236.30,279.38
             235.49,277.06 234.66,275.56 233.80,274.88
             232.93,274.19 231.45,273.78 229.36,273.64
             229.36,273.64 229.36,267.78 229.36,267.78
             229.36,267.78 261.42,267.78 261.42,267.78
             261.42,267.78 261.42,273.64 261.42,273.64
             258.83,273.78 257.11,274.05 256.28,274.45
             255.45,274.85 255.03,275.55 255.03,276.56
             255.03,277.21 255.25,278.18 255.69,279.48
             255.69,279.48 267.28,318.05 267.28,318.05 Z
           M 344.16,311.55
           C 344.16,311.55 344.16,330.61 344.16,330.61
             344.16,333.80 344.35,335.90 344.75,336.91
             345.14,337.92 345.92,338.42 347.08,338.42
             347.72,338.42 348.41,338.17 349.14,337.66
             349.93,337.16 350.65,336.91 351.30,336.91
             352.38,336.91 352.92,337.48 352.92,338.64
             352.92,340.95 351.71,343.02 349.30,344.86
             346.88,346.70 344.12,347.62 341.02,347.62
             335.30,347.62 331.48,345.06 329.53,339.94
             326.63,342.75 323.63,344.73 320.53,345.89
             317.43,347.05 313.52,347.62 308.83,347.62
             303.55,347.62 299.46,346.50 296.53,344.27
             293.61,342.03 292.16,338.92 292.16,334.95
             292.16,328.75 296.02,324.05 303.73,320.86
             307.64,319.28 314.25,317.48 323.56,315.45
             324.43,315.38 325.62,315.12 327.14,314.69
             327.14,314.69 327.14,309.06 327.14,309.06
             327.14,305.30 326.47,302.65 325.14,301.09
             323.80,299.54 321.52,298.77 318.27,298.77
             316.10,298.77 314.22,299.11 312.62,299.80
             311.03,300.48 310.23,301.30 310.23,302.23
             310.23,302.67 310.56,303.29 311.22,304.08
             312.23,305.45 312.73,306.82 312.73,308.19
             312.73,310.21 311.88,311.89 310.19,313.23
             308.49,314.57 306.38,315.23 303.84,315.23
             301.32,315.23 299.23,314.46 297.56,312.91
             295.91,311.36 295.08,309.42 295.08,307.11
             295.08,302.85 297.33,299.46 301.84,296.94
             306.35,294.41 312.33,293.14 319.78,293.14
             328.52,293.14 334.95,294.80 339.06,298.11
             340.94,299.63 342.25,301.37 343.02,303.31
             343.77,305.26 344.16,308.01 344.16,311.55 Z
           M 327.14,320.55
           C 327.14,320.55 321.41,321.84 321.41,321.84
             317.50,322.78 314.66,324.10 312.89,325.80
             311.12,327.50 310.23,329.79 310.23,332.67
             310.23,334.98 310.86,336.83 312.12,338.20
             313.39,339.58 315.08,340.27 317.17,340.27
             320.20,340.27 322.62,339.04 324.42,336.58
             326.23,334.12 327.14,330.80 327.14,326.61
             327.14,326.61 327.14,320.55 327.14,320.55 Z
           M 381.98,266.16
           C 381.98,266.16 381.98,335.48 381.98,335.48
             381.98,337.73 382.52,339.14 383.61,339.72
             384.47,340.22 386.38,340.47 389.34,340.47
             389.34,340.47 390.11,340.47 390.11,340.47
             390.11,340.47 390.11,346.00 390.11,346.00
             390.11,346.00 356.31,346.00 356.31,346.00
             356.31,346.00 356.31,340.47 356.31,340.47
             356.31,340.47 356.73,340.47 356.73,340.47
             360.27,340.47 362.53,340.18 363.50,339.61
             364.48,339.03 364.97,337.65 364.97,335.48
             364.97,335.48 364.97,283.39 364.97,283.39
             364.97,278.55 364.64,275.66 364.00,274.72
             363.35,273.78 361.37,273.31 358.05,273.31
             358.05,273.31 355.98,273.31 355.98,273.31
             355.98,273.31 355.98,267.78 355.98,267.78
             355.98,267.78 381.98,266.16 381.98,266.16 Z
           M 453.78,266.16
           C 453.78,266.16 453.78,332.78 453.78,332.78
             453.78,335.61 454.21,337.41 455.08,338.20
             455.66,338.70 457.36,338.95 460.17,338.95
             460.17,338.95 463.09,338.95 463.09,338.95
             463.09,338.95 463.09,344.81 463.09,344.81
             463.09,344.81 437.75,346.00 437.75,346.00
             437.75,346.00 437.75,338.20 437.75,338.20
             433.49,344.48 427.57,347.62 419.98,347.62
             412.90,347.62 407.18,345.19 402.81,340.31
             398.45,335.44 396.27,329.07 396.27,321.20
             396.27,313.33 398.64,306.68 403.41,301.27
             408.18,295.85 414.02,293.14 420.95,293.14
             427.52,293.14 432.80,295.56 436.78,300.39
             436.78,300.39 436.78,283.39 436.78,283.39
             436.78,278.55 436.45,275.66 435.80,274.72
             435.15,273.78 433.16,273.31 429.84,273.31
             429.84,273.31 426.38,273.31 426.38,273.31
             426.38,273.31 426.38,267.78 426.38,267.78
             426.38,267.78 453.78,266.16 453.78,266.16 Z
           M 425.94,300.50
           C 422.47,300.50 419.77,302.31 417.86,305.92
             415.95,309.53 415.00,314.54 415.00,320.97
             415.00,327.12 415.94,331.87 417.81,335.23
             419.70,338.59 422.33,340.27 425.72,340.27
             429.04,340.27 431.75,338.42 433.84,334.73
             435.94,331.05 436.98,326.25 436.98,320.33
             436.98,314.33 435.97,309.53 433.95,305.92
             431.93,302.31 429.26,300.50 425.94,300.50 Z
           M 491.11,294.77
           C 491.11,294.77 491.11,303.31 491.11,303.31
             495.44,296.53 501.22,293.14 508.45,293.14
             512.05,293.14 515.21,294.01 517.92,295.73
             520.63,297.46 522.56,299.85 523.72,302.89
             526.25,299.42 528.85,296.93 531.52,295.42
             534.19,293.90 537.27,293.14 540.73,293.14
             545.57,293.14 549.61,294.64 552.86,297.64
             556.11,300.63 557.73,304.37 557.73,308.84
             557.73,308.84 557.73,335.48 557.73,335.48
             557.73,337.59 558.22,338.95 559.20,339.56
             560.18,340.17 562.40,340.47 565.86,340.47
             565.86,340.47 566.30,340.47 566.30,340.47
             566.30,340.47 566.30,346.00 566.30,346.00
             566.30,346.00 534.45,346.00 534.45,346.00
             534.45,346.00 534.45,340.47 534.45,340.47
             537.19,340.40 538.92,340.07 539.64,339.50
             540.37,338.93 540.73,337.59 540.73,335.48
             540.73,335.48 540.73,312.84 540.73,312.84
             540.73,306.42 538.75,303.20 534.78,303.20
             531.74,303.20 529.33,304.36 527.56,306.67
             525.80,308.98 524.92,312.06 524.92,315.89
             524.92,315.89 524.92,335.48 524.92,335.48
             524.92,337.59 525.28,338.93 526.00,339.50
             526.72,340.07 528.45,340.40 531.20,340.47
             531.20,340.47 531.20,346.00 531.20,346.00
             531.20,346.00 501.73,346.00 501.73,346.00
             501.73,346.00 501.73,340.47 501.73,340.47
             504.40,340.40 506.09,340.07 506.81,339.50
             507.54,338.93 507.91,337.56 507.91,335.39
             507.91,335.39 507.91,313.28 507.91,313.28
             507.91,309.74 507.44,307.18 506.50,305.59
             505.56,304.00 504.05,303.20 501.95,303.20
             498.99,303.20 496.61,304.36 494.80,306.67
             492.99,308.98 492.09,312.06 492.09,315.89
             492.09,315.89 492.09,335.48 492.09,335.48
             492.09,337.59 492.45,338.93 493.17,339.50
             493.90,340.07 495.63,340.40 498.38,340.47
             498.38,340.47 498.38,346.00 498.38,346.00
             498.38,346.00 466.42,346.00 466.42,346.00
             466.42,346.00 466.42,340.47 466.42,340.47
             466.42,340.47 466.95,340.47 466.95,340.47
             470.42,340.47 472.64,340.18 473.61,339.61
             474.59,339.03 475.08,337.62 475.08,335.39
             475.08,335.39 475.08,311.22 475.08,311.22
             475.08,306.39 474.75,303.48 474.11,302.52
             473.46,301.54 471.48,301.05 468.16,301.05
             468.16,301.05 466.42,301.05 466.42,301.05
             466.42,301.05 466.42,295.52 466.42,295.52
             466.42,295.52 491.11,294.77 491.11,294.77 Z
           M 624.16,311.55
           C 624.16,311.55 624.16,330.61 624.16,330.61
             624.16,333.80 624.35,335.90 624.75,336.91
             625.14,337.92 625.92,338.42 627.08,338.42
             627.72,338.42 628.41,338.17 629.14,337.66
             629.93,337.16 630.65,336.91 631.30,336.91
             632.38,336.91 632.92,337.48 632.92,338.64
             632.92,340.95 631.71,343.02 629.30,344.86
             626.88,346.70 624.12,347.62 621.02,347.62
             615.30,347.62 611.48,345.06 609.53,339.94
             606.63,342.75 603.63,344.73 600.53,345.89
             597.43,347.05 593.52,347.62 588.83,347.62
             583.55,347.62 579.46,346.50 576.53,344.27
             573.61,342.03 572.16,338.92 572.16,334.95
             572.16,328.75 576.02,324.05 583.73,320.86
             587.64,319.28 594.25,317.48 603.56,315.45
             604.43,315.38 605.62,315.12 607.14,314.69
             607.14,314.69 607.14,309.06 607.14,309.06
             607.14,305.30 606.47,302.65 605.14,301.09
             603.80,299.54 601.52,298.77 598.27,298.77
             596.10,298.77 594.22,299.11 592.62,299.80
             591.03,300.48 590.23,301.30 590.23,302.23
             590.23,302.67 590.56,303.29 591.22,304.08
             592.23,305.45 592.73,306.82 592.73,308.19
             592.73,310.21 591.88,311.89 590.19,313.23
             588.49,314.57 586.38,315.23 583.84,315.23
             581.32,315.23 579.23,314.46 577.56,312.91
             575.91,311.36 575.08,309.42 575.08,307.11
             575.08,302.85 577.33,299.46 581.84,296.94
             586.35,294.41 592.33,293.14 599.78,293.14
             608.52,293.14 614.95,294.80 619.06,298.11
             620.94,299.63 622.25,301.37 623.02,303.31
             623.77,305.26 624.16,308.01 624.16,311.55 Z
           M 607.14,320.55
           C 607.14,320.55 601.41,321.84 601.41,321.84
             597.50,322.78 594.66,324.10 592.89,325.80
             591.12,327.50 590.23,329.79 590.23,332.67
             590.23,334.98 590.86,336.83 592.12,338.20
             593.39,339.58 595.08,340.27 597.17,340.27
             600.20,340.27 602.62,339.04 604.42,336.58
             606.23,334.12 607.14,330.80 607.14,326.61
             607.14,326.61 607.14,320.55 607.14,320.55 Z
           M 661.22,294.77
           C 661.22,294.77 661.22,304.30 661.22,304.30
             663.89,300.25 666.71,297.38 669.67,295.69
             672.63,293.99 676.24,293.14 680.52,293.14
             686.43,293.14 690.91,294.87 693.94,298.33
             696.69,301.30 698.06,305.96 698.06,312.31
             698.06,312.31 698.06,335.39 698.06,335.39
             698.06,337.62 698.55,339.03 699.52,339.61
             700.49,340.18 702.72,340.47 706.19,340.47
             706.19,340.47 706.61,340.47 706.61,340.47
             706.61,340.47 706.61,346.00 706.61,346.00
             706.61,346.00 673.58,346.00 673.58,346.00
             673.58,346.00 673.58,340.47 673.58,340.47
             676.75,340.47 678.79,340.17 679.69,339.56
             680.59,338.95 681.05,337.59 681.05,335.48
             681.05,335.48 681.05,313.83 681.05,313.83
             681.05,306.75 678.41,303.20 673.14,303.20
             671.19,303.20 669.35,303.78 667.61,304.94
             665.88,306.09 664.58,307.65 663.72,309.59
             662.56,311.91 661.98,315.34 661.98,319.89
             661.98,319.89 661.98,335.48 661.98,335.48
             661.98,337.59 662.43,338.95 663.33,339.56
             664.23,340.17 666.27,340.47 669.45,340.47
             669.45,340.47 669.45,346.00 669.45,346.00
             669.45,346.00 636.42,346.00 636.42,346.00
             636.42,346.00 636.42,340.47 636.42,340.47
             636.42,340.47 636.84,340.47 636.84,340.47
             640.31,340.47 642.53,340.18 643.50,339.61
             644.48,339.03 644.97,337.62 644.97,335.39
             644.97,335.39 644.97,311.55 644.97,311.55
             644.97,306.50 644.64,303.48 644.00,302.52
             643.35,301.54 641.37,301.05 638.05,301.05
             638.05,301.05 636.42,301.05 636.42,301.05
             636.42,301.05 636.42,295.52 636.42,295.52
             636.42,295.52 661.22,294.77 661.22,294.77 Z
           M 299.69,399.03
           C 299.69,399.03 315.38,442.56 315.38,442.56
             315.38,442.56 330.31,399.03 330.31,399.03
             330.31,399.03 350.81,399.03 350.81,399.03
             350.81,399.03 350.81,402.88 350.81,402.88
             350.81,402.88 349.34,402.88 349.34,402.88
             346.02,402.88 343.96,403.08 343.17,403.48
             342.38,403.89 341.98,404.97 341.98,406.72
             341.98,406.72 341.98,450.33 341.98,450.33
             341.98,452.07 342.38,453.14 343.17,453.55
             343.96,453.95 346.02,454.16 349.34,454.16
             349.34,454.16 350.81,454.16 350.81,454.16
             350.81,454.16 350.81,458.00 350.81,458.00
             350.81,458.00 324.03,458.00 324.03,458.00
             324.03,458.00 324.03,454.16 324.03,454.16
             324.03,454.16 325.50,454.16 325.50,454.16
             328.82,454.16 330.88,453.95 331.66,453.55
             332.45,453.14 332.84,452.07 332.84,450.33
             332.84,450.33 332.84,404.27 332.84,404.27
             332.84,404.27 314.64,458.00 314.64,458.00
             314.64,458.00 311.36,458.00 311.36,458.00
             311.36,458.00 291.94,404.27 291.94,404.27
             291.94,404.27 291.94,440.36 291.94,440.36
             291.94,445.91 292.53,449.56 293.72,451.31
             294.91,453.05 297.45,454.00 301.33,454.16
             301.33,454.16 301.33,458.00 301.33,458.00
             301.33,458.00 278.05,458.00 278.05,458.00
             278.05,458.00 278.05,454.16 278.05,454.16
             281.96,454.00 284.52,453.05 285.72,451.31
             286.91,449.56 287.52,445.91 287.52,440.36
             287.52,440.36 287.52,406.72 287.52,406.72
             287.52,404.97 287.12,403.89 286.33,403.48
             285.55,403.08 283.49,402.88 280.17,402.88
             280.17,402.88 278.62,402.88 278.62,402.88
             278.62,402.88 278.62,399.03 278.62,399.03
             278.62,399.03 299.69,399.03 299.69,399.03 Z
           M 391.22,439.62
           C 391.22,439.62 364.77,439.62 364.77,439.62
             364.71,443.76 365.39,447.03 366.81,449.42
             368.93,453.02 372.02,454.81 376.11,454.81
             378.84,454.81 381.14,454.15 383.02,452.81
             384.89,451.48 386.67,449.23 388.36,446.08
             388.36,446.08 391.22,447.62 391.22,447.62
             387.91,455.36 382.35,459.22 374.56,459.22
             369.06,459.22 364.61,457.45 361.20,453.92
             357.80,450.38 356.11,445.75 356.11,440.03
             356.11,433.94 357.85,428.87 361.33,424.81
             364.82,420.75 369.18,418.72 374.41,418.72
             379.35,418.72 383.41,420.67 386.56,424.56
             389.73,428.45 391.28,433.47 391.22,439.62 Z
           M 364.84,436.11
           C 364.84,436.11 379.14,436.11 379.14,436.11
             380.44,436.11 381.32,435.91 381.78,435.50
             382.25,435.09 382.48,434.29 382.48,433.09
             382.48,429.82 381.73,427.20 380.23,425.22
             378.74,423.23 376.74,422.23 374.23,422.23
             370.42,422.23 367.67,424.66 365.98,429.50
             365.22,431.62 364.84,433.83 364.84,436.11 Z
           M 425.28,458.58
           C 425.28,458.58 425.28,452.12 425.28,452.12
             422.78,456.86 419.02,459.22 414.02,459.22
             409.27,459.22 405.38,457.36 402.33,453.62
             399.29,449.90 397.77,445.15 397.77,439.38
             397.77,433.50 399.32,428.59 402.42,424.64
             405.52,420.70 409.39,418.72 414.02,418.72
             418.59,418.72 422.34,420.73 425.28,424.77
             425.28,424.77 425.28,406.31 425.28,406.31
             425.28,404.56 425.06,403.45 424.62,402.95
             424.20,402.46 423.24,402.22 421.77,402.22
             421.77,402.22 416.95,402.22 416.95,402.22
             416.95,402.22 416.95,398.70 416.95,398.70
             416.95,398.70 432.95,397.81 432.95,397.81
             432.95,397.81 432.95,448.53 432.95,448.53
             432.95,451.09 433.25,452.71 433.84,453.42
             434.45,454.13 435.84,454.48 438.02,454.48
             438.02,454.48 439.50,454.48 439.50,454.48
             439.50,454.48 439.50,458.00 439.50,458.00
             439.50,458.00 425.28,458.58 425.28,458.58 Z
           M 420.38,424.84
           C 418.91,423.70 417.33,423.12 415.64,423.12
             413.95,423.12 412.41,423.67 411.03,424.77
             409.64,425.85 408.60,427.29 407.89,429.09
             406.86,431.81 406.34,435.57 406.34,440.36
             406.34,444.88 407.16,448.42 408.78,450.98
             410.41,453.54 412.68,454.81 415.56,454.81
             418.50,454.81 420.84,453.39 422.58,450.53
             424.33,447.67 425.20,443.87 425.20,439.14
             425.20,435.16 424.69,431.89 423.66,429.33
             422.95,427.48 421.85,425.99 420.38,424.84 Z
           M 458.08,419.94
           C 458.08,419.94 458.08,451.22 458.08,451.22
             458.08,452.86 458.44,453.91 459.17,454.38
             459.91,454.84 461.61,455.06 464.28,455.06
             464.28,455.06 464.86,455.06 464.86,455.06
             464.86,455.06 464.86,458.00 464.86,458.00
             464.86,458.00 443.70,458.00 443.70,458.00
             443.70,458.00 443.70,455.06 443.70,455.06
             443.70,455.06 444.27,455.06 444.27,455.06
             446.88,455.06 448.55,454.84 449.28,454.38
             450.02,453.91 450.39,452.86 450.39,451.22
             450.39,451.22 450.39,428.44 450.39,428.44
             450.39,426.70 450.19,425.59 449.78,425.09
             449.38,424.61 448.41,424.36 446.89,424.36
             446.89,424.36 442.72,424.36 442.72,424.36
             442.72,424.36 442.72,420.84 442.72,420.84
             442.72,420.84 458.08,419.94 458.08,419.94 Z
           M 450.89,401.00
           C 451.82,400.07 452.93,399.61 454.23,399.61
             455.54,399.61 456.65,400.07 457.58,401.00
             458.50,401.93 458.97,403.05 458.97,404.36
             458.97,405.66 458.50,406.78 457.58,407.70
             456.65,408.62 455.51,409.08 454.16,409.08
             452.91,409.08 451.82,408.61 450.89,407.66
             449.96,406.70 449.50,405.59 449.50,404.34
             449.50,403.04 449.96,401.93 450.89,401.00 Z
           M 504.16,431.70
           C 504.16,431.70 504.16,448.12 504.16,448.12
             504.16,450.19 504.38,451.64 504.84,452.48
             505.31,453.33 506.12,453.75 507.27,453.75
             507.75,453.75 508.52,453.56 509.55,453.19
             510.04,452.97 510.45,452.86 510.78,452.86
             511.32,452.86 511.59,453.18 511.59,453.83
             511.59,455.03 510.80,456.12 509.22,457.11
             507.64,458.09 505.93,458.58 504.08,458.58
             502.17,458.58 500.66,458.13 499.55,457.23
             498.43,456.33 497.55,454.84 496.89,452.77
             493.24,457.07 488.51,459.22 482.69,459.22
             479.09,459.22 476.22,458.35 474.06,456.61
             471.91,454.87 470.84,452.56 470.84,449.67
             470.84,444.56 474.33,440.70 481.30,438.08
             484.62,436.77 489.68,435.54 496.48,434.39
             496.48,434.39 496.48,431.22 496.48,431.22
             496.48,427.78 495.77,425.46 494.36,424.27
             492.89,422.91 490.66,422.23 487.67,422.23
             485.71,422.23 484.01,422.55 482.56,423.17
             481.11,423.80 480.39,424.55 480.39,425.42
             480.39,425.70 480.58,426.05 480.97,426.48
             481.78,427.62 482.19,428.73 482.19,429.83
             482.19,431.03 481.77,432.02 480.92,432.81
             480.08,433.59 479.03,433.98 477.78,433.98
             476.36,433.98 475.22,433.53 474.34,432.61
             473.48,431.68 473.05,430.45 473.05,428.92
             473.05,425.98 474.55,423.55 477.58,421.62
             480.60,419.69 484.39,418.72 488.97,418.72
             494.14,418.72 498.12,419.81 500.89,421.98
             503.07,423.79 504.16,427.03 504.16,431.70 Z
           M 496.48,441.67
           C 496.48,441.67 496.48,437.91 496.48,437.91
             490.77,438.84 486.74,439.84 484.41,440.94
             480.86,442.62 479.09,445.16 479.09,448.53
             479.09,450.38 479.70,451.90 480.92,453.09
             482.15,454.29 483.69,454.89 485.55,454.89
             487.29,454.89 489.01,454.43 490.72,453.52
             492.44,452.59 493.82,451.36 494.86,449.83
             495.57,448.75 496.02,447.73 496.20,446.78
             496.39,445.82 496.48,444.12 496.48,441.67 Z
           M 528.09,419.94
           C 528.09,419.94 540.09,419.94 540.09,419.94
             540.09,419.94 540.09,423.45 540.09,423.45
             540.09,423.45 528.09,423.45 528.09,423.45
             528.09,423.45 528.09,445.75 528.09,445.75
             528.09,448.69 528.34,450.73 528.83,451.88
             529.48,453.46 530.84,454.25 532.91,454.25
             536.88,454.25 539.01,450.55 539.28,443.14
             539.28,443.14 542.72,443.14 542.72,443.14
             542.77,443.68 542.80,444.31 542.80,445.02
             542.80,449.91 541.38,453.73 538.55,456.45
             536.59,458.30 533.97,459.22 530.70,459.22
             525.86,459.22 522.75,457.45 521.39,453.92
             520.74,452.39 520.42,449.18 520.42,444.28
             520.42,444.28 520.42,423.45 520.42,423.45
             520.42,423.45 513.72,423.45 513.72,423.45
             513.72,423.45 513.72,420.27 513.72,420.27
             520.25,419.78 523.93,414.28 524.75,403.77
             524.75,403.77 528.09,403.77 528.09,403.77
             528.09,403.77 528.09,419.94 528.09,419.94 Z
           M 565.83,418.72
           C 570.67,418.72 574.80,420.70 578.20,424.64
             581.61,428.59 583.31,433.37 583.31,438.98
             583.31,444.59 581.59,449.37 578.16,453.31
             574.73,457.25 570.56,459.22 565.66,459.22
             560.76,459.22 556.60,457.26 553.17,453.34
             549.74,449.43 548.03,444.66 548.03,439.05
             548.03,433.34 549.74,428.53 553.17,424.61
             556.60,420.68 560.82,418.72 565.83,418.72 Z
           M 565.83,422.23
           C 559.68,422.23 556.61,427.84 556.61,439.05
             556.61,444.45 557.38,448.57 558.92,451.44
             560.47,454.29 562.72,455.72 565.66,455.72
             568.60,455.72 570.85,454.29 572.41,451.44
             573.96,448.57 574.73,444.42 574.73,438.97
             574.73,433.59 573.97,429.45 572.44,426.56
             570.91,423.68 568.71,422.23 565.83,422.23 Z
           M 602.42,419.94
           C 602.42,419.94 602.42,430.06 602.42,430.06
             603.72,426.48 605.45,423.70 607.59,421.70
             609.75,419.71 612.11,418.72 614.67,418.72
             616.85,418.72 618.58,419.32 619.86,420.52
             621.14,421.71 621.78,423.29 621.78,425.25
             621.78,426.94 621.32,428.29 620.39,429.30
             619.46,430.31 618.27,430.81 616.80,430.81
             615.48,430.81 614.41,430.39 613.56,429.55
             612.72,428.70 612.30,427.62 612.30,426.31
             612.30,425.01 612.79,423.79 613.77,422.64
             610.29,423.08 607.57,425.59 605.61,430.16
             603.48,435.00 602.42,440.66 602.42,447.14
             602.42,447.14 602.42,451.22 602.42,451.22
             602.42,452.86 602.79,453.91 603.52,454.38
             604.25,454.84 605.93,455.06 608.55,455.06
             608.55,455.06 610.09,455.06 610.09,455.06
             610.09,455.06 610.09,458.00 610.09,458.00
             610.09,458.00 588.30,458.00 588.30,458.00
             588.30,458.00 588.30,455.06 588.30,455.06
             588.30,455.06 588.62,455.06 588.62,455.06
             591.29,455.06 592.99,454.84 593.72,454.38
             594.46,453.91 594.83,452.86 594.83,451.22
             594.83,451.22 594.83,428.44 594.83,428.44
             594.83,426.70 594.62,425.59 594.20,425.09
             593.80,424.61 592.83,424.36 591.31,424.36
             591.31,424.36 587.97,424.36 587.97,424.36
             587.97,424.36 587.97,420.84 587.97,420.84
             587.97,420.84 602.42,419.94 602.42,419.94 Z" />
</svg>
