<?xml version="1.0" encoding="UTF-8" standalone="no"?>
<!DOCTYPE svg PUBLIC "-//W3C//DTD SVG 20010904//EN"
              "http://www.w3.org/TR/2001/REC-SVG-20010904/DTD/svg10.dtd">

<svg xmlns="http://www.w3.org/2000/svg"
     width="26.6667in" height="15in"
     viewBox="0 0 1920 1080">
  <path id="Path"
        fill="none" stroke="black" stroke-width="1"
        d="M 270.06,189.08
           C 270.06,189.08 278.88,189.08 278.88,189.08
             281.53,196.79 284.41,202.80 287.50,207.12
             290.59,211.44 293.88,214.59 297.38,216.59
             300.88,218.59 304.50,219.59 308.25,219.59
             312.86,219.59 316.77,218.18 319.97,215.34
             323.18,212.51 324.78,208.90 324.78,204.52
             324.78,200.36 323.73,197.15 321.64,194.88
             319.55,192.59 316.91,190.96 313.72,189.97
             310.54,188.97 306.11,188.00 300.44,187.06
             294.76,186.12 290.66,185.21 288.14,184.36
             284.13,182.95 280.69,181.01 277.81,178.53
             274.94,176.04 272.75,173.05 271.27,169.56
             269.79,166.06 269.05,162.34 269.05,158.39
             269.05,154.66 269.70,151.06 271.00,147.59
             272.30,144.12 274.15,141.04 276.55,138.34
             278.94,135.65 281.87,133.52 285.33,131.95
             288.80,130.38 292.63,129.59 296.83,129.59
             299.75,129.59 303.22,129.99 307.22,130.78
             311.22,131.56 314.04,131.95 315.69,131.95
             317.58,131.95 319.55,131.50 321.58,130.59
             321.58,130.59 329.42,130.59 329.42,130.59
             329.42,130.59 332.70,162.11 332.70,162.11
             332.70,162.11 323.64,162.11 323.64,162.11
             319.13,153.59 314.79,147.45 310.61,143.67
             306.43,139.89 301.62,138.00 296.19,138.00
             293.60,138.00 291.20,138.61 288.98,139.81
             286.77,141.01 284.99,142.66 283.67,144.77
             282.35,146.86 281.69,149.16 281.69,151.67
             281.69,155.07 282.87,157.70 285.23,159.56
             287.61,161.42 291.51,162.90 296.94,164.00
             302.38,165.11 307.38,166.07 311.95,166.91
             316.52,167.73 320.24,168.84 323.09,170.23
             328.38,172.82 332.48,176.42 335.42,181.03
             338.37,185.64 339.84,190.84 339.84,196.64
             339.84,202.17 338.50,207.34 335.81,212.14
             333.12,216.95 329.35,220.79 324.48,223.67
             319.62,226.55 314.21,228.00 308.25,228.00
             304.93,228.00 302.41,227.77 300.70,227.31
             299.00,226.86 296.30,226.05 292.61,224.88
             288.92,223.69 286.20,223.09 284.45,223.09
             281.80,223.09 279.47,224.06 277.48,226.00
             277.48,226.00 270.06,226.00 270.06,226.00
             270.06,226.00 270.06,189.08 270.06,189.08 Z
           M 322.23,149.45
           C 322.23,149.45 319.14,140.64 319.14,140.64
             319.02,141.26 318.12,141.56 316.44,141.56
             314.69,141.56 313.04,140.43 311.48,138.16
             314.35,137.89 316.47,138.50 317.84,139.98
             319.23,141.46 320.61,143.16 322.00,145.06
             323.38,146.97 323.46,148.43 322.23,149.45 Z
           M 275.64,207.81
           C 275.64,207.81 275.89,217.70 275.89,217.70
             275.27,216.67 275.69,215.84 277.12,215.19
             278.56,214.53 279.48,214.63 279.88,215.48
             279.19,216.00 278.52,215.83 277.86,214.98
             277.20,214.13 276.38,212.87 275.41,211.20
             274.43,209.54 274.50,208.41 275.64,207.81 Z
           M 274.86,150.91
           C 275.94,154.34 276.48,156.96 276.48,158.77
             276.48,160.73 276.82,162.73 277.48,164.73
             278.16,166.75 279.15,168.65 280.45,170.44
             281.77,172.22 283.22,173.66 284.83,174.77
             287.05,176.29 289.56,177.38 292.38,178.03
             295.19,178.69 299.52,179.50 305.36,180.47
             311.20,181.44 315.30,182.41 317.67,183.38
             322.21,185.05 325.78,187.66 328.38,191.19
             330.98,194.72 332.28,198.86 332.28,203.59
             332.28,207.11 330.52,210.36 326.98,213.34
             328.65,208.99 329.48,204.74 329.48,200.59
             329.48,196.24 328.39,192.84 326.20,190.38
             324.02,187.91 321.19,186.04 317.69,184.77
             314.19,183.48 309.18,182.26 302.66,181.09
             296.14,179.92 292.77,179.30 292.53,179.25
             285.94,177.52 280.89,174.48 277.39,170.11
             273.90,165.75 272.16,160.71 272.16,155.00
             272.16,154.09 272.14,153.30 272.12,152.62
             272.10,151.95 273.02,151.38 274.86,150.91 Z
           M 423.97,217.59
           C 423.97,217.59 423.97,226.00 423.97,226.00
             423.97,226.00 387.45,226.00 387.45,226.00
             387.45,226.00 387.45,217.73 387.45,217.73
             390.70,217.57 392.63,217.43 393.25,217.33
             393.86,217.21 394.30,217.06 394.58,216.88
             394.85,216.69 395.07,216.32 395.25,215.78
             395.43,215.23 395.52,214.35 395.52,213.14
             395.52,213.14 395.52,182.91 395.52,182.91
             395.52,179.62 394.88,177.32 393.62,176.00
             392.36,174.67 390.87,174.00 389.14,174.00
             385.65,174.00 381.58,176.14 376.92,180.42
             376.92,180.42 376.92,213.78 376.92,213.78
             376.92,215.38 377.21,216.39 377.78,216.81
             378.36,217.23 380.94,217.52 385.50,217.69
             385.50,217.69 385.50,226.00 385.50,226.00
             385.50,226.00 348.73,226.00 348.73,226.00
             348.73,226.00 348.73,217.67 348.73,217.67
             352.93,217.55 355.32,217.34 355.91,217.06
             356.50,216.77 356.80,216.02 356.80,214.81
             356.80,214.81 356.80,152.59 356.80,152.59
             356.80,148.17 353.81,145.21 347.84,143.72
             347.84,143.72 347.84,137.02 347.84,137.02
             347.84,137.02 371.20,129.59 371.20,129.59
             371.20,129.59 376.92,129.59 376.92,129.59
             376.92,129.59 376.92,168.75 376.92,168.75
             377.20,168.50 379.27,167.58 383.12,165.98
             386.99,164.39 390.90,163.59 394.86,163.59
             398.99,163.59 402.63,164.37 405.77,165.92
             408.90,167.48 411.33,169.80 413.06,172.91
             414.79,176.00 415.66,179.72 415.66,184.06
             415.66,184.06 415.66,210.86 415.66,210.86
             415.66,213.32 415.70,214.88 415.78,215.53
             415.88,216.19 416.15,216.70 416.61,217.06
             417.07,217.42 418.13,217.59 419.81,217.59
             419.81,217.59 423.97,217.59 423.97,217.59 Z
           M 403.02,180.39
           C 403.02,180.39 403.02,213.92 403.02,213.92
             403.02,215.95 402.75,217.54 402.22,218.67
             401.69,219.81 400.86,220.04 399.73,219.36
             400.23,218.07 400.72,217.09 401.20,216.41
             401.68,215.72 401.92,214.25 401.92,211.98
             401.92,211.98 401.92,184.50 401.92,184.50
             401.92,181.37 401.74,179.07 401.38,177.62
             401.02,176.18 400.27,175.04 399.14,174.22
             398.02,173.39 396.08,172.00 393.33,170.05
             399.79,170.58 403.02,174.03 403.02,180.39 Z
           M 364.30,152.28
           C 364.30,152.28 364.30,213.06 364.30,213.06
             364.30,215.18 364.13,216.86 363.81,218.09
             363.50,219.34 362.72,219.69 361.47,219.16
             361.47,219.16 361.47,217.22 361.47,217.22
             361.63,217.22 361.95,216.95 362.42,216.42
             362.90,215.89 363.14,214.95 363.14,213.58
             363.14,213.58 363.14,151.77 363.14,151.77
             363.14,149.18 362.85,147.29 362.28,146.09
             361.83,145.20 361.14,144.46 360.20,143.88
             359.27,143.29 358.29,143.00 357.27,143.00
             356.75,143.00 356.46,142.33 356.38,140.98
             358.97,140.53 360.94,141.45 362.28,143.75
             363.62,146.04 364.30,148.89 364.30,152.28 Z
           M 481.25,203.97
           C 481.25,203.97 487.39,208.59 487.39,208.59
             484.63,213.90 481.80,217.84 478.92,220.41
             476.05,222.98 472.88,224.89 469.41,226.12
             465.95,227.38 462.35,228.00 458.61,228.00
             453.47,228.00 448.69,226.74 444.27,224.23
             439.84,221.71 436.34,218.10 433.78,213.39
             431.22,208.67 429.94,203.37 429.94,197.47
             429.94,192.87 430.70,188.53 432.23,184.45
             433.77,180.37 435.91,176.76 438.66,173.62
             441.41,170.48 444.61,168.02 448.28,166.25
             451.96,164.48 455.88,163.59 460.06,163.59
             464.27,163.59 468.30,164.48 472.14,166.27
             475.98,168.04 479.05,170.51 481.36,173.69
             483.02,175.98 484.20,178.30 484.92,180.66
             485.65,183.01 486.34,186.79 487.00,192.00
             487.00,192.00 448.41,192.00 448.41,192.00
             448.49,194.24 449.12,196.73 450.30,199.48
             451.48,202.23 453.00,204.41 454.84,206.03
             456.70,207.66 458.68,208.82 460.78,209.53
             462.88,210.24 464.89,210.59 466.80,210.59
             471.44,210.59 476.26,208.39 481.25,203.97 Z
           M 471.45,184.00
           C 471.45,184.00 471.81,182.59 471.81,182.59
             471.76,180.20 471.02,178.10 469.59,176.30
             468.18,174.48 465.83,172.37 462.55,169.94
             466.52,169.79 469.24,170.95 470.69,173.42
             472.13,175.88 472.86,179.41 472.86,184.00
             472.86,184.00 471.45,184.00 471.45,184.00 Z
           M 448.81,182.59
           C 448.81,182.59 465.98,183.16 465.98,183.16
             465.98,183.16 465.42,183.16 465.42,183.16
             465.42,181.03 465.07,179.19 464.36,177.62
             463.65,176.06 462.74,174.90 461.64,174.14
             460.54,173.38 459.27,173.00 457.84,173.00
             455.51,173.00 453.44,174.18 451.64,176.53
             449.84,178.88 448.89,180.90 448.81,182.59 Z
           M 446.55,172.50
           C 440.43,179.76 437.38,188.15 437.38,197.67
             437.38,204.45 439.47,209.97 443.66,214.22
             447.85,218.47 452.66,220.59 458.09,220.59
             461.32,220.59 464.55,219.89 467.80,218.48
             471.04,217.08 474.47,215.57 478.09,213.97
             476.30,217.18 473.94,219.32 471.02,220.39
             468.10,221.46 464.62,222.00 460.58,222.00
             453.49,222.00 447.59,219.52 442.86,214.56
             438.14,209.59 435.78,203.20 435.78,195.39
             435.78,190.54 436.53,186.20 438.03,182.38
             439.53,178.54 442.37,175.25 446.55,172.50 Z
           M 520.56,163.59
           C 520.56,163.59 520.56,168.97 520.56,168.97
             520.76,168.74 521.88,167.79 523.92,166.11
             525.96,164.43 528.54,163.59 531.64,163.59
             534.55,163.59 536.98,164.66 538.94,166.78
             540.91,168.90 541.89,171.50 541.89,174.59
             541.89,177.70 541.00,180.38 539.22,182.62
             537.45,184.88 535.13,186.00 532.27,186.00
             531.09,186.00 529.82,185.78 528.47,185.33
             527.12,184.87 525.96,184.25 524.98,183.47
             524.52,183.09 524.09,182.73 523.67,182.38
             523.27,182.01 523.04,181.73 523.00,181.55
             522.96,181.36 522.94,181.41 522.94,181.69
             522.79,181.69 522.48,181.89 522.00,182.30
             521.53,182.70 521.05,183.17 520.56,183.73
             520.56,183.73 520.56,213.48 520.56,213.48
             520.56,215.15 520.69,216.18 520.94,216.56
             521.20,216.95 521.74,217.22 522.56,217.38
             523.39,217.52 526.24,217.59 531.09,217.59
             531.09,217.59 531.09,226.00 531.09,226.00
             531.09,226.00 491.61,226.00 491.61,226.00
             491.61,226.00 491.61,217.59 491.61,217.59
             491.61,217.59 496.03,217.59 496.03,217.59
             499.13,217.59 500.69,216.50 500.69,214.31
             500.69,214.31 500.69,185.11 500.69,185.11
             500.69,181.45 497.66,178.70 491.61,176.83
             491.61,176.83 491.61,170.44 491.61,170.44
             491.61,170.44 514.36,163.59 514.36,163.59
             514.36,163.59 520.56,163.59 520.56,163.59 Z
           M 508.19,185.78
           C 508.19,185.78 508.19,214.81 508.19,214.81
             508.19,216.81 507.84,218.32 507.16,219.34
             506.48,220.36 505.59,220.42 504.48,219.53
             504.91,218.09 505.41,217.08 505.98,216.48
             506.55,215.88 506.84,214.57 506.84,212.55
             506.84,212.55 506.84,185.06 506.84,185.06
             506.84,181.93 506.43,179.81 505.61,178.72
             504.80,177.62 503.46,177.08 501.61,177.08
             501.52,177.08 501.12,177.13 500.39,177.23
             499.67,177.34 499.25,176.52 499.12,174.77
             505.16,175.70 508.19,179.37 508.19,185.78 Z
           M 523.83,175.44
           C 524.46,174.11 525.63,174.12 527.34,175.50
             529.49,177.56 531.09,178.59 532.14,178.59
             532.99,178.59 534.15,178.37 535.61,177.91
             535.83,179.25 535.41,179.92 534.36,179.92
             532.45,179.92 530.59,179.18 528.77,177.70
             527.61,176.57 526.88,176.00 526.56,176.00
             526.27,176.00 525.36,175.81 523.83,175.44 Z
           M 574.56,163.59
           C 574.56,163.59 574.56,168.97 574.56,168.97
             574.76,168.74 575.88,167.79 577.92,166.11
             579.96,164.43 582.54,163.59 585.64,163.59
             588.55,163.59 590.98,164.66 592.94,166.78
             594.91,168.90 595.89,171.50 595.89,174.59
             595.89,177.70 595.00,180.38 593.22,182.62
             591.45,184.88 589.13,186.00 586.27,186.00
             585.09,186.00 583.82,185.78 582.47,185.33
             581.12,184.87 579.96,184.25 578.98,183.47
             578.52,183.09 578.09,182.73 577.67,182.38
             577.27,182.01 577.04,181.73 577.00,181.55
             576.96,181.36 576.94,181.41 576.94,181.69
             576.79,181.69 576.48,181.89 576.00,182.30
             575.53,182.70 575.05,183.17 574.56,183.73
             574.56,183.73 574.56,213.48 574.56,213.48
             574.56,215.15 574.69,216.18 574.94,216.56
             575.20,216.95 575.74,217.22 576.56,217.38
             577.39,217.52 580.24,217.59 585.09,217.59
             585.09,217.59 585.09,226.00 585.09,226.00
             585.09,226.00 545.61,226.00 545.61,226.00
             545.61,226.00 545.61,217.59 545.61,217.59
             545.61,217.59 550.03,217.59 550.03,217.59
             553.13,217.59 554.69,216.50 554.69,214.31
             554.69,214.31 554.69,185.11 554.69,185.11
             554.69,181.45 551.66,178.70 545.61,176.83
             545.61,176.83 545.61,170.44 545.61,170.44
             545.61,170.44 568.36,163.59 568.36,163.59
             568.36,163.59 574.56,163.59 574.56,163.59 Z
           M 562.19,185.78
           C 562.19,185.78 562.19,214.81 562.19,214.81
             562.19,216.81 561.84,218.32 561.16,219.34
             560.48,220.36 559.59,220.42 558.48,219.53
             558.91,218.09 559.41,217.08 559.98,216.48
             560.55,215.88 560.84,214.57 560.84,212.55
             560.84,212.55 560.84,185.06 560.84,185.06
             560.84,181.93 560.43,179.81 559.61,178.72
             558.80,177.62 557.46,177.08 555.61,177.08
             555.52,177.08 555.12,177.13 554.39,177.23
             553.67,177.34 553.25,176.52 553.12,174.77
             559.16,175.70 562.19,179.37 562.19,185.78 Z
           M 577.83,175.44
           C 578.46,174.11 579.63,174.12 581.34,175.50
             583.49,177.56 585.09,178.59 586.14,178.59
             586.99,178.59 588.15,178.37 589.61,177.91
             589.83,179.25 589.41,179.92 588.36,179.92
             586.45,179.92 584.59,179.18 582.77,177.70
             581.61,176.57 580.88,176.00 580.56,176.00
             580.27,176.00 579.36,175.81 577.83,175.44 Z
           M 627.36,163.59
           C 627.36,163.59 627.36,213.00 627.36,213.00
             627.36,214.64 627.45,215.69 627.64,216.16
             627.83,216.62 628.22,216.96 628.83,217.17
             629.43,217.38 631.63,217.55 635.42,217.69
             635.42,217.69 635.42,226.00 635.42,226.00
             635.42,226.00 600.38,226.00 600.38,226.00
             600.38,226.00 600.38,217.67 600.38,217.67
             604.06,217.56 606.16,217.26 606.66,216.78
             607.16,216.30 607.42,215.18 607.42,213.42
             607.42,213.42 607.42,183.94 607.42,183.94
             607.42,182.71 606.98,181.53 606.11,180.41
             605.23,179.28 603.32,178.21 600.38,177.19
             600.38,177.19 600.38,171.31 600.38,171.31
             600.38,171.31 621.56,163.59 621.56,163.59
             621.56,163.59 627.36,163.59 627.36,163.59 Z
           M 614.92,184.12
           C 614.92,184.12 614.92,214.64 614.92,214.64
             614.92,218.04 614.23,219.57 612.84,219.23
             612.28,218.14 612.27,217.32 612.81,216.78
             613.36,216.23 613.64,215.11 613.64,213.42
             613.64,213.42 613.64,183.30 613.64,183.30
             613.64,181.25 613.23,179.76 612.41,178.84
             611.59,177.92 610.53,177.45 609.22,177.45
             608.38,177.45 607.91,176.65 607.81,175.05
             612.55,175.73 614.92,178.76 614.92,184.12 Z
           M 616.84,133.59
           C 618.89,133.59 620.83,134.08 622.64,135.05
             624.46,136.02 625.91,137.36 626.97,139.08
             628.03,140.80 628.56,142.68 628.56,144.73
             628.56,146.79 628.03,148.68 626.97,150.41
             625.91,152.14 624.48,153.50 622.66,154.50
             620.84,155.50 618.91,156.00 616.84,156.00
             613.69,156.00 610.97,154.89 608.70,152.67
             606.44,150.45 605.31,147.81 605.31,144.73
             605.31,142.73 605.83,140.87 606.86,139.14
             607.90,137.40 609.32,136.04 611.11,135.06
             612.91,134.09 614.82,133.59 616.84,133.59 Z
           M 614.19,139.39
           C 614.83,140.46 614.77,141.32 613.98,141.97
             613.21,142.62 612.83,143.50 612.83,144.61
             612.83,145.71 613.22,146.63 614.00,147.36
             614.79,148.09 615.22,149.05 615.28,150.25
             614.34,151.00 613.44,150.77 612.58,149.55
             611.71,148.32 611.28,146.71 611.28,144.73
             611.28,141.15 612.25,139.37 614.19,139.39 Z
           M 263.44,284.59
           C 263.44,284.59 297.41,284.59 297.41,284.59
             297.41,284.59 297.41,292.03 297.41,292.03
             293.71,293.73 290.79,296.10 288.66,299.14
             286.52,302.18 284.41,306.70 282.34,312.67
             282.34,312.67 258.55,382.00 258.55,382.00
             258.55,382.00 251.08,382.00 251.08,382.00
             251.08,382.00 228.56,317.52 228.56,317.52
             228.56,317.52 206.17,382.00 206.17,382.00
             206.17,382.00 198.94,382.00 198.94,382.00
             198.94,382.00 174.14,309.39 174.14,309.39
             172.00,303.15 170.56,299.18 169.81,297.48
             169.06,295.78 168.22,294.61 167.28,293.97
             166.35,293.32 163.91,293.00 159.97,293.00
             159.97,293.00 159.97,284.59 159.97,284.59
             159.97,284.59 202.77,284.59 202.77,284.59
             202.77,284.59 202.77,293.47 202.77,293.47
             200.48,293.11 199.29,292.92 199.17,292.91
             199.05,292.90 198.84,292.89 198.53,292.89
             194.62,292.89 192.67,293.75 192.67,295.45
             192.67,297.02 193.30,299.75 194.56,303.66
             194.56,303.66 209.08,345.98 209.08,345.98
             209.08,345.98 223.75,303.41 223.75,303.41
             222.96,300.74 222.13,298.65 221.27,297.14
             220.40,295.63 219.61,294.63 218.89,294.14
             218.18,293.64 217.58,293.36 217.09,293.28
             216.60,293.21 214.36,293.07 210.36,292.86
             210.36,292.86 210.36,284.59 210.36,284.59
             210.36,284.59 254.23,284.59 254.23,284.59
             254.23,284.59 254.23,292.92 254.23,292.92
             249.71,293.05 246.94,293.29 245.92,293.64
             244.91,293.98 244.41,294.50 244.41,295.19
             244.41,296.93 245.34,300.45 247.22,305.73
             247.22,305.73 261.17,346.00 261.17,346.00
             261.17,346.00 272.16,314.00 272.16,314.00
             272.98,311.75 273.66,309.62 274.19,307.59
             274.72,305.56 274.98,303.76 274.98,302.19
             274.98,299.09 274.28,296.86 272.88,295.48
             271.47,294.11 268.32,293.20 263.44,292.77
             263.44,292.77 263.44,284.59 263.44,284.59 Z
           M 283.52,291.33
           C 283.52,291.33 277.53,291.33 277.53,291.33
             278.55,290.65 279.55,291.31 280.53,293.30
             281.52,295.28 281.38,296.49 280.12,296.94
             279.01,296.28 279.07,295.01 280.30,293.12
             281.52,291.24 282.60,290.64 283.52,291.33 Z
           M 231.23,301.56
           C 231.23,301.56 254.14,370.70 254.14,370.70
             253.39,370.79 253.02,370.26 253.02,369.12
             253.02,368.44 252.64,367.02 251.91,364.86
             251.91,364.86 229.88,301.50 229.88,301.50
             228.78,298.45 228.00,296.49 227.55,295.62
             227.09,294.76 226.48,294.12 225.72,293.69
             224.96,293.26 224.82,292.56 225.30,291.59
             226.97,291.72 228.95,295.04 231.23,301.56 Z
           M 179.64,302.55
           C 179.64,302.55 201.83,374.16 201.83,374.16
             200.45,373.52 199.86,372.98 200.06,372.55
             200.27,372.10 200.46,371.60 200.64,371.05
             200.82,370.48 200.91,370.06 200.91,369.78
             200.91,368.55 200.60,367.16 200.00,365.59
             200.00,365.59 178.95,304.30 178.95,304.30
             177.52,300.10 176.46,297.33 175.80,295.98
             175.13,294.63 174.43,293.76 173.70,293.38
             172.98,292.99 172.66,292.21 172.72,291.03
             173.76,290.34 174.83,291.09 175.94,293.30
             177.05,295.51 178.29,298.59 179.64,302.55 Z
           M 322.12,327.66
           C 321.09,327.66 321.11,328.17 322.17,329.19
             323.24,330.20 323.78,331.41 323.78,332.83
             323.78,335.52 322.77,337.89 320.73,339.94
             318.70,341.98 316.19,343.00 313.20,343.00
             310.35,343.00 308.01,342.17 306.19,340.50
             304.36,338.82 303.45,336.82 303.45,334.48
             303.45,331.48 304.72,328.66 307.25,326.05
             309.78,323.43 313.09,321.37 317.19,319.86
             321.28,318.35 325.75,317.59 330.59,317.59
             334.25,317.59 337.71,318.25 340.97,319.56
             344.23,320.88 346.86,322.93 348.88,325.73
             350.89,328.53 351.91,331.88 351.91,335.80
             351.91,335.80 351.91,368.34 351.91,368.34
             351.58,369.47 351.42,369.87 351.42,369.55
             351.49,369.55 352.59,368.34 354.72,365.94
             354.72,365.94 360.64,373.08 360.64,373.08
             357.27,376.51 354.55,378.85 352.48,380.11
             350.42,381.37 347.93,382.00 345.00,382.00
             341.56,382.00 338.82,381.16 336.77,379.50
             334.72,377.82 333.71,376.67 333.73,376.03
             329.54,380.01 324.24,382.00 317.84,382.00
             313.09,382.00 309.24,380.70 306.30,378.09
             303.35,375.48 301.88,372.14 301.88,368.06
             301.88,364.57 302.73,361.62 304.45,359.20
             306.18,356.78 308.33,354.71 310.89,353.02
             313.46,351.31 317.09,349.23 321.77,346.78
             326.45,344.34 329.83,342.51 331.89,341.31
             331.89,341.31 331.89,332.64 331.89,332.64
             331.89,330.23 331.47,328.52 330.64,327.52
             329.80,326.51 328.50,326.00 326.72,326.00
             325.01,326.00 323.82,326.24 323.14,326.72
             322.46,327.20 322.12,327.51 322.12,327.66 Z
           M 339.39,337.59
           C 339.39,337.59 339.39,362.61 339.39,362.61
             339.39,367.17 339.76,370.31 340.50,372.03
             341.25,373.74 342.58,374.59 344.50,374.59
             345.55,374.59 346.20,375.38 346.45,376.95
             343.75,378.12 341.70,377.57 340.28,375.31
             338.88,373.05 338.17,369.86 338.17,365.73
             338.17,365.73 338.17,335.86 338.17,335.86
             338.17,331.92 337.75,329.38 336.91,328.22
             336.06,327.06 335.54,325.77 335.33,324.33
             336.64,323.45 337.64,324.15 338.34,326.41
             339.04,328.66 339.39,332.39 339.39,337.59 Z
           M 331.89,366.12
           C 331.89,366.12 331.89,351.81 331.89,351.81
             329.42,353.18 327.28,354.88 325.47,356.92
             323.66,358.96 322.77,361.36 322.77,364.11
             322.77,365.65 323.13,366.79 323.88,367.52
             324.61,368.23 325.46,368.59 326.41,368.59
             328.34,368.59 330.17,367.77 331.89,366.12 Z
           M 321.11,376.83
           C 318.25,378.28 315.36,378.00 312.42,376.00
             309.49,374.00 308.03,371.04 308.03,367.11
             308.03,364.45 308.68,362.01 309.97,359.78
             311.26,357.55 313.75,355.79 317.45,354.48
             315.18,357.91 313.27,360.50 311.70,362.25
             310.15,363.99 309.38,365.95 309.38,368.14
             309.38,369.88 310.21,371.39 311.88,372.67
             313.54,373.95 315.40,374.59 317.45,374.59
             319.63,374.59 320.85,375.34 321.11,376.83 Z
           M 315.25,337.42
           C 314.52,338.68 313.47,338.64 312.11,337.30
             310.74,335.95 310.06,334.35 310.06,332.52
             310.06,330.55 310.50,328.85 311.39,327.42
             312.27,326.00 313.25,325.64 314.31,326.36
             314.61,327.66 314.13,328.98 312.86,330.31
             311.59,331.65 310.95,333.01 310.95,334.41
             310.95,334.59 311.11,334.83 311.44,335.14
             311.77,335.45 312.16,335.59 312.62,335.59
             313.85,335.59 314.73,336.20 315.25,337.42 Z
           M 372.17,367.83
           C 372.17,367.83 372.17,307.08 372.17,307.08
             372.17,304.31 371.80,302.25 371.06,300.91
             370.32,299.56 367.83,298.11 363.59,296.53
             363.59,296.53 363.59,290.20 363.59,290.20
             363.59,290.20 386.50,282.59 386.50,282.59
             386.50,282.59 392.11,282.59 392.11,282.59
             392.11,282.59 392.11,365.45 392.11,365.45
             392.11,368.31 392.29,370.05 392.64,370.67
             393.00,371.29 394.19,371.59 396.19,371.59
             396.19,371.59 400.61,371.59 400.61,371.59
             400.61,371.59 400.61,380.00 400.61,380.00
             400.61,380.00 363.59,380.00 363.59,380.00
             363.59,380.00 363.59,371.59 363.59,371.59
             363.59,371.59 367.83,371.59 367.83,371.59
             369.60,371.59 370.77,371.32 371.33,370.78
             371.89,370.23 372.17,369.25 372.17,367.83 Z
           M 378.39,365.25
           C 378.39,365.25 378.39,307.86 378.39,307.86
             378.39,304.98 378.28,302.84 378.06,301.41
             377.84,299.97 377.33,298.88 376.53,298.12
             375.73,297.38 374.27,297.00 372.14,297.00
             370.84,297.00 370.14,296.18 370.06,294.53
             374.49,294.09 377.20,295.23 378.19,297.98
             379.18,300.73 379.67,304.03 379.67,307.86
             379.67,307.86 379.67,367.48 379.67,367.48
             379.67,371.14 379.08,372.91 377.91,372.80
             377.38,371.91 377.32,371.05 377.75,370.20
             378.18,369.36 378.39,367.71 378.39,365.25 Z
           M 440.67,291.53
           C 440.67,291.53 462.56,284.59 462.56,284.59
             462.56,284.59 468.30,284.59 468.30,284.59
             468.30,284.59 468.30,365.64 468.30,365.64
             468.30,366.88 468.58,367.68 469.16,368.05
             469.73,368.41 472.13,368.59 476.36,368.59
             476.36,368.59 476.36,376.75 476.36,376.75
             476.36,376.75 448.41,382.62 448.41,382.62
             448.41,382.62 448.41,377.23 448.41,377.23
             444.75,380.41 439.43,382.00 432.45,382.00
             428.52,382.00 424.85,381.16 421.44,379.48
             418.03,377.80 415.11,375.45 412.67,372.45
             410.24,369.45 408.40,366.04 407.14,362.22
             405.88,358.39 405.25,354.38 405.25,350.19
             405.25,344.09 406.69,338.55 409.58,333.55
             412.47,328.54 416.38,324.62 421.30,321.81
             426.22,319.00 431.70,317.59 437.72,317.59
             441.93,317.59 445.49,318.05 448.41,318.97
             448.41,318.97 448.41,307.62 448.41,307.62
             448.41,304.76 448.11,302.80 447.52,301.75
             446.93,300.69 444.65,299.40 440.67,297.89
             440.67,297.89 440.67,291.53 440.67,291.53 Z
           M 448.39,298.00
           C 448.39,298.00 448.39,295.75 448.39,295.75
             451.48,295.46 453.51,296.37 454.47,298.47
             455.44,300.57 455.92,303.17 455.92,306.25
             455.92,306.25 454.73,373.27 454.73,373.27
             454.02,372.70 453.80,372.23 454.11,371.86
             454.42,371.48 454.58,370.82 454.58,369.88
             454.58,369.88 454.58,306.38 454.58,306.38
             454.58,303.12 454.21,300.91 453.47,299.75
             452.74,298.59 451.05,298.00 448.39,298.00 Z
           M 448.41,365.41
           C 448.41,365.41 448.41,329.92 448.41,329.92
             447.58,328.91 446.36,328.01 444.75,327.20
             443.14,326.40 441.54,326.00 439.94,326.00
             437.53,326.00 435.28,326.77 433.19,328.31
             431.09,329.84 429.39,332.29 428.09,335.64
             426.79,338.98 426.14,343.28 426.14,348.52
             426.14,352.90 426.72,356.62 427.88,359.69
             429.04,362.74 430.58,364.99 432.50,366.44
             434.43,367.88 436.61,368.59 439.05,368.59
             442.75,368.59 445.88,367.53 448.41,365.41 Z
           M 431.12,322.86
           C 428.28,325.31 425.79,327.24 423.64,328.66
             420.37,330.75 417.73,333.79 415.73,337.77
             413.74,341.75 412.75,346.00 412.75,350.53
             412.75,354.92 413.62,358.96 415.36,362.67
             417.10,366.38 419.50,369.30 422.58,371.42
             425.66,373.54 429.08,374.59 432.83,374.59
             435.27,374.59 436.96,375.07 437.91,376.03
             437.94,377.34 437.66,378.00 437.08,378.00
             433.92,378.00 430.81,377.36 427.75,376.06
             424.69,374.77 421.91,372.88 419.42,370.39
             416.93,367.89 414.97,364.92 413.55,361.47
             412.12,358.02 411.41,354.29 411.41,350.27
             411.41,337.86 417.98,328.73 431.12,322.86 Z
           M 548.53,334.45
           C 548.53,334.45 548.53,366.69 548.53,366.69
             548.53,368.56 548.71,369.82 549.06,370.47
             549.41,371.12 549.91,371.45 550.56,371.47
             551.26,371.47 551.85,371.48 552.34,371.50
             552.84,371.52 554.22,371.62 556.47,371.80
             556.47,371.80 556.47,380.00 556.47,380.00
             556.47,380.00 520.53,380.00 520.53,380.00
             520.53,380.00 520.53,371.48 520.53,371.48
             524.91,371.65 527.34,371.46 527.84,370.91
             528.34,370.34 528.59,368.98 528.59,366.83
             528.59,366.83 528.59,338.23 528.59,338.23
             528.59,331.41 526.57,328.00 522.53,328.00
             520.81,328.00 518.66,328.67 516.09,330.02
             513.53,331.36 511.52,332.81 510.06,334.36
             510.06,334.36 510.06,368.00 510.06,368.00
             510.06,369.54 510.41,370.53 511.09,370.95
             511.78,371.38 514.16,371.59 518.25,371.59
             518.25,371.59 518.25,380.00 518.25,380.00
             518.25,380.00 481.61,380.00 481.61,380.00
             481.61,380.00 481.61,371.59 481.61,371.59
             481.61,371.59 485.14,371.59 485.14,371.59
             486.85,371.59 487.98,371.48 488.55,371.23
             489.12,371.00 489.49,370.59 489.67,370.02
             489.85,369.43 489.94,368.37 489.94,366.83
             489.94,366.83 489.94,340.31 489.94,340.31
             489.94,337.71 489.58,335.84 488.88,334.72
             488.18,333.59 485.88,332.25 482.00,330.72
             482.00,330.72 482.00,324.66 482.00,324.66
             482.00,324.66 504.86,317.59 504.86,317.59
             504.86,317.59 510.06,317.59 510.06,317.59
             510.06,317.59 510.06,323.08 510.06,323.08
             510.72,322.55 512.96,321.50 516.78,319.94
             520.60,318.38 524.38,317.59 528.12,317.59
             530.69,317.59 533.20,318.00 535.67,318.80
             538.14,319.59 540.39,320.80 542.42,322.42
             544.45,324.04 545.50,325.06 545.56,325.48
             547.61,323.58 550.57,321.79 554.44,320.11
             558.31,318.43 562.38,317.59 566.66,317.59
             570.66,317.59 574.23,318.37 577.34,319.91
             580.47,321.44 582.88,323.84 584.58,327.09
             586.27,330.36 587.12,334.23 587.12,338.70
             587.12,338.70 587.12,368.03 587.12,368.03
             587.12,369.16 587.23,369.90 587.44,370.27
             587.64,370.63 588.10,370.95 588.80,371.20
             589.50,371.46 591.63,371.59 595.19,371.59
             595.19,371.59 595.19,380.00 595.19,380.00
             595.19,380.00 559.00,380.00 559.00,380.00
             559.00,380.00 559.00,371.59 559.00,371.59
             559.00,371.59 563.22,371.59 563.22,371.59
             564.85,371.59 565.92,371.35 566.42,370.86
             566.93,370.36 567.19,369.23 567.19,367.47
             567.19,367.47 567.19,339.53 567.19,339.53
             567.19,335.44 566.75,332.50 565.88,330.70
             565.01,328.90 563.45,328.00 561.19,328.00
             557.25,328.00 553.03,330.15 548.53,334.45 Z
           M 534.81,364.81
           C 534.81,364.81 534.81,336.12 534.81,336.12
             534.81,332.59 534.12,330.14 532.73,328.77
             531.36,327.38 530.79,326.10 531.02,324.92
             532.19,324.09 533.32,325.09 534.41,327.92
             535.49,330.76 536.03,334.59 536.03,339.42
             536.03,339.42 536.03,367.69 536.03,367.69
             536.03,369.86 535.75,371.62 535.19,372.98
             534.63,374.34 533.75,374.62 532.53,373.83
             533.20,372.41 533.74,371.29 534.17,370.45
             534.60,369.61 534.81,367.73 534.81,364.81 Z
           M 573.41,365.33
           C 573.41,365.33 573.41,336.52 573.41,336.52
             573.41,334.30 573.19,332.54 572.77,331.23
             572.35,329.93 571.52,328.92 570.30,328.19
             569.07,327.45 567.02,326.20 564.17,324.44
             568.48,324.04 571.31,324.99 572.66,327.28
             574.01,329.56 574.69,332.76 574.69,336.88
             574.69,336.88 574.69,364.23 574.69,364.23
             574.69,367.82 574.49,370.45 574.09,372.14
             573.70,373.83 572.88,374.40 571.66,373.86
             571.30,372.67 571.41,371.86 571.97,371.41
             572.54,370.95 572.92,370.24 573.11,369.28
             573.30,368.31 573.41,367.00 573.41,365.33 Z
           M 496.34,365.78
           C 496.34,365.78 496.34,338.17 496.34,338.17
             496.34,335.62 495.89,333.83 495.00,332.80
             494.11,331.76 492.99,331.23 491.62,331.23
             491.29,331.23 491.09,330.52 491.02,329.09
             493.41,328.44 495.08,329.37 496.02,331.89
             496.96,334.41 497.44,337.72 497.44,341.81
             497.44,341.81 497.44,363.91 497.44,363.91
             497.44,367.56 497.25,370.23 496.89,371.89
             496.52,373.56 495.69,374.09 494.39,373.48
             494.87,372.20 495.31,371.15 495.72,370.36
             496.13,369.56 496.34,368.03 496.34,365.78 Z
           M 621.12,327.66
           C 620.09,327.66 620.11,328.17 621.17,329.19
             622.24,330.20 622.78,331.41 622.78,332.83
             622.78,335.52 621.77,337.89 619.73,339.94
             617.70,341.98 615.19,343.00 612.20,343.00
             609.35,343.00 607.01,342.17 605.19,340.50
             603.36,338.82 602.45,336.82 602.45,334.48
             602.45,331.48 603.72,328.66 606.25,326.05
             608.78,323.43 612.09,321.37 616.19,319.86
             620.28,318.35 624.75,317.59 629.59,317.59
             633.25,317.59 636.71,318.25 639.97,319.56
             643.23,320.88 645.86,322.93 647.88,325.73
             649.89,328.53 650.91,331.88 650.91,335.80
             650.91,335.80 650.91,368.34 650.91,368.34
             650.58,369.47 650.42,369.87 650.42,369.55
             650.49,369.55 651.59,368.34 653.72,365.94
             653.72,365.94 659.64,373.08 659.64,373.08
             656.27,376.51 653.55,378.85 651.48,380.11
             649.42,381.37 646.93,382.00 644.00,382.00
             640.56,382.00 637.82,381.16 635.77,379.50
             633.72,377.82 632.71,376.67 632.73,376.03
             628.54,380.01 623.24,382.00 616.84,382.00
             612.09,382.00 608.24,380.70 605.30,378.09
             602.35,375.48 600.88,372.14 600.88,368.06
             600.88,364.57 601.73,361.62 603.45,359.20
             605.18,356.78 607.33,354.71 609.89,353.02
             612.46,351.31 616.09,349.23 620.77,346.78
             625.45,344.34 628.83,342.51 630.89,341.31
             630.89,341.31 630.89,332.64 630.89,332.64
             630.89,330.23 630.47,328.52 629.64,327.52
             628.80,326.51 627.50,326.00 625.72,326.00
             624.01,326.00 622.82,326.24 622.14,326.72
             621.46,327.20 621.12,327.51 621.12,327.66 Z
           M 638.39,337.59
           C 638.39,337.59 638.39,362.61 638.39,362.61
             638.39,367.17 638.76,370.31 639.50,372.03
             640.25,373.74 641.58,374.59 643.50,374.59
             644.55,374.59 645.20,375.38 645.45,376.95
             642.75,378.12 640.70,377.57 639.28,375.31
             637.88,373.05 637.17,369.86 637.17,365.73
             637.17,365.73 637.17,335.86 637.17,335.86
             637.17,331.92 636.75,329.38 635.91,328.22
             635.06,327.06 634.54,325.77 634.33,324.33
             635.64,323.45 636.64,324.15 637.34,326.41
             638.04,328.66 638.39,332.39 638.39,337.59 Z
           M 630.89,366.12
           C 630.89,366.12 630.89,351.81 630.89,351.81
             628.42,353.18 626.28,354.88 624.47,356.92
             622.66,358.96 621.77,361.36 621.77,364.11
             621.77,365.65 622.13,366.79 622.88,367.52
             623.61,368.23 624.46,368.59 625.41,368.59
             627.34,368.59 629.17,367.77 630.89,366.12 Z
           M 620.11,376.83
           C 617.25,378.28 614.36,378.00 611.42,376.00
             608.49,374.00 607.03,371.04 607.03,367.11
             607.03,364.45 607.68,362.01 608.97,359.78
             610.26,357.55 612.75,355.79 616.45,354.48
             614.18,357.91 612.27,360.50 610.70,362.25
             609.15,363.99 608.38,365.95 608.38,368.14
             608.38,369.88 609.21,371.39 610.88,372.67
             612.54,373.95 614.40,374.59 616.45,374.59
             618.63,374.59 619.85,375.34 620.11,376.83 Z
           M 614.25,337.42
           C 613.52,338.68 612.47,338.64 611.11,337.30
             609.74,335.95 609.06,334.35 609.06,332.52
             609.06,330.55 609.50,328.85 610.39,327.42
             611.27,326.00 612.25,325.64 613.31,326.36
             613.61,327.66 613.13,328.98 611.86,330.31
             610.59,331.65 609.95,333.01 609.95,334.41
             609.95,334.59 610.11,334.83 610.44,335.14
             610.77,335.45 611.16,335.59 611.62,335.59
             612.85,335.59 613.73,336.20 614.25,337.42 Z
           M 691.23,317.59
           C 691.23,317.59 691.23,323.09 691.23,323.09
             692.05,322.48 694.10,321.41 697.39,319.89
             700.69,318.36 704.63,317.59 709.22,317.59
             723.00,317.59 729.89,324.55 729.89,338.45
             729.89,338.45 729.89,367.91 729.89,367.91
             729.89,369.65 730.21,370.70 730.86,371.06
             731.50,371.42 733.83,371.59 737.83,371.59
             737.83,371.59 737.83,380.00 737.83,380.00
             737.83,380.00 701.83,380.00 701.83,380.00
             701.83,380.00 701.83,371.59 701.83,371.59
             705.77,371.59 708.05,371.37 708.69,370.92
             709.32,370.46 709.64,369.27 709.64,367.34
             709.64,367.34 709.64,335.95 709.64,335.95
             709.64,334.04 709.38,332.51 708.88,331.36
             708.38,330.21 707.68,329.37 706.78,328.83
             705.88,328.28 704.71,328.00 703.27,328.00
             701.32,328.00 699.34,328.56 697.33,329.67
             695.32,330.78 693.29,332.29 691.23,334.20
             691.23,334.20 691.23,367.34 691.23,367.34
             691.23,368.78 691.38,369.76 691.69,370.27
             692.00,370.78 692.47,371.11 693.09,371.27
             693.73,371.41 695.84,371.56 699.42,371.70
             699.42,371.70 699.42,380.00 699.42,380.00
             699.42,380.00 663.36,380.00 663.36,380.00
             663.36,380.00 663.36,371.59 663.36,371.59
             667.30,371.59 669.63,371.41 670.34,371.05
             671.06,370.68 671.42,369.77 671.42,368.31
             671.42,368.31 671.42,339.53 671.42,339.53
             671.42,337.25 670.96,335.47 670.03,334.19
             669.10,332.91 666.88,331.70 663.36,330.58
             663.36,330.58 663.36,324.47 663.36,324.47
             663.36,324.47 685.72,317.59 685.72,317.59
             685.72,317.59 691.23,317.59 691.23,317.59 Z
           M 678.92,337.39
           C 678.92,337.39 678.92,367.22 678.92,367.22
             678.92,369.45 678.73,371.16 678.36,372.34
             677.98,373.52 677.20,373.84 676.02,373.28
             677.02,371.93 677.52,369.90 677.52,367.20
             677.52,367.20 677.52,336.16 677.52,336.16
             677.52,334.72 677.02,333.50 676.03,332.50
             675.05,331.49 673.95,330.98 672.72,330.98
             672.69,330.98 672.39,331.04 671.84,331.16
             671.29,331.26 670.93,330.43 670.75,328.67
             676.20,329.27 678.92,332.17 678.92,337.39 Z
           M 717.14,335.31
           C 717.14,335.31 717.14,367.34 717.14,367.34
             717.14,368.78 717.10,369.92 717.02,370.75
             716.93,371.57 716.69,372.41 716.28,373.27
             715.88,374.11 714.93,374.28 713.42,373.77
             713.42,373.77 713.42,371.59 713.42,371.59
             714.43,371.59 715.14,371.12 715.55,370.17
             715.96,369.21 716.17,367.26 716.17,364.31
             716.17,364.31 716.17,335.62 716.17,335.62
             716.17,332.55 715.60,330.32 714.45,328.94
             713.30,327.55 711.14,325.89 707.95,323.95
             711.50,323.48 713.92,324.37 715.20,326.62
             716.49,328.89 717.14,331.78 717.14,335.31 Z
           M 305.91,488.33
           C 305.91,488.33 326.81,437.00 326.81,437.00
             326.81,437.00 347.48,437.00 347.48,437.00
             347.48,437.00 347.48,440.00 347.48,440.00
             344.27,440.03 342.00,440.45 340.69,441.25
             339.38,442.04 338.62,443.18 338.39,444.67
             338.17,446.16 338.06,448.91 338.06,452.92
             338.06,452.92 338.06,494.09 338.06,494.09
             338.06,496.19 338.34,497.78 338.89,498.86
             339.45,499.93 340.35,500.69 341.59,501.12
             342.84,501.55 344.80,501.84 347.48,502.00
             347.48,502.00 347.48,505.00 347.48,505.00
             347.48,505.00 316.62,505.00 316.62,505.00
             316.62,505.00 316.62,502.00 316.62,502.00
             319.69,501.97 321.90,501.59 323.27,500.86
             324.64,500.13 325.45,499.16 325.70,497.94
             325.96,496.71 326.09,494.68 326.09,491.86
             326.09,491.86 326.09,445.89 326.09,445.89
             326.09,445.89 302.31,505.00 302.31,505.00
             302.31,505.00 299.55,505.00 299.55,505.00
             299.55,505.00 276.05,447.75 276.05,447.75
             276.05,447.75 276.05,486.77 276.05,486.77
             276.05,491.14 276.88,494.56 278.55,497.03
             280.22,499.49 283.01,501.15 286.91,502.00
             286.91,502.00 286.91,505.00 286.91,505.00
             286.91,505.00 262.69,505.00 262.69,505.00
             262.69,505.00 262.69,502.00 262.69,502.00
             266.10,501.65 268.73,500.32 270.58,498.02
             272.43,495.71 273.36,492.48 273.36,488.33
             273.36,488.33 273.36,444.09 273.36,444.09
             272.05,442.67 270.49,441.61 268.67,440.91
             266.85,440.21 264.85,439.91 262.69,440.00
             262.69,440.00 262.69,437.00 262.69,437.00
             262.69,437.00 284.56,437.00 284.56,437.00
             284.56,437.00 305.91,488.33 305.91,488.33 Z
           M 330.73,493.61
           C 330.73,493.61 330.73,447.62 330.73,447.62
             330.73,443.88 331.02,441.34 331.59,440.00
             330.32,440.09 329.41,440.45 328.86,441.08
             328.32,441.70 327.98,442.55 327.86,443.66
             327.73,444.75 327.67,446.50 327.67,448.91
             327.67,448.91 327.67,494.86 327.67,494.86
             327.67,497.14 327.44,498.70 326.97,499.55
             326.51,500.39 325.56,501.21 324.12,502.00
             324.12,502.00 325.80,502.00 325.80,502.00
             328.00,502.00 329.38,501.38 329.92,500.12
             330.46,498.87 330.73,496.70 330.73,493.61 Z
           M 271.92,440.00
           C 271.92,440.00 270.16,440.00 270.16,440.00
             272.13,440.76 273.69,441.82 274.83,443.17
             275.96,444.52 277.12,446.62 278.30,449.48
             278.30,449.48 300.45,502.00 300.45,502.00
             301.15,500.73 301.50,499.62 301.50,498.67
             301.50,497.78 301.15,496.51 300.45,494.86
             300.45,494.86 281.41,448.81 281.41,448.81
             280.23,445.80 278.97,443.59 277.64,442.16
             276.32,440.72 274.41,440.00 271.92,440.00 Z
           M 268.19,502.00
           C 268.19,502.00 278.30,502.00 278.30,502.00
             277.15,501.40 276.22,500.56 275.50,499.50
             274.78,498.43 274.24,497.17 273.89,495.73
             273.44,497.05 272.74,498.20 271.80,499.20
             270.86,500.20 269.66,501.14 268.19,502.00 Z
           M 391.16,493.59
           C 391.16,493.59 393.08,495.06 393.08,495.06
             391.64,497.57 389.93,499.64 387.95,501.25
             385.97,502.87 383.80,504.06 381.42,504.84
             379.05,505.61 376.57,506.00 373.98,506.00
             370.47,506.00 367.21,505.17 364.19,503.52
             361.18,501.86 358.79,499.48 357.03,496.36
             355.28,493.23 354.41,489.69 354.41,485.72
             354.41,482.59 354.94,479.66 356.00,476.92
             357.07,474.17 358.55,471.75 360.45,469.66
             362.36,467.56 364.56,465.93 367.06,464.77
             369.57,463.59 372.24,463.00 375.08,463.00
             377.95,463.00 380.69,463.59 383.28,464.77
             385.88,465.95 387.95,467.57 389.48,469.64
             390.60,471.15 391.40,472.70 391.89,474.28
             392.39,475.87 392.79,477.77 393.08,480.00
             393.08,480.00 364.17,480.00 364.17,480.00
             364.30,483.34 364.86,486.16 365.86,488.47
             366.87,490.78 368.18,492.65 369.78,494.06
             371.39,495.47 373.11,496.48 374.94,497.09
             376.76,497.70 378.50,498.00 380.16,498.00
             384.18,498.00 387.84,496.53 391.16,493.59 Z
           M 382.69,477.00
           C 382.69,477.00 386.03,477.00 386.03,477.00
             385.94,473.45 385.20,470.83 383.83,469.14
             382.46,467.45 380.17,466.31 376.95,465.73
             378.99,466.65 380.46,467.85 381.34,469.33
             382.24,470.80 382.69,473.04 382.69,476.05
             382.69,476.05 382.69,477.00 382.69,477.00 Z
           M 364.45,477.00
           C 364.45,477.00 381.16,477.00 381.16,477.00
             381.16,477.00 381.16,475.42 381.16,475.42
             381.16,473.59 380.82,471.95 380.14,470.50
             379.47,469.05 378.55,467.95 377.39,467.17
             376.23,466.39 374.91,466.00 373.41,466.00
             370.98,466.00 368.91,467.07 367.22,469.22
             365.53,471.36 364.61,473.95 364.45,477.00 Z
           M 364.89,467.62
           C 358.92,472.21 355.94,478.22 355.94,485.66
             355.94,491.04 357.71,495.45 361.27,498.88
             364.83,502.29 368.94,504.00 373.59,504.00
             376.31,504.00 379.03,503.54 381.75,502.61
             384.48,501.67 386.79,500.28 388.67,498.44
             386.72,499.49 384.73,500.35 382.70,501.02
             380.68,501.67 378.27,502.00 375.47,502.00
             370.71,502.00 366.74,500.38 363.56,497.14
             360.39,493.89 358.81,489.66 358.81,484.44
             358.81,481.12 359.34,478.16 360.39,475.55
             361.44,472.92 362.94,470.28 364.89,467.62 Z
           M 424.97,442.00
           C 424.97,442.00 439.75,437.00 439.75,437.00
             439.75,437.00 441.72,437.00 441.72,437.00
             441.72,437.00 441.72,496.69 441.72,496.69
             441.72,498.39 442.17,499.53 443.08,500.12
             443.99,500.71 445.57,501.00 447.80,501.00
             447.80,501.00 447.80,503.45 447.80,503.45
             447.80,503.45 430.80,506.00 430.80,506.00
             430.80,506.00 430.80,501.00 430.80,501.00
             426.17,504.34 421.48,506.00 416.73,506.00
             414.09,506.00 411.61,505.45 409.31,504.36
             407.02,503.27 405.04,501.73 403.38,499.75
             401.72,497.76 400.45,495.48 399.58,492.91
             398.70,490.34 398.27,487.62 398.27,484.78
             398.27,480.69 399.26,476.98 401.25,473.64
             403.25,470.30 405.95,467.69 409.34,465.81
             412.74,463.94 416.52,463.00 420.70,463.00
             423.67,463.00 427.04,463.78 430.80,465.34
             430.80,465.34 430.80,453.30 430.80,453.30
             430.80,450.62 430.47,448.66 429.81,447.42
             429.16,446.18 427.55,445.04 424.97,444.00
             424.97,444.00 424.97,442.00 424.97,442.00 Z
           M 428.75,443.00
           C 428.75,443.00 427.12,443.00 427.12,443.00
             429.52,444.05 430.99,445.20 431.55,446.42
             432.11,447.65 432.39,449.29 432.39,451.33
             432.39,451.33 432.39,504.00 432.39,504.00
             433.44,503.55 434.21,503.03 434.70,502.42
             435.20,501.82 435.45,500.91 435.45,499.69
             435.45,499.69 435.45,451.42 435.45,451.42
             435.45,448.55 435.02,446.43 434.16,445.06
             433.30,443.69 431.50,443.00 428.75,443.00 Z
           M 430.80,497.62
           C 430.80,497.62 430.80,470.12 430.80,470.12
             429.68,468.81 428.38,467.80 426.89,467.08
             425.41,466.36 423.91,466.00 422.38,466.00
             420.11,466.00 418.02,466.68 416.11,468.05
             414.19,469.40 412.68,471.45 411.58,474.19
             410.48,476.93 409.94,480.33 409.94,484.39
             409.94,487.83 410.43,490.81 411.42,493.33
             412.41,495.85 413.80,497.76 415.58,499.06
             417.37,500.36 419.41,501.00 421.70,501.00
             424.99,501.00 428.02,499.88 430.80,497.62 Z
           M 415.73,465.56
           C 413.05,466.14 410.80,467.03 408.98,468.25
             406.21,469.90 403.99,472.27 402.33,475.36
             400.67,478.45 399.84,481.73 399.84,485.20
             399.84,488.57 400.57,491.70 402.02,494.58
             403.47,497.46 405.52,499.76 408.17,501.45
             410.82,503.15 413.77,504.00 417.02,504.00
             419.25,504.00 421.25,503.94 423.00,503.81
             421.53,503.94 420.60,504.00 420.22,504.00
             418.11,504.00 416.03,503.58 413.97,502.73
             411.91,501.89 410.05,500.65 408.36,499.00
             406.67,497.36 405.34,495.39 404.36,493.11
             403.39,490.83 402.91,488.34 402.91,485.66
             402.91,477.30 407.18,470.61 415.73,465.56 Z
           M 468.25,463.00
           C 468.25,463.00 468.25,496.73 468.25,496.73
             468.25,498.16 468.40,499.24 468.70,499.97
             469.00,500.70 469.58,501.20 470.42,501.48
             471.27,501.77 472.58,501.94 474.33,502.00
             474.33,502.00 474.33,505.00 474.33,505.00
             474.33,505.00 451.98,505.00 451.98,505.00
             451.98,505.00 451.98,502.00 451.98,502.00
             453.96,501.94 455.34,501.55 456.12,500.83
             456.91,500.11 457.30,498.82 457.30,496.97
             457.30,496.97 457.30,475.41 457.30,475.41
             457.30,474.06 456.83,472.81 455.91,471.66
             454.98,470.49 453.67,469.62 451.98,469.06
             451.98,469.06 451.98,467.56 451.98,467.56
             451.98,467.56 466.28,463.00 466.28,463.00
             466.28,463.00 468.25,463.00 468.25,463.00 Z
           M 458.88,475.55
           C 458.88,475.55 458.88,497.86 458.88,497.86
             458.88,499.68 458.22,501.06 456.91,502.00
             458.66,502.00 459.95,501.61 460.77,500.83
             461.58,500.05 461.98,498.76 461.98,496.97
             461.98,496.97 461.98,474.94 461.98,474.94
             461.98,472.93 461.49,471.39 460.50,470.31
             459.51,469.23 458.21,468.69 456.61,468.69
             455.88,468.69 455.29,468.72 454.84,468.78
             457.53,470.16 458.88,472.41 458.88,475.55 Z
           M 462.36,439.00
           C 463.57,439.00 464.70,439.31 465.75,439.92
             466.81,440.54 467.64,441.38 468.25,442.45
             468.85,443.52 469.16,444.68 469.16,445.95
             469.16,447.21 468.85,448.39 468.25,449.47
             467.64,450.55 466.81,451.41 465.75,452.05
             464.70,452.68 463.57,453.00 462.36,453.00
             460.54,453.00 458.97,452.30 457.66,450.91
             456.35,449.50 455.70,447.85 455.70,445.95
             455.70,444.71 455.99,443.55 456.58,442.47
             457.17,441.39 457.99,440.54 459.03,439.92
             460.07,439.31 461.18,439.00 462.36,439.00 Z
           M 463.17,441.00
           C 461.30,441.00 459.85,441.43 458.83,442.30
             457.80,443.16 457.30,444.35 457.30,445.86
             457.30,447.31 457.79,448.51 458.78,449.45
             459.77,450.39 461.23,450.91 463.17,451.00
             462.15,450.11 461.40,449.31 460.92,448.62
             460.44,447.93 460.20,447.04 460.20,445.95
             460.20,443.95 461.19,442.29 463.17,441.00 Z
           M 490.17,468.62
           C 490.17,468.75 490.38,469.19 490.80,469.94
             491.21,470.69 491.42,471.39 491.42,472.05
             491.42,473.34 490.85,474.49 489.72,475.50
             488.58,476.50 487.17,477.00 485.48,477.00
             483.86,477.00 482.57,476.59 481.61,475.78
             480.65,474.96 480.17,474.01 480.17,472.94
             480.17,471.34 480.97,469.76 482.58,468.22
             484.19,466.68 486.41,465.42 489.23,464.45
             492.07,463.48 495.19,463.00 498.59,463.00
             501.08,463.00 503.41,463.43 505.56,464.28
             507.72,465.14 509.43,466.44 510.70,468.19
             511.98,469.93 512.62,472.03 512.62,474.50
             512.62,474.50 512.62,498.66 512.62,498.66
             512.62,500.59 513.18,501.56 514.30,501.56
             514.96,501.56 515.77,501.07 516.73,500.09
             516.73,500.09 518.50,501.97 518.50,501.97
             516.94,503.30 515.49,504.31 514.17,504.98
             512.85,505.66 511.27,506.00 509.45,506.00
             507.35,506.00 505.71,505.60 504.53,504.80
             503.35,504.00 502.52,502.76 502.05,501.08
             497.64,504.36 493.29,506.00 488.98,506.00
             485.92,506.00 483.49,505.22 481.69,503.66
             479.88,502.09 478.98,500.09 478.98,497.67
             478.98,495.51 479.53,493.66 480.62,492.14
             481.73,490.62 483.18,489.27 484.98,488.09
             486.79,486.92 489.44,485.43 492.95,483.62
             496.46,481.82 499.35,480.28 501.61,478.98
             501.61,478.98 501.61,472.20 501.61,472.20
             501.61,470.16 501.11,468.62 500.12,467.58
             499.13,466.53 497.65,466.00 495.67,466.00
             493.95,466.00 492.60,466.28 491.62,466.83
             490.66,467.38 490.17,467.98 490.17,468.62 Z
           M 503.19,474.58
           C 503.19,474.58 503.19,493.11 503.19,493.11
             503.19,496.78 503.58,499.51 504.38,501.31
             505.18,503.11 506.74,504.00 509.08,504.00
             510.13,504.00 510.97,504.00 511.61,504.00
             509.69,503.72 508.33,502.98 507.53,501.78
             506.74,500.59 506.34,498.70 506.34,496.14
             506.34,496.14 506.34,474.92 506.34,474.92
             506.34,471.71 505.87,469.51 504.92,468.30
             503.98,467.08 502.37,466.34 500.08,466.09
             501.32,466.66 502.14,467.48 502.56,468.55
             502.98,469.61 503.19,471.62 503.19,474.58 Z
           M 501.61,497.89
           C 501.61,497.89 501.61,482.22 501.61,482.22
             497.52,484.56 494.68,486.68 493.06,488.56
             491.46,490.45 490.66,492.73 490.66,495.39
             490.66,497.18 491.13,498.57 492.09,499.55
             493.05,500.52 494.16,501.00 495.44,501.00
             497.45,501.00 499.50,499.96 501.61,497.89 Z
           M 493.19,504.00
           C 490.29,504.00 487.97,503.42 486.23,502.27
             484.49,501.11 483.62,499.44 483.62,497.25
             483.62,495.67 484.05,494.17 484.89,492.75
             485.73,491.32 487.00,489.73 488.69,487.98
             486.10,489.40 484.10,490.85 482.69,492.33
             481.27,493.81 480.56,495.56 480.56,497.58
             480.56,499.41 481.41,500.95 483.11,502.17
             484.82,503.39 486.68,504.00 488.69,504.00
             490.63,504.00 492.13,504.00 493.19,504.00 Z
           M 488.69,473.81
           C 487.54,473.91 486.66,473.71 486.06,473.23
             485.46,472.75 485.16,472.18 485.16,471.55
             485.16,470.67 485.43,469.89 485.97,469.20
             486.51,468.52 487.45,467.53 488.78,466.23
             486.52,467.25 484.78,468.26 483.56,469.27
             482.35,470.28 481.75,471.42 481.75,472.69
             481.75,473.25 482.08,473.78 482.73,474.27
             483.39,474.76 484.16,475.00 485.05,475.00
             486.58,475.00 487.79,474.61 488.69,473.81 Z
           M 527.81,493.31
           C 527.81,493.31 527.81,466.00 527.81,466.00
             527.81,466.00 522.69,466.00 522.69,466.00
             522.69,466.00 522.69,463.58 522.69,463.58
             525.50,461.55 527.60,459.99 529.00,458.91
             530.41,457.81 531.74,456.59 533.00,455.25
             534.26,453.90 535.34,452.48 536.23,451.00
             536.23,451.00 538.77,451.00 538.77,451.00
             538.77,451.00 538.77,463.00 538.77,463.00
             538.77,463.00 550.64,463.00 550.64,463.00
             550.64,463.00 550.64,466.00 550.64,466.00
             550.64,466.00 538.77,466.00 538.77,466.00
             538.77,466.00 538.77,494.70 538.77,494.70
             538.77,496.82 539.02,498.40 539.53,499.44
             540.04,500.48 540.91,501.00 542.12,501.00
             543.27,501.00 544.33,500.68 545.30,500.05
             546.27,499.41 547.46,498.42 548.86,497.08
             548.86,497.08 550.64,498.94 550.64,498.94
             548.24,501.32 546.05,503.10 544.05,504.27
             542.05,505.42 539.77,506.00 537.19,506.00
             534.73,506.00 532.81,505.47 531.44,504.41
             530.07,503.34 529.12,501.88 528.59,500.05
             528.07,498.20 527.81,495.96 527.81,493.31 Z
           M 532.50,458.00
           C 532.50,458.00 529.34,460.59 529.34,460.59
             529.34,460.59 529.34,491.98 529.34,491.98
             529.34,496.18 529.89,499.23 530.98,501.14
             532.09,503.05 534.06,504.00 536.91,504.00
             538.41,504.00 539.91,504.00 541.41,504.00
             538.50,504.09 536.29,503.42 534.77,501.97
             533.25,500.51 532.50,498.09 532.50,494.69
             532.50,494.69 532.50,458.00 532.50,458.00 Z
           M 555.17,484.66
           C 555.17,480.65 556.13,476.98 558.06,473.67
             559.99,470.35 562.62,467.74 565.95,465.84
             569.29,463.95 572.98,463.00 577.03,463.00
             580.99,463.00 584.60,463.93 587.88,465.78
             591.14,467.62 593.72,470.17 595.59,473.42
             597.48,476.67 598.42,480.29 598.42,484.27
             598.42,487.30 597.85,490.17 596.72,492.88
             595.59,495.59 594.03,497.92 592.03,499.88
             590.04,501.84 587.75,503.34 585.17,504.41
             582.59,505.47 579.81,506.00 576.84,506.00
             572.85,506.00 569.21,505.11 565.91,503.33
             562.60,501.55 559.99,499.04 558.06,495.80
             556.13,492.56 555.17,488.84 555.17,484.66 Z
           M 572.16,503.91
           C 568.01,501.47 564.90,498.59 562.83,495.27
             560.75,491.93 559.72,488.28 559.72,484.30
             559.72,481.28 560.21,478.62 561.20,476.34
             562.19,474.06 563.49,472.10 565.09,470.45
             566.71,468.81 568.73,467.11 571.16,465.34
             567.94,466.46 565.24,468.02 563.06,470.02
             560.89,472.02 559.30,474.30 558.28,476.88
             557.26,479.45 556.75,482.17 556.75,485.05
             556.75,487.14 557.08,489.20 557.75,491.23
             558.43,493.27 559.41,495.10 560.70,496.73
             561.99,498.37 563.59,499.81 565.50,501.05
             567.41,502.28 569.63,503.23 572.16,503.91 Z
           M 567.03,482.05
           C 567.03,488.57 568.02,493.70 570.00,497.42
             571.98,501.14 574.55,503.00 577.70,503.00
             579.30,503.00 580.78,502.37 582.16,501.09
             583.53,499.82 584.62,497.94 585.44,495.44
             586.25,492.94 586.66,489.88 586.66,486.27
             586.66,479.89 585.77,474.92 584.00,471.36
             582.23,467.79 579.78,466.00 576.66,466.00
             573.62,466.00 571.26,467.34 569.56,470.03
             567.88,472.71 567.03,476.71 567.03,482.05 Z
           M 583.92,501.33
           C 586.32,500.08 588.15,498.09 589.42,495.38
             590.70,492.65 591.34,489.31 591.34,485.36
             591.34,475.64 588.22,469.30 581.97,466.33
             584.20,468.48 585.80,471.11 586.77,474.22
             587.74,477.34 588.23,481.52 588.23,486.78
             588.23,490.12 587.88,492.91 587.16,495.16
             586.44,497.41 585.36,499.46 583.92,501.33 Z
           M 621.16,463.00
           C 621.16,463.00 621.16,469.78 621.16,469.78
             623.61,467.23 625.49,465.46 626.80,464.48
             628.11,463.50 629.69,463.00 631.55,463.00
             633.14,463.00 634.48,463.56 635.58,464.67
             636.68,465.78 637.23,467.17 637.23,468.86
             637.23,470.61 636.74,472.07 635.75,473.25
             634.76,474.42 633.52,475.00 632.02,475.00
             631.35,475.00 630.61,474.86 629.81,474.58
             629.02,474.30 628.35,473.93 627.81,473.47
             627.49,473.19 627.15,472.89 626.80,472.58
             626.45,472.26 626.14,472.01 625.88,471.83
             625.60,471.65 625.30,471.56 624.98,471.56
             624.38,471.56 623.78,471.81 623.19,472.31
             622.60,472.81 621.93,473.52 621.16,474.42
             621.16,474.42 621.16,497.00 621.16,497.00
             621.16,498.62 621.38,499.77 621.84,500.45
             622.31,501.14 623.03,501.57 624.00,501.75
             624.97,501.92 626.66,502.00 629.09,502.00
             629.09,502.00 629.09,505.00 629.09,505.00
             629.09,505.00 603.41,505.00 603.41,505.00
             603.41,505.00 603.41,502.00 603.41,502.00
             603.41,502.00 604.70,502.00 604.70,502.00
             608.40,502.00 610.25,500.55 610.25,497.66
             610.25,497.66 610.25,476.44 610.25,476.44
             610.25,472.81 607.97,470.32 603.41,468.97
             603.41,468.97 603.41,467.41 603.41,467.41
             603.41,467.41 618.81,463.00 618.81,463.00
             618.81,463.00 621.16,463.00 621.16,463.00 Z
           M 611.83,476.81
           C 611.83,476.81 611.83,498.00 611.83,498.00
             611.83,499.05 611.65,499.84 611.30,500.34
             610.94,500.86 610.43,501.41 609.77,502.00
             611.59,501.84 612.89,501.37 613.69,500.56
             614.49,499.76 614.89,498.37 614.89,496.38
             614.89,496.38 614.89,476.42 614.89,476.42
             614.89,473.71 614.41,471.75 613.45,470.52
             612.49,469.29 610.98,468.67 608.91,468.67
             608.75,468.67 608.39,468.70 607.84,468.77
             607.30,468.83 606.94,468.86 606.75,468.86
             610.13,470.38 611.83,473.03 611.83,476.81 Z
           M 624.36,469.78
           C 625.22,469.78 626.09,470.07 626.95,470.64
             628.92,472.21 630.58,473.00 631.92,473.00
             633.58,473.00 634.79,471.93 635.56,469.78
             634.66,470.23 634.01,470.45 633.59,470.45
             632.63,470.45 631.68,470.13 630.73,469.48
             629.52,468.50 628.51,468.00 627.72,468.00
             626.95,468.00 625.83,468.59 624.36,469.78 Z" />
</svg>
