<?xml version="1.0" encoding="UTF-8" standalone="no"?>
<!DOCTYPE svg PUBLIC "-//W3C//DTD SVG 20010904//EN"
              "http://www.w3.org/TR/2001/REC-SVG-20010904/DTD/svg10.dtd">

<svg xmlns="http://www.w3.org/2000/svg"
     width="26.6667in" height="15in"
     viewBox="0 0 1920 1080">
  <path id="Unnamed"
        fill="none" stroke="black" stroke-width="1"
        d="M 711.67,318.67
           C 711.67,318.67 657.00,312.33 641.33,335.33
             640.25,340.50 642.38,343.19 642.38,343.19
             642.38,343.19 700.92,340.63 713.11,342.34
             725.30,344.05 785.31,360.39 804.76,392.65
             777.15,403.99 759.79,408.27 757.47,413.78
             755.15,419.30 758.17,422.58 745.50,433.90
             732.84,445.22 732.52,432.72 709.75,451.39
             701.36,478.27 697.87,477.72 689.25,485.60
             680.64,493.48 695.57,498.19 655.28,518.61
             690.05,534.62 691.57,533.14 696.79,552.72
             722.26,555.08 750.26,555.48 749.18,560.97
             742.34,584.37 741.58,636.87 724.73,696.13
             747.46,680.46 747.86,686.96 744.68,699.42
             741.50,711.87 735.49,747.79 738.35,757.33
             784.67,735.50 785.19,734.01 792.08,742.11
             800.48,748.73 827.90,731.29 842.09,717.99
             850.42,718.78 854.30,727.17 858.45,716.22
             875.27,705.80 895.95,682.09 900.92,684.17
             905.89,686.24 919.69,700.10 926.79,716.87
             939.66,702.72 944.87,687.80 959.77,718.35
             974.66,748.90 974.16,760.89 974.16,760.89
             974.16,760.89 986.32,749.73 990.71,745.80
             995.10,741.86 1035.18,782.77 1080.41,790.09
             1125.42,813.07 1134.05,815.87 1123.71,793.05
             1113.37,770.23 1137.36,794.58 1187.35,795.30
             1201.01,796.16 1202.72,793.18 1202.72,793.18
             1202.72,793.18 1157.76,743.20 1155.59,732.17
             1151.08,721.43 1165.25,732.97 1173.29,729.75
             1181.34,726.54 1145.11,649.67 1151.20,643.43
             1160.56,641.23 1172.89,641.74 1173.93,638.75
             1174.98,635.77 1136.99,611.22 1140.11,602.93
             1147.88,600.16 1142.37,591.54 1142.37,591.54
             1142.37,591.54 1119.96,556.67 1122.92,553.25
             1125.88,549.84 1137.84,552.74 1138.08,548.56
             1138.32,544.38 1114.70,530.04 1116.62,523.52
             1122.14,519.06 1129.78,518.44 1142.47,521.53
             1155.15,524.62 1199.57,533.63 1199.75,533.81
             1199.93,534.00 1172.80,510.88 1170.15,505.93
             1169.72,497.56 1187.68,488.18 1193.15,486.98
             1198.62,485.79 1230.00,466.42 1231.86,462.99
             1233.73,459.57 1247.22,457.21 1218.45,447.53
             1230.96,437.34 1278.95,413.30 1279.23,406.03
             1279.52,398.76 1266.04,400.21 1262.95,400.16
             1259.86,400.12 1222.42,398.67 1222.44,397.58
             1222.46,396.49 1215.76,394.03 1227.09,390.19
             1238.42,386.35 1198.51,379.96 1198.51,379.96
             1198.51,379.96 1158.29,369.93 1164.00,364.19
             1153.04,355.12 1133.42,353.75 1133.25,353.56
             1133.07,353.38 1065.47,350.04 1066.46,344.60
             1067.45,339.16 1080.72,326.44 1080.77,322.99
             1080.82,319.53 1062.70,328.00 1059.95,329.60
             1057.20,331.19 1031.74,343.38 1031.20,343.55
             1030.65,343.72 1021.08,351.40 1024.08,345.27
             1027.08,339.13 1029.64,325.34 1028.21,323.69
             1026.78,322.03 1013.67,323.11 1012.37,312.37
             1011.07,301.62 1012.58,285.09 1010.05,284.15
             1007.52,283.20 979.20,292.61 976.29,292.75
             973.37,292.89 979.63,274.98 982.04,272.29
             984.44,269.60 965.81,275.33 962.87,277.11
             959.94,278.88 897.88,307.45 873.47,323.46
             865.65,323.71 860.71,312.91 857.65,310.50
             854.60,308.10 849.35,306.20 846.19,311.43
             843.38,316.66 821.41,340.17 820.61,369.98
             785.54,343.47 752.41,333.17 752.41,333.17
             752.41,333.17 711.67,318.67 711.67,318.67 Z" />
</svg>
