<?xml version="1.0" encoding="UTF-8" standalone="no"?>
<!DOCTYPE svg PUBLIC "-//W3C//DTD SVG 20010904//EN"
              "http://www.w3.org/TR/2001/REC-SVG-20010904/DTD/svg10.dtd">

<svg xmlns="http://www.w3.org/2000/svg"
     width="26.6667in" height="15in"
     viewBox="0 0 1920 1080">
  <path id="Unnamed"
        fill="none" stroke="black" stroke-width="1"
        d="M 1208.30,761.05
           C 1222.46,762.71 1241.46,765.07 1257.92,756.31
             1273.04,746.21 1278.18,736.62 1277.62,736.81
             1277.62,736.81 1219.08,739.37 1206.89,737.66
             1194.70,735.95 1134.69,719.61 1115.24,687.35
             1142.85,676.01 1160.21,671.73 1162.53,666.22
             1164.85,660.70 1161.83,657.42 1174.50,646.10
             1187.16,634.78 1187.48,647.28 1210.25,628.61
             1218.64,601.73 1222.13,602.28 1230.75,594.40
             1239.36,586.52 1224.43,581.81 1264.72,561.39
             1229.95,545.38 1228.43,546.86 1223.21,527.28
             1197.74,524.92 1169.74,524.52 1170.82,519.03
             1177.66,495.63 1178.42,443.13 1195.27,383.87
             1172.54,399.54 1172.14,393.04 1175.32,380.58
             1178.49,368.13 1184.51,332.21 1181.65,322.67
             1135.33,344.50 1134.81,345.99 1127.92,337.89
             1119.52,331.27 1092.10,348.71 1077.91,362.01
             1069.58,361.22 1065.70,352.83 1061.55,363.78
             1044.73,374.20 1024.05,397.91 1019.08,395.83
             1014.11,393.76 1000.31,379.90 993.21,363.13
             980.34,377.28 975.13,392.20 960.23,361.65
             945.34,331.10 945.84,319.11 945.84,319.11
             945.84,319.11 933.68,330.27 929.29,334.20
             924.90,338.14 884.82,297.23 839.59,289.91
             794.58,266.93 785.95,264.13 796.29,286.95
             806.63,309.77 782.64,285.42 732.65,284.70
             718.99,283.84 717.28,286.82 717.28,286.82
             717.28,286.82 762.24,336.80 764.41,347.83
             768.92,358.57 754.75,347.03 746.71,350.25
             738.66,353.46 774.89,430.33 768.80,436.57
             759.44,438.77 747.11,438.26 746.07,441.25
             745.02,444.23 783.01,468.78 779.89,477.07
             772.12,479.84 777.63,488.46 777.63,488.46
             777.63,488.46 800.04,523.33 797.08,526.75
             794.12,530.16 782.16,527.26 781.92,531.44
             781.68,535.62 805.30,549.96 803.38,556.48
             797.86,560.94 790.22,561.56 777.53,558.47
             764.85,555.38 720.43,546.37 720.25,546.19
             720.07,546.00 747.20,569.12 749.85,574.07
             750.28,582.44 732.32,591.82 726.85,593.02
             721.38,594.21 690.00,613.58 688.14,617.01
             686.27,620.43 672.78,622.79 701.55,632.47
             689.04,642.66 641.05,666.70 640.77,673.97
             640.48,681.24 653.96,679.79 657.05,679.84
             660.14,679.88 697.58,681.33 697.56,682.42
             697.54,683.51 704.24,685.97 692.91,689.81
             681.58,693.65 721.49,700.04 721.49,700.04
             721.49,700.04 761.71,710.07 756.00,715.81
             766.96,724.88 786.58,726.25 786.75,726.44
             786.93,726.62 854.53,729.96 853.54,735.40
             852.55,740.84 839.28,753.56 839.23,757.01
             839.18,760.47 857.30,752.00 860.05,750.40
             862.80,748.81 888.26,736.62 888.80,736.45
             889.35,736.28 898.92,728.60 895.92,734.73
             892.92,740.87 890.36,754.66 891.79,756.31
             893.22,757.97 906.33,756.89 907.63,767.63
             908.93,778.38 907.42,794.91 909.95,795.85
             912.48,796.80 940.80,787.39 943.71,787.25
             946.63,787.11 940.37,805.02 937.96,807.71
             935.56,810.40 954.19,804.67 957.13,802.89
             960.06,801.12 1022.12,772.55 1046.53,756.54
             1054.35,756.29 1059.29,767.09 1062.35,769.50
             1065.40,771.90 1070.65,773.80 1073.81,768.57
             1076.62,763.34 1098.59,739.83 1099.39,710.02
             1134.46,736.53 1163.04,746.94 1163.04,746.94
             1163.04,746.94 1188.18,756.76 1208.30,761.05 Z" />
</svg>
