<?xml version="1.0" encoding="UTF-8" standalone="no"?>
<!DOCTYPE svg PUBLIC "-//W3C//DTD SVG 20010904//EN"
              "http://www.w3.org/TR/2001/REC-SVG-20010904/DTD/svg10.dtd">

<svg xmlns="http://www.w3.org/2000/svg"
     width="26.6667in" height="15in"
     viewBox="0 0 1920 1080">
  <path id="Unnamed"
        fill="none" stroke="black" stroke-width="1"
        d="M 717.70,761.05
           C 703.54,762.71 684.54,765.07 668.08,756.31
             652.96,746.21 647.82,736.62 648.38,736.81
             648.38,736.81 706.92,739.37 719.11,737.66
             731.30,735.95 791.31,719.61 810.76,687.35
             783.15,676.01 765.79,671.73 763.47,666.22
             761.15,660.70 764.17,657.42 751.50,646.10
             738.84,634.78 738.52,647.28 715.75,628.61
             707.36,601.73 703.87,602.28 695.25,594.40
             686.64,586.52 701.57,581.81 661.28,561.39
             696.05,545.38 697.57,546.86 702.79,527.28
             728.26,524.92 756.26,524.52 755.18,519.03
             748.34,495.63 747.58,443.13 730.73,383.87
             753.46,399.54 753.86,393.04 750.68,380.58
             747.51,368.13 741.49,332.21 744.35,322.67
             790.67,344.50 791.19,345.99 798.08,337.89
             806.48,331.27 833.90,348.71 848.09,362.01
             856.42,361.22 860.30,352.83 864.45,363.78
             881.27,374.20 901.95,397.91 906.92,395.83
             911.89,393.76 925.69,379.90 932.79,363.13
             945.66,377.28 950.87,392.20 965.77,361.65
             980.66,331.10 980.16,319.11 980.16,319.11
             980.16,319.11 992.32,330.27 996.71,334.20
             1001.10,338.14 1041.18,297.23 1086.41,289.91
             1131.42,266.93 1140.05,264.13 1129.71,286.95
             1119.37,309.77 1143.36,285.42 1193.35,284.70
             1207.01,283.84 1208.72,286.82 1208.72,286.82
             1208.72,286.82 1163.76,336.80 1161.59,347.83
             1157.08,358.57 1171.25,347.03 1179.29,350.25
             1187.34,353.46 1151.11,430.33 1157.20,436.57
             1166.56,438.77 1178.89,438.26 1179.93,441.25
             1180.98,444.23 1142.99,468.78 1146.11,477.07
             1153.88,479.84 1148.37,488.46 1148.37,488.46
             1148.37,488.46 1125.96,523.33 1128.92,526.75
             1131.88,530.16 1143.84,527.26 1144.08,531.44
             1144.32,535.62 1120.70,549.96 1122.62,556.48
             1128.14,560.94 1135.78,561.56 1148.47,558.47
             1161.15,555.38 1205.57,546.37 1205.75,546.19
             1205.93,546.00 1178.80,569.12 1176.15,574.07
             1175.72,582.44 1193.68,591.82 1199.15,593.02
             1204.62,594.21 1236.00,613.58 1237.86,617.01
             1239.73,620.43 1253.22,622.79 1224.45,632.47
             1236.96,642.66 1284.95,666.70 1285.23,673.97
             1285.52,681.24 1272.04,679.79 1268.95,679.84
             1265.86,679.88 1228.42,681.33 1228.44,682.42
             1228.46,683.51 1221.76,685.97 1233.09,689.81
             1244.42,693.65 1204.51,700.04 1204.51,700.04
             1204.51,700.04 1164.29,710.07 1170.00,715.81
             1159.04,724.88 1139.42,726.25 1139.25,726.44
             1139.07,726.62 1071.47,729.96 1072.46,735.40
             1073.45,740.84 1086.72,753.56 1086.77,757.01
             1086.82,760.47 1068.70,752.00 1065.95,750.40
             1063.20,748.81 1037.74,736.62 1037.20,736.45
             1036.65,736.28 1027.08,728.60 1030.08,734.73
             1033.08,740.87 1035.64,754.66 1034.21,756.31
             1032.78,757.97 1019.67,756.89 1018.37,767.63
             1017.07,778.38 1018.58,794.91 1016.05,795.85
             1013.52,796.80 985.20,787.39 982.29,787.25
             979.37,787.11 985.63,805.02 988.04,807.71
             990.44,810.40 971.81,804.67 968.87,802.89
             965.94,801.12 903.88,772.55 879.47,756.54
             871.65,756.29 866.71,767.09 863.65,769.50
             860.60,771.90 855.35,773.80 852.19,768.57
             849.38,763.34 827.41,739.83 826.61,710.02
             791.54,736.53 762.96,746.94 762.96,746.94
             762.96,746.94 737.82,756.76 717.70,761.05 Z" />
</svg>
