<?xml version="1.0" encoding="UTF-8" standalone="no"?>
<!DOCTYPE svg PUBLIC "-//W3C//DTD SVG 20010904//EN"
              "http://www.w3.org/TR/2001/REC-SVG-20010904/DTD/svg10.dtd">

<svg xmlns="http://www.w3.org/2000/svg"
     width="26.6667in" height="15in"
     viewBox="0 0 1920 1080">
  <path id="EmailTextPathBigger"
        fill="none" stroke="black" stroke-width="1"
        d="M 893.55,625.00
           C 893.55,625.00 890.11,641.00 890.11,641.00
             890.11,641.00 887.19,641.00 887.19,641.00
             887.19,636.43 886.38,633.12 884.78,631.08
             883.18,629.03 880.11,628.00 875.59,628.00
             875.59,628.00 863.61,628.00 863.61,628.00
             863.61,628.00 858.88,652.00 858.88,652.00
             858.88,652.00 860.64,652.00 860.64,652.00
             864.50,652.00 867.51,651.39 869.66,650.16
             871.81,648.92 873.46,646.20 874.61,642.00
             874.61,642.00 877.61,642.00 877.61,642.00
             877.61,642.00 872.67,666.00 872.67,666.00
             872.67,666.00 869.70,666.00 869.70,666.00
             869.88,664.99 869.97,664.00 869.97,663.02
             869.97,661.51 869.61,660.00 868.89,658.48
             868.17,656.98 867.24,656.02 866.09,655.61
             864.95,655.20 863.27,655.00 861.06,655.00
             861.06,655.00 858.23,655.00 858.23,655.00
             858.23,655.00 852.78,680.00 852.78,680.00
             852.78,680.00 860.64,680.00 860.64,680.00
             863.91,680.00 866.80,679.73 869.30,679.20
             871.80,678.67 874.52,677.24 877.42,674.91
             880.33,672.56 883.08,668.93 885.69,664.00
             885.69,664.00 888.70,664.00 888.70,664.00
             888.70,664.00 884.02,683.00 884.02,683.00
             884.02,683.00 831.67,683.00 831.67,683.00
             831.67,683.00 832.28,680.00 832.28,680.00
             832.28,680.00 839.06,680.00 839.06,680.00
             839.06,680.00 849.89,628.00 849.89,628.00
             849.89,628.00 841.98,628.00 841.98,628.00
             841.98,628.00 842.59,625.00 842.59,625.00
             842.59,625.00 893.55,625.00 893.55,625.00 Z
           M 895.77,683.00
           C 895.77,683.00 903.77,652.00 903.77,652.00
             903.77,652.00 896.97,652.00 896.97,652.00
             896.97,652.00 897.61,649.00 897.61,649.00
             897.61,649.00 902.77,649.00 902.77,649.00
             905.35,649.00 907.52,648.91 909.30,648.72
             909.30,648.72 914.42,648.00 914.42,648.00
             914.42,648.00 916.27,648.00 916.27,648.00
             916.27,648.00 914.33,656.20 914.33,656.20
             914.33,656.20 914.50,656.38 914.50,656.38
             918.91,650.79 923.55,648.00 928.39,648.00
             933.80,648.00 936.53,650.69 936.59,656.06
             939.97,652.52 942.70,650.29 944.80,649.38
             946.89,648.46 948.91,648.00 950.86,648.00
             953.52,648.00 955.54,648.78 956.92,650.33
             958.32,651.87 959.02,653.64 959.02,655.64
             959.02,657.10 958.73,659.00 958.16,661.33
             958.16,661.33 955.11,672.81 955.11,672.81
             954.37,676.09 954.00,678.06 954.00,678.70
             954.00,679.57 954.41,680.00 955.23,680.00
             958.02,680.00 960.95,676.67 964.05,670.00
             964.05,670.00 966.58,670.42 966.58,670.42
             962.48,679.48 956.91,684.00 949.86,684.00
             947.86,684.00 946.20,683.40 944.88,682.20
             943.56,681.00 942.91,679.50 942.91,677.70
             942.91,676.09 943.13,674.45 943.59,672.77
             943.59,672.77 947.33,658.94 947.33,658.94
             947.96,656.59 948.28,655.07 948.28,654.38
             948.28,652.79 947.75,652.00 946.69,652.00
             946.28,652.00 945.84,652.09 945.36,652.28
             944.87,652.47 944.32,652.75 943.72,653.12
             943.14,653.48 942.53,653.92 941.88,654.45
             941.22,655.00 940.50,655.62 939.73,656.31
             939.02,657.01 938.24,657.79 937.41,658.66
             936.29,659.78 935.45,661.38 934.88,663.45
             934.88,663.45 929.80,683.00 929.80,683.00
             929.80,683.00 918.28,683.00 918.28,683.00
             918.28,683.00 923.02,665.25 923.02,665.25
             924.42,660.56 925.24,657.65 925.48,656.50
             925.72,655.36 925.84,654.65 925.84,654.39
             925.84,652.80 925.34,652.00 924.34,652.00
             923.46,652.00 922.48,652.34 921.42,653.00
             920.37,653.67 919.33,654.48 918.31,655.45
             917.29,656.41 916.24,657.48 915.16,658.67
             915.16,658.67 913.78,660.23 913.78,660.23
             913.38,660.73 913.14,661.10 913.09,661.36
             913.09,661.36 907.28,683.00 907.28,683.00
             907.28,683.00 895.77,683.00 895.77,683.00 Z
           M 1000.75,649.00
           C 1000.75,649.00 1012.31,649.00 1012.31,649.00
             1012.31,649.00 1006.39,672.39 1006.39,672.39
             1005.87,674.71 1005.61,676.21 1005.61,676.88
             1005.61,678.29 1006.08,679.00 1007.03,679.00
             1008.89,679.00 1010.94,676.00 1013.17,670.00
             1013.17,670.00 1015.45,671.67 1015.45,671.67
             1012.07,679.89 1007.79,684.00 1002.61,684.00
             998.60,684.00 995.99,681.94 994.78,677.81
             991.57,681.94 987.85,684.00 983.61,684.00
             980.11,684.00 977.16,682.80 974.77,680.39
             972.38,677.98 971.19,674.91 971.19,671.16
             971.19,665.16 973.35,659.80 977.67,655.08
             982.00,650.36 986.83,648.00 992.16,648.00
             995.77,648.00 998.23,649.70 999.55,653.11
             999.55,653.11 999.72,653.11 999.72,653.11
             999.72,653.11 1000.75,649.00 1000.75,649.00 Z
           M 993.03,652.00
           C 991.36,652.00 990.05,652.67 989.11,654.02
             988.17,655.35 986.80,659.34 984.98,665.98
             983.18,672.63 982.28,676.64 982.28,678.02
             982.28,680.01 983.40,681.00 985.64,681.00
             987.38,681.00 989.23,680.07 991.19,678.20
             993.16,676.34 994.80,672.73 996.14,667.36
             997.47,661.98 998.14,658.44 998.14,656.72
             998.14,655.54 997.66,654.46 996.72,653.48
             995.77,652.50 994.54,652.00 993.03,652.00 Z
           M 1030.36,633.94
           C 1030.36,632.30 1030.97,630.91 1032.20,629.75
             1033.44,628.59 1034.92,628.00 1036.64,628.00
             1038.30,628.00 1039.73,628.59 1040.95,629.75
             1042.17,630.91 1042.78,632.30 1042.78,633.94
             1042.78,635.59 1042.18,637.02 1040.97,638.22
             1039.77,639.41 1038.33,640.00 1036.64,640.00
             1034.92,640.00 1033.44,639.41 1032.20,638.22
             1030.97,637.02 1030.36,635.59 1030.36,633.94 Z
           M 1040.77,648.00
           C 1040.77,648.00 1033.81,675.39 1033.81,675.39
             1033.78,675.51 1033.70,675.87 1033.56,676.47
             1033.44,677.06 1033.38,677.49 1033.38,677.75
             1033.38,678.59 1033.76,679.00 1034.53,679.00
             1036.94,679.00 1039.24,676.00 1041.45,670.00
             1041.45,670.00 1043.77,671.67 1043.77,671.67
             1040.87,679.89 1036.32,684.00 1030.11,684.00
             1024.66,684.00 1021.94,682.08 1021.94,678.23
             1021.94,677.11 1022.16,675.66 1022.62,673.88
             1022.62,673.88 1028.44,652.00 1028.44,652.00
             1028.44,652.00 1023.06,652.00 1023.06,652.00
             1023.06,652.00 1023.70,649.00 1023.70,649.00
             1023.70,649.00 1029.69,649.00 1029.69,649.00
             1031.57,649.00 1033.60,648.84 1035.78,648.50
             1035.78,648.50 1038.66,648.00 1038.66,648.00
             1038.66,648.00 1040.77,648.00 1040.77,648.00 Z
           M 1068.77,670.00
           C 1068.77,670.00 1071.12,670.81 1071.12,670.81
             1067.26,679.61 1062.42,684.00 1056.61,684.00
             1054.43,684.00 1052.71,683.41 1051.45,682.25
             1050.19,681.09 1049.56,679.64 1049.56,677.92
             1049.56,676.57 1049.98,674.35 1050.81,671.27
             1050.81,671.27 1062.31,628.00 1062.31,628.00
             1062.31,628.00 1056.44,628.00 1056.44,628.00
             1056.44,628.00 1057.17,625.00 1057.17,625.00
             1057.17,625.00 1063.39,625.00 1063.39,625.00
             1064.96,625.00 1067.02,624.82 1069.58,624.47
             1069.58,624.47 1073.14,624.00 1073.14,624.00
             1073.14,624.00 1074.91,624.00 1074.91,624.00
             1074.91,624.00 1061.62,674.33 1061.62,674.33
             1061.23,675.58 1061.03,676.66 1061.03,677.56
             1061.03,678.52 1061.43,679.00 1062.23,679.00
             1063.90,679.00 1066.08,676.00 1068.77,670.00 Z" />
</svg>
