<?xml version="1.0" encoding="UTF-8" standalone="no"?>
<!DOCTYPE svg PUBLIC "-//W3C//DTD SVG 20010904//EN"
              "http://www.w3.org/TR/2001/REC-SVG-20010904/DTD/svg10.dtd">

<svg xmlns="http://www.w3.org/2000/svg"
     width="26.6667in" height="15in"
     viewBox="0 0 1920 1080">
  <path id="EmailTextPath"
        fill="black" stroke="black" stroke-width="1"
        d="M 913.94,639.00
           C 913.94,639.00 911.41,651.00 911.41,651.00
             911.41,651.00 909.25,651.00 909.25,651.00
             909.25,647.48 908.66,644.93 907.47,643.36
             906.28,641.79 904.02,641.00 900.67,641.00
             900.67,641.00 891.81,641.00 891.81,641.00
             891.81,641.00 888.33,659.00 888.33,659.00
             888.33,659.00 889.62,659.00 889.62,659.00
             892.48,659.00 894.70,658.57 896.28,657.70
             897.88,656.84 899.09,654.94 899.94,652.00
             899.94,652.00 902.17,652.00 902.17,652.00
             902.17,652.00 898.52,669.00 898.52,669.00
             898.52,669.00 896.33,669.00 896.33,669.00
             896.45,668.27 896.52,667.55 896.52,666.83
             896.52,665.73 896.25,664.64 895.72,663.55
             895.20,662.45 894.51,661.75 893.66,661.45
             892.81,661.15 891.58,661.00 889.95,661.00
             889.95,661.00 887.86,661.00 887.86,661.00
             887.86,661.00 883.83,680.00 883.83,680.00
             883.83,680.00 889.64,680.00 889.64,680.00
             892.05,680.00 894.18,679.80 896.03,679.41
             897.88,679.00 899.88,677.92 902.03,676.17
             904.18,674.42 906.21,671.70 908.14,668.00
             908.14,668.00 910.36,668.00 910.36,668.00
             910.36,668.00 906.89,682.00 906.89,682.00
             906.89,682.00 868.23,682.00 868.23,682.00
             868.23,682.00 868.67,680.00 868.67,680.00
             868.67,680.00 873.70,680.00 873.70,680.00
             873.70,680.00 881.69,641.00 881.69,641.00
             881.69,641.00 875.86,641.00 875.86,641.00
             875.86,641.00 876.30,639.00 876.30,639.00
             876.30,639.00 913.94,639.00 913.94,639.00 Z
           M 915.52,682.00
           C 915.52,682.00 921.42,659.00 921.42,659.00
             921.42,659.00 916.41,659.00 916.41,659.00
             916.41,659.00 916.88,657.00 916.88,657.00
             916.88,657.00 920.69,657.00 920.69,657.00
             922.59,657.00 924.20,656.91 925.52,656.72
             925.52,656.72 929.30,656.00 929.30,656.00
             929.30,656.00 930.66,656.00 930.66,656.00
             930.66,656.00 929.23,662.11 929.23,662.11
             929.23,662.11 929.36,662.23 929.36,662.23
             932.62,658.08 936.04,656.00 939.61,656.00
             943.61,656.00 945.63,658.03 945.67,662.09
             948.17,659.42 950.19,657.73 951.73,657.05
             953.27,656.35 954.77,656.00 956.22,656.00
             958.19,656.00 959.68,656.58 960.70,657.73
             961.72,658.88 962.23,660.20 962.23,661.69
             962.23,662.77 962.02,664.18 961.61,665.92
             961.61,665.92 959.36,674.45 959.36,674.45
             958.80,676.98 958.53,678.50 958.53,679.00
             958.53,679.67 958.84,680.00 959.45,680.00
             961.50,680.00 963.67,677.67 965.95,673.00
             965.95,673.00 967.83,673.31 967.83,673.31
             964.80,679.77 960.69,683.00 955.48,683.00
             954.00,683.00 952.77,682.54 951.80,681.61
             950.83,680.68 950.34,679.53 950.34,678.16
             950.34,676.91 950.51,675.66 950.84,674.42
             950.84,674.42 953.61,664.16 953.61,664.16
             954.08,662.42 954.31,661.29 954.31,660.77
             954.31,659.59 953.92,659.00 953.14,659.00
             952.84,659.00 952.51,659.07 952.16,659.22
             951.79,659.36 951.38,659.56 950.94,659.84
             950.52,660.11 950.07,660.44 949.58,660.84
             949.09,661.24 948.56,661.70 948.00,662.22
             947.47,662.75 946.89,663.34 946.28,663.97
             945.46,664.81 944.83,666.01 944.41,667.56
             944.41,667.56 940.66,682.00 940.66,682.00
             940.66,682.00 932.16,682.00 932.16,682.00
             932.16,682.00 935.64,668.89 935.64,668.89
             936.68,665.36 937.29,663.17 937.47,662.33
             937.64,661.48 937.73,660.96 937.73,660.77
             937.73,659.59 937.36,659.00 936.62,659.00
             935.97,659.00 935.25,659.25 934.47,659.73
             933.69,660.23 932.92,660.83 932.17,661.55
             931.42,662.27 930.64,663.06 929.83,663.94
             929.83,663.94 928.81,665.09 928.81,665.09
             928.52,665.46 928.35,665.73 928.31,665.92
             928.31,665.92 924.03,682.00 924.03,682.00
             924.03,682.00 915.52,682.00 915.52,682.00 Z
           M 992.45,657.00
           C 992.45,657.00 1001.00,657.00 1001.00,657.00
             1001.00,657.00 996.62,674.16 996.62,674.16
             996.24,675.86 996.05,676.95 996.05,677.44
             996.05,678.48 996.39,679.00 997.09,679.00
             998.47,679.00 999.98,677.00 1001.62,673.00
             1001.62,673.00 1003.31,674.23 1003.31,674.23
             1000.81,680.08 997.65,683.00 993.83,683.00
             990.86,683.00 988.93,681.55 988.05,678.64
             985.68,681.55 982.93,683.00 979.80,683.00
             977.21,683.00 975.04,682.10 973.27,680.30
             971.50,678.48 970.62,676.17 970.62,673.36
             970.62,668.86 972.22,664.84 975.41,661.31
             978.60,657.77 982.17,656.00 986.11,656.00
             988.77,656.00 990.58,657.26 991.56,659.77
             991.56,659.77 991.69,659.77 991.69,659.77
             991.69,659.77 992.45,657.00 992.45,657.00 Z
           M 986.73,659.00
           C 985.52,659.00 984.55,659.51 983.86,660.53
             983.16,661.54 982.14,664.57 980.81,669.61
             979.48,674.65 978.81,677.70 978.81,678.73
             978.81,680.25 979.63,681.00 981.28,681.00
             982.57,681.00 983.94,680.30 985.39,678.91
             986.84,677.50 988.05,674.73 989.03,670.58
             990.02,666.42 990.52,663.72 990.52,662.47
             990.52,661.59 990.16,660.80 989.47,660.08
             988.77,659.36 987.86,659.00 986.73,659.00 Z
           M 1013.88,645.45
           C 1013.88,644.23 1014.33,643.18 1015.23,642.31
             1016.15,641.44 1017.24,641.00 1018.52,641.00
             1019.73,641.00 1020.79,641.44 1021.69,642.31
             1022.59,643.18 1023.05,644.23 1023.05,645.45
             1023.05,646.70 1022.60,647.78 1021.70,648.67
             1020.82,649.56 1019.75,650.00 1018.52,650.00
             1017.24,650.00 1016.15,649.56 1015.23,648.67
             1014.33,647.78 1013.88,646.70 1013.88,645.45 Z
           M 1021.55,656.00
           C 1021.55,656.00 1016.41,677.20 1016.41,677.20
             1016.38,677.30 1016.33,677.58 1016.23,678.05
             1016.14,678.51 1016.09,678.84 1016.09,679.03
             1016.09,679.68 1016.38,680.00 1016.95,680.00
             1018.73,680.00 1020.44,677.67 1022.06,673.00
             1022.06,673.00 1023.77,674.23 1023.77,674.23
             1021.63,680.08 1018.27,683.00 1013.69,683.00
             1009.66,683.00 1007.66,681.51 1007.66,678.53
             1007.66,677.67 1007.82,676.57 1008.16,675.25
             1008.16,675.25 1012.44,659.00 1012.44,659.00
             1012.44,659.00 1008.47,659.00 1008.47,659.00
             1008.47,659.00 1008.94,657.00 1008.94,657.00
             1008.94,657.00 1013.36,657.00 1013.36,657.00
             1014.75,657.00 1016.25,656.84 1017.86,656.50
             1017.86,656.50 1019.98,656.00 1019.98,656.00
             1019.98,656.00 1021.55,656.00 1021.55,656.00 Z
           M 1042.55,673.00
           C 1042.55,673.00 1044.30,673.61 1044.30,673.61
             1041.44,679.87 1037.86,683.00 1033.56,683.00
             1031.96,683.00 1030.69,682.55 1029.75,681.64
             1028.82,680.73 1028.36,679.62 1028.36,678.28
             1028.36,677.22 1028.66,675.54 1029.28,673.23
             1029.28,673.23 1037.80,641.00 1037.80,641.00
             1037.80,641.00 1033.44,641.00 1033.44,641.00
             1033.44,641.00 1033.98,639.00 1033.98,639.00
             1033.98,639.00 1038.58,639.00 1038.58,639.00
             1039.74,639.00 1041.27,638.82 1043.16,638.47
             1043.16,638.47 1045.80,638.00 1045.80,638.00
             1045.80,638.00 1047.09,638.00 1047.09,638.00
             1047.09,638.00 1037.28,675.53 1037.28,675.53
             1036.99,676.46 1036.84,677.26 1036.84,677.92
             1036.84,678.64 1037.14,679.00 1037.73,679.00
             1038.95,679.00 1040.55,677.00 1042.55,673.00 Z" />
</svg>
