<?xml version="1.0" encoding="UTF-8" standalone="no"?>
<!DOCTYPE svg PUBLIC "-//W3C//DTD SVG 20010904//EN"
              "http://www.w3.org/TR/2001/REC-SVG-20010904/DTD/svg10.dtd">

<svg xmlns="http://www.w3.org/2000/svg"
     width="26.6667in" height="15in"
     viewBox="0 0 1920 1080">
  <path id="Path"
        fill="black" stroke="black" stroke-width="1"
        d="M 945.25,625.00
           C 945.25,625.00 941.55,643.00 941.55,643.00
             941.55,643.00 938.45,643.00 938.45,643.00
             938.30,637.71 936.90,633.72 934.23,631.03
             931.58,628.34 928.00,627.00 923.50,627.00
             915.02,627.00 909.22,632.52 906.09,643.56
             902.98,654.59 901.42,663.26 901.42,669.56
             901.42,672.61 902.55,675.27 904.83,677.56
             907.11,679.86 909.90,681.00 913.20,681.00
             917.35,681.00 921.54,679.63 925.78,676.89
             930.02,674.14 933.49,670.18 936.19,665.00
             936.19,665.00 939.23,665.00 939.23,665.00
             939.23,665.00 935.53,683.00 935.53,683.00
             935.53,683.00 932.14,683.00 932.14,683.00
             931.65,681.67 930.54,681.00 928.80,681.00
             927.85,681.00 926.11,681.34 923.59,682.03
             921.07,682.72 918.99,683.22 917.34,683.53
             915.70,683.84 913.67,684.00 911.27,684.00
             904.30,684.00 898.54,681.86 893.98,677.58
             889.43,673.29 887.16,667.59 887.16,660.47
             887.16,650.44 890.94,641.86 898.50,634.72
             906.06,627.57 914.31,624.00 923.25,624.00
             926.38,624.00 929.49,624.50 932.59,625.50
             935.71,626.50 937.58,627.00 938.20,627.00
             939.87,627.00 941.24,626.34 942.33,625.00
             942.33,625.00 945.25,625.00 945.25,625.00 Z
           M 976.75,649.00
           C 976.75,649.00 988.31,649.00 988.31,649.00
             988.31,649.00 982.39,672.39 982.39,672.39
             981.87,674.71 981.61,676.21 981.61,676.88
             981.61,678.29 982.08,679.00 983.03,679.00
             984.89,679.00 986.94,676.00 989.17,670.00
             989.17,670.00 991.45,671.67 991.45,671.67
             988.07,679.89 983.79,684.00 978.61,684.00
             974.60,684.00 971.99,681.94 970.78,677.81
             967.57,681.94 963.85,684.00 959.61,684.00
             956.11,684.00 953.16,682.80 950.77,680.39
             948.38,677.98 947.19,674.91 947.19,671.16
             947.19,665.16 949.35,659.80 953.67,655.08
             958.00,650.36 962.83,648.00 968.16,648.00
             971.77,648.00 974.23,649.70 975.55,653.11
             975.55,653.11 975.72,653.11 975.72,653.11
             975.72,653.11 976.75,649.00 976.75,649.00 Z
           M 969.03,652.00
           C 967.36,652.00 966.05,652.67 965.11,654.02
             964.17,655.35 962.80,659.34 960.98,665.98
             959.18,672.63 958.28,676.64 958.28,678.02
             958.28,680.01 959.40,681.00 961.64,681.00
             963.38,681.00 965.23,680.07 967.19,678.20
             969.16,676.34 970.80,672.73 972.14,667.36
             973.47,661.98 974.14,658.44 974.14,656.72
             974.14,655.54 973.66,654.46 972.72,653.48
             971.77,652.50 970.54,652.00 969.03,652.00 Z
           M 1016.77,670.00
           C 1016.77,670.00 1019.12,670.81 1019.12,670.81
             1015.26,679.61 1010.42,684.00 1004.61,684.00
             1002.43,684.00 1000.71,683.41 999.45,682.25
             998.19,681.09 997.56,679.64 997.56,677.92
             997.56,676.57 997.98,674.35 998.81,671.27
             998.81,671.27 1010.31,628.00 1010.31,628.00
             1010.31,628.00 1004.44,628.00 1004.44,628.00
             1004.44,628.00 1005.17,625.00 1005.17,625.00
             1005.17,625.00 1011.39,625.00 1011.39,625.00
             1012.96,625.00 1015.02,624.82 1017.58,624.47
             1017.58,624.47 1021.14,624.00 1021.14,624.00
             1021.14,624.00 1022.91,624.00 1022.91,624.00
             1022.91,624.00 1009.62,674.33 1009.62,674.33
             1009.23,675.58 1009.03,676.66 1009.03,677.56
             1009.03,678.52 1009.43,679.00 1010.23,679.00
             1011.90,679.00 1014.08,676.00 1016.77,670.00 Z
           M 1044.77,670.00
           C 1044.77,670.00 1047.12,670.81 1047.12,670.81
             1043.26,679.61 1038.42,684.00 1032.61,684.00
             1030.43,684.00 1028.71,683.41 1027.45,682.25
             1026.19,681.09 1025.56,679.64 1025.56,677.92
             1025.56,676.57 1025.98,674.35 1026.81,671.27
             1026.81,671.27 1038.31,628.00 1038.31,628.00
             1038.31,628.00 1032.44,628.00 1032.44,628.00
             1032.44,628.00 1033.17,625.00 1033.17,625.00
             1033.17,625.00 1039.39,625.00 1039.39,625.00
             1040.96,625.00 1043.02,624.82 1045.58,624.47
             1045.58,624.47 1049.14,624.00 1049.14,624.00
             1049.14,624.00 1050.91,624.00 1050.91,624.00
             1050.91,624.00 1037.62,674.33 1037.62,674.33
             1037.23,675.58 1037.03,676.66 1037.03,677.56
             1037.03,678.52 1037.43,679.00 1038.23,679.00
             1039.90,679.00 1042.08,676.00 1044.77,670.00 Z" />
</svg>
