<?xml version="1.0" encoding="UTF-8" standalone="no"?>
<!DOCTYPE svg PUBLIC "-//W3C//DTD SVG 20010904//EN"
              "http://www.w3.org/TR/2001/REC-SVG-20010904/DTD/svg10.dtd">

<svg xmlns="http://www.w3.org/2000/svg"
     width="26.6667in" height="15in"
     viewBox="0 0 1920 1080">
  <path id="phoneHandle"
        fill="none" stroke="black" stroke-width="1"
        d="M 945.64,470.18
           C 945.64,470.18 930.33,445.33 930.33,445.33
             930.33,445.33 920.67,437.00 912.67,443.67
             904.67,450.33 890.00,466.67 890.00,466.67
             890.00,466.67 886.33,572.33 1012.00,588.00
             1030.67,571.67 1034.33,560.67 1034.33,560.67
             1034.33,560.67 1037.00,553.67 1033.33,549.67
             1029.67,545.67 1009.00,528.00 1003.67,530.00
             998.33,532.00 994.33,534.33 988.00,540.00
             981.67,545.67 929.00,512.33 939.67,489.33
             942.64,484.27 944.91,481.82 945.36,480.00
             945.82,478.18 946.04,471.96 945.64,470.18 Z" />
</svg>
